G04 #@! TF.FileFunction,Copper,L1,Top,Signal*
%FSLAX46Y46*%
G04 Gerber Fmt 4.6, Leading zero omitted, Abs format (unit mm)*
G04 Created by KiCad (PCBNEW 4.0.5) date Sunday, 26 February 2017 'PMt' 14:45:35*
%MOMM*%
%LPD*%
G01*
G04 APERTURE LIST*
%ADD10C,0.100000*%
%ADD11C,6.400000*%
%ADD12C,1.800000*%
%ADD13R,1.600000X1.600000*%
%ADD14C,1.600000*%
%ADD15R,1.143000X0.508000*%
%ADD16R,1.560000X0.650000*%
%ADD17R,1.700000X1.200000*%
%ADD18O,1.700000X1.200000*%
%ADD19R,1.200000X1.700000*%
%ADD20O,1.200000X1.700000*%
%ADD21R,1.700000X1.700000*%
%ADD22O,1.700000X1.700000*%
%ADD23C,1.524000*%
%ADD24C,0.600000*%
%ADD25C,0.250000*%
%ADD26C,0.500000*%
%ADD27C,0.177800*%
G04 APERTURE END LIST*
D10*
D11*
X145000000Y-65000000D03*
X195000000Y-65000000D03*
X195000000Y-135000000D03*
D12*
X166370000Y-89217500D03*
X163830000Y-89217500D03*
X161290000Y-89217500D03*
X158750000Y-89217500D03*
X156210000Y-89217500D03*
X153670000Y-89217500D03*
X151130000Y-89217500D03*
X148590000Y-89217500D03*
X148590000Y-112077500D03*
X151130000Y-112077500D03*
X153670000Y-112077500D03*
X156210000Y-112077500D03*
X158750000Y-112077500D03*
X161290000Y-112077500D03*
X163830000Y-112077500D03*
X166370000Y-112077500D03*
D13*
X180340000Y-127000000D03*
D14*
X180340000Y-129500000D03*
D15*
X174625000Y-121285000D03*
X174625000Y-118745000D03*
X174625000Y-117475000D03*
X174625000Y-116205000D03*
X174625000Y-114935000D03*
X174625000Y-113665000D03*
X174625000Y-112395000D03*
X180975000Y-112395000D03*
X180975000Y-113665000D03*
X180975000Y-114935000D03*
X180975000Y-116205000D03*
X180975000Y-117475000D03*
X180975000Y-118745000D03*
X180975000Y-120015000D03*
X180975000Y-121285000D03*
X174625000Y-120015000D03*
X174625000Y-88265000D03*
X174625000Y-85725000D03*
X174625000Y-84455000D03*
X174625000Y-83185000D03*
X174625000Y-81915000D03*
X174625000Y-80645000D03*
X174625000Y-79375000D03*
X180975000Y-79375000D03*
X180975000Y-80645000D03*
X180975000Y-81915000D03*
X180975000Y-83185000D03*
X180975000Y-84455000D03*
X180975000Y-85725000D03*
X180975000Y-86995000D03*
X180975000Y-88265000D03*
X174625000Y-86995000D03*
D16*
X186530000Y-124780000D03*
X186530000Y-125730000D03*
X186530000Y-126680000D03*
X189230000Y-126680000D03*
X189230000Y-124780000D03*
X186610000Y-119700000D03*
X186610000Y-120650000D03*
X186610000Y-121600000D03*
X189310000Y-121600000D03*
X189310000Y-119700000D03*
X186610000Y-108270000D03*
X186610000Y-109220000D03*
X186610000Y-110170000D03*
X189310000Y-110170000D03*
X189310000Y-108270000D03*
X186610000Y-103190000D03*
X186610000Y-104140000D03*
X186610000Y-105090000D03*
X189310000Y-105090000D03*
X189310000Y-103190000D03*
X186610000Y-91760000D03*
X186610000Y-92710000D03*
X186610000Y-93660000D03*
X189310000Y-93660000D03*
X189310000Y-91760000D03*
X186610000Y-86680000D03*
X186610000Y-87630000D03*
X186610000Y-88580000D03*
X189310000Y-88580000D03*
X189310000Y-86680000D03*
X186610000Y-75250000D03*
X186610000Y-76200000D03*
X186610000Y-77150000D03*
X189310000Y-77150000D03*
X189310000Y-75250000D03*
X186610000Y-70170000D03*
X186610000Y-71120000D03*
X186610000Y-72070000D03*
X189310000Y-72070000D03*
X189310000Y-70170000D03*
D17*
X193040000Y-128460000D03*
D18*
X193040000Y-126460000D03*
X193040000Y-124460000D03*
X193040000Y-122460000D03*
X193040000Y-120460000D03*
D17*
X193040000Y-111760000D03*
D18*
X193040000Y-109760000D03*
X193040000Y-107760000D03*
X193040000Y-105760000D03*
X193040000Y-103760000D03*
D17*
X193040000Y-95440000D03*
D18*
X193040000Y-93440000D03*
X193040000Y-91440000D03*
X193040000Y-89440000D03*
X193040000Y-87440000D03*
D17*
X193040000Y-78930000D03*
D18*
X193040000Y-76930000D03*
X193040000Y-74930000D03*
X193040000Y-72930000D03*
X193040000Y-70930000D03*
D19*
X168020000Y-66675000D03*
D20*
X166020000Y-66675000D03*
X164020000Y-66675000D03*
X162020000Y-66675000D03*
X160020000Y-66675000D03*
D19*
X183070000Y-66675000D03*
D20*
X181070000Y-66675000D03*
X179070000Y-66675000D03*
X177070000Y-66675000D03*
X175070000Y-66675000D03*
D21*
X151130000Y-85090000D03*
D22*
X151130000Y-82550000D03*
D23*
X187920000Y-136525000D03*
X182920000Y-136525000D03*
D11*
X145000000Y-135000000D03*
D24*
X173355000Y-88265000D03*
X173355000Y-80645000D03*
X173355000Y-113665000D03*
X173355000Y-121285000D03*
X182245000Y-122555000D03*
X185102500Y-126682500D03*
X185226949Y-124653051D03*
X182245000Y-121285000D03*
X185102500Y-119697500D03*
X182245000Y-118745000D03*
X185102500Y-108267500D03*
X182245000Y-116205000D03*
X185102500Y-103187500D03*
X182245000Y-113665000D03*
X175895000Y-89535000D03*
X185102500Y-93662500D03*
X185226949Y-91633051D03*
X182245000Y-88265000D03*
X182245000Y-86995000D03*
X185102500Y-88582500D03*
X182245000Y-85725000D03*
X185102500Y-86677500D03*
X182245000Y-84455000D03*
X185102500Y-77152500D03*
X182245000Y-83185000D03*
X185102500Y-75247500D03*
X182245000Y-81915000D03*
X185102500Y-72072500D03*
X182245000Y-80645000D03*
X185102500Y-70167500D03*
X185102500Y-121602500D03*
X182245000Y-120015000D03*
X185102500Y-110172500D03*
X182245000Y-117475000D03*
X185102500Y-105092500D03*
X182245000Y-114935000D03*
X176530000Y-83502500D03*
D25*
X168020000Y-66675000D02*
X168020000Y-68007500D01*
X168020000Y-68007500D02*
X168592500Y-68580000D01*
X168592500Y-68580000D02*
X174723161Y-68580000D01*
X174723161Y-68580000D02*
X175995010Y-67308151D01*
X175995010Y-67308151D02*
X175995010Y-66191829D01*
X175995010Y-66191829D02*
X177136860Y-65049979D01*
X177136860Y-65049979D02*
X181694979Y-65049979D01*
X181694979Y-65049979D02*
X183070000Y-66425000D01*
X183070000Y-66425000D02*
X183070000Y-66675000D01*
X173355000Y-88265000D02*
X174625000Y-88265000D01*
X174625000Y-80645000D02*
X173355000Y-80645000D01*
X173355000Y-113665000D02*
X174625000Y-113665000D01*
X174625000Y-121285000D02*
X173355000Y-121285000D01*
X174307500Y-80645000D02*
X174625000Y-80645000D01*
X174625000Y-88265000D02*
X174307500Y-88265000D01*
X174307500Y-113665000D02*
X174625000Y-113665000D01*
X174625000Y-121285000D02*
X174307500Y-121285000D01*
X173355000Y-87312500D02*
X173355000Y-86360000D01*
X172720000Y-88582500D02*
X172720000Y-87947500D01*
X172720000Y-87947500D02*
X173355000Y-87312500D01*
X173990000Y-85725000D02*
X174625000Y-85725000D01*
X173355000Y-86360000D02*
X173990000Y-85725000D01*
X174625000Y-112395000D02*
X175446500Y-112395000D01*
X175446500Y-112395000D02*
X175895000Y-111946500D01*
X175895000Y-111946500D02*
X175895000Y-90487500D01*
X174625000Y-89217500D02*
X173355000Y-89217500D01*
X173355000Y-89217500D02*
X172720000Y-88582500D01*
X175895000Y-90487500D02*
X174625000Y-89217500D01*
X174625000Y-120015000D02*
X174942500Y-120015000D01*
X174942500Y-120015000D02*
X177482500Y-122555000D01*
X177482500Y-122555000D02*
X181820736Y-122555000D01*
X181820736Y-122555000D02*
X182245000Y-122555000D01*
X186530000Y-126680000D02*
X185105000Y-126680000D01*
X185105000Y-126680000D02*
X185102500Y-126682500D01*
X185353898Y-124780000D02*
X185226949Y-124653051D01*
X186530000Y-124780000D02*
X185353898Y-124780000D01*
X182245000Y-121285000D02*
X180975000Y-121285000D01*
X186610000Y-119700000D02*
X185105000Y-119700000D01*
X185105000Y-119700000D02*
X185102500Y-119697500D01*
X182245000Y-118745000D02*
X180975000Y-118745000D01*
X186610000Y-108270000D02*
X185105000Y-108270000D01*
X185105000Y-108270000D02*
X185102500Y-108267500D01*
X182245000Y-116205000D02*
X180975000Y-116205000D01*
X186610000Y-103190000D02*
X185105000Y-103190000D01*
X185105000Y-103190000D02*
X185102500Y-103187500D01*
X186610000Y-103190000D02*
X185727501Y-103190000D01*
X182245000Y-113665000D02*
X180975000Y-113665000D01*
X175895000Y-89535000D02*
X175895000Y-87947500D01*
X174942500Y-86995000D02*
X174625000Y-86995000D01*
X175895000Y-87947500D02*
X174942500Y-86995000D01*
X186610000Y-93660000D02*
X185105000Y-93660000D01*
X185105000Y-93660000D02*
X185102500Y-93662500D01*
X186610000Y-91760000D02*
X185353898Y-91760000D01*
X185353898Y-91760000D02*
X185226949Y-91633051D01*
X182245000Y-88265000D02*
X180975000Y-88265000D01*
X182245000Y-86995000D02*
X180975000Y-86995000D01*
X186610000Y-88580000D02*
X185105000Y-88580000D01*
X185105000Y-88580000D02*
X185102500Y-88582500D01*
X182245000Y-85725000D02*
X180975000Y-85725000D01*
X186610000Y-86680000D02*
X185105000Y-86680000D01*
X185105000Y-86680000D02*
X185102500Y-86677500D01*
X182245000Y-84455000D02*
X180975000Y-84455000D01*
X186610000Y-77150000D02*
X185105000Y-77150000D01*
X185105000Y-77150000D02*
X185102500Y-77152500D01*
X182245000Y-83185000D02*
X180975000Y-83185000D01*
X186610000Y-75250000D02*
X185105000Y-75250000D01*
X185105000Y-75250000D02*
X185102500Y-75247500D01*
X182245000Y-81915000D02*
X180975000Y-81915000D01*
X186610000Y-72070000D02*
X185105000Y-72070000D01*
X185105000Y-72070000D02*
X185102500Y-72072500D01*
X182245000Y-80645000D02*
X180975000Y-80645000D01*
X186610000Y-70170000D02*
X185105000Y-70170000D01*
X185105000Y-70170000D02*
X185102500Y-70167500D01*
X186610000Y-121600000D02*
X185105000Y-121600000D01*
X185105000Y-121600000D02*
X185102500Y-121602500D01*
X182245000Y-120015000D02*
X180975000Y-120015000D01*
X186610000Y-110170000D02*
X185105000Y-110170000D01*
X185105000Y-110170000D02*
X185102500Y-110172500D01*
X182245000Y-117475000D02*
X180975000Y-117475000D01*
X186610000Y-105090000D02*
X185105000Y-105090000D01*
X185105000Y-105090000D02*
X185102500Y-105092500D01*
X182245000Y-114935000D02*
X180975000Y-114935000D01*
D26*
X189230000Y-126680000D02*
X192820000Y-126680000D01*
X192820000Y-126680000D02*
X193040000Y-126460000D01*
X189230000Y-124780000D02*
X192720000Y-124780000D01*
X192720000Y-124780000D02*
X193040000Y-124460000D01*
X189310000Y-121600000D02*
X192180000Y-121600000D01*
X192180000Y-121600000D02*
X193040000Y-122460000D01*
X189310000Y-119700000D02*
X192280000Y-119700000D01*
X192280000Y-119700000D02*
X193040000Y-120460000D01*
X189310000Y-110170000D02*
X192630000Y-110170000D01*
X192630000Y-110170000D02*
X193040000Y-109760000D01*
X189310000Y-108270000D02*
X192530000Y-108270000D01*
X192530000Y-108270000D02*
X193040000Y-107760000D01*
X189310000Y-105090000D02*
X192370000Y-105090000D01*
X192370000Y-105090000D02*
X193040000Y-105760000D01*
X189310000Y-103190000D02*
X192470000Y-103190000D01*
X192470000Y-103190000D02*
X193040000Y-103760000D01*
X189310000Y-93660000D02*
X192820000Y-93660000D01*
X192820000Y-93660000D02*
X193040000Y-93440000D01*
X189310000Y-91760000D02*
X192720000Y-91760000D01*
X192720000Y-91760000D02*
X193040000Y-91440000D01*
X189310000Y-88580000D02*
X192180000Y-88580000D01*
X192180000Y-88580000D02*
X193040000Y-89440000D01*
X189310000Y-86680000D02*
X192280000Y-86680000D01*
X192280000Y-86680000D02*
X193040000Y-87440000D01*
X189310000Y-77150000D02*
X192820000Y-77150000D01*
X192820000Y-77150000D02*
X193040000Y-76930000D01*
X189310000Y-75250000D02*
X192720000Y-75250000D01*
X192720000Y-75250000D02*
X193040000Y-74930000D01*
X189310000Y-72070000D02*
X192180000Y-72070000D01*
X192180000Y-72070000D02*
X193040000Y-72930000D01*
X189310000Y-70170000D02*
X192280000Y-70170000D01*
X192280000Y-70170000D02*
X193040000Y-70930000D01*
D25*
X166020000Y-66425000D02*
X166020000Y-66675000D01*
X156524708Y-116205000D02*
X153670000Y-113350292D01*
X173355000Y-116522500D02*
X173037500Y-116205000D01*
X173037500Y-116205000D02*
X156524708Y-116205000D01*
X173355000Y-117792500D02*
X173355000Y-116522500D01*
X174625000Y-118745000D02*
X174307500Y-118745000D01*
X174307500Y-118745000D02*
X173355000Y-117792500D01*
X153670000Y-113350292D02*
X153670000Y-112077500D01*
X174625000Y-116205000D02*
X173803500Y-116205000D01*
X173803500Y-116205000D02*
X173353491Y-115754991D01*
X173353491Y-115754991D02*
X157029991Y-115754991D01*
X157029991Y-115754991D02*
X156210000Y-114935000D01*
X156210000Y-114935000D02*
X156210000Y-112077500D01*
X179070000Y-67945000D02*
X179070000Y-66675000D01*
X177165000Y-69850000D02*
X179070000Y-67945000D01*
X177165000Y-83044498D02*
X177165000Y-69850000D01*
X177165000Y-114617500D02*
X177165000Y-83185000D01*
X174625000Y-116205000D02*
X175577500Y-116205000D01*
X177165000Y-114617500D02*
X175577500Y-116205000D01*
X177165000Y-83185000D02*
X177165000Y-83044498D01*
X174307500Y-83185000D02*
X174625000Y-83185000D01*
X177165000Y-83044498D02*
X175456501Y-81335999D01*
X175456501Y-81335999D02*
X173793499Y-81335999D01*
X173793499Y-81335999D02*
X173728499Y-81400999D01*
X173728499Y-82605999D02*
X174307500Y-83185000D01*
X173728499Y-81400999D02*
X173728499Y-82605999D01*
X177070000Y-66675000D02*
X177070000Y-66925000D01*
X177070000Y-66925000D02*
X174964989Y-69030011D01*
X168090011Y-69030011D02*
X167005000Y-67945000D01*
X163040000Y-67945000D02*
X162020000Y-66925000D01*
X174964989Y-69030011D02*
X168090011Y-69030011D01*
X167005000Y-67945000D02*
X163040000Y-67945000D01*
X162020000Y-66925000D02*
X162020000Y-66675000D01*
X174625000Y-114935000D02*
X174307500Y-115252500D01*
X174307500Y-115252500D02*
X159067500Y-115252500D01*
X159067500Y-115252500D02*
X158750000Y-114935000D01*
X158750000Y-114935000D02*
X158750000Y-112077500D01*
X176530000Y-114300000D02*
X176530000Y-113347500D01*
X175895000Y-114935000D02*
X176530000Y-114300000D01*
X174625000Y-114935000D02*
X175895000Y-114935000D01*
X176530000Y-113347500D02*
X176530000Y-83502500D01*
X176530000Y-83502500D02*
X174942500Y-81915000D01*
X174942500Y-81915000D02*
X174625000Y-81915000D01*
X176528589Y-69850000D02*
X178144990Y-68233599D01*
X176528589Y-79056089D02*
X176528589Y-69850000D01*
X176530000Y-79057500D02*
X176528589Y-79056089D01*
X176212500Y-79375000D02*
X176530000Y-79057500D01*
X174625000Y-79375000D02*
X176212500Y-79375000D01*
X180144990Y-65499990D02*
X181070000Y-66425000D01*
X181070000Y-66425000D02*
X181070000Y-66675000D01*
X178686849Y-65499990D02*
X180144990Y-65499990D01*
X178144990Y-66041849D02*
X178686849Y-65499990D01*
X178144990Y-68233599D02*
X178144990Y-66041849D01*
D27*
G36*
X196770182Y-60726403D02*
X198270870Y-61729131D01*
X199273597Y-63229818D01*
X199632900Y-65036155D01*
X199632900Y-134963845D01*
X199273597Y-136770182D01*
X198270870Y-138270869D01*
X196770182Y-139273597D01*
X195073441Y-139611100D01*
X144926559Y-139611100D01*
X143229818Y-139273597D01*
X141729131Y-138270870D01*
X140726403Y-136770182D01*
X140511855Y-135691574D01*
X141507295Y-135691574D01*
X142037816Y-136975531D01*
X143019302Y-137958732D01*
X144302331Y-138491492D01*
X145691574Y-138492705D01*
X146975531Y-137962184D01*
X147570355Y-137368397D01*
X182310090Y-137368397D01*
X182398551Y-137523597D01*
X182820391Y-137647134D01*
X183257395Y-137599836D01*
X183441449Y-137523597D01*
X183529910Y-137368397D01*
X182920000Y-136758487D01*
X182310090Y-137368397D01*
X147570355Y-137368397D01*
X147958732Y-136980698D01*
X148189315Y-136425391D01*
X181797866Y-136425391D01*
X181845164Y-136862395D01*
X181921403Y-137046449D01*
X182076603Y-137134910D01*
X182686513Y-136525000D01*
X183153487Y-136525000D01*
X183763397Y-137134910D01*
X183918597Y-137046449D01*
X184010170Y-136733754D01*
X186865717Y-136733754D01*
X187025856Y-137121320D01*
X187322121Y-137418101D01*
X187709407Y-137578917D01*
X188128754Y-137579283D01*
X188516320Y-137419144D01*
X188813101Y-137122879D01*
X188973917Y-136735593D01*
X188974283Y-136316246D01*
X188814144Y-135928680D01*
X188577451Y-135691574D01*
X191507295Y-135691574D01*
X192037816Y-136975531D01*
X193019302Y-137958732D01*
X194302331Y-138491492D01*
X195691574Y-138492705D01*
X196975531Y-137962184D01*
X197958732Y-136980698D01*
X198491492Y-135697669D01*
X198492705Y-134308426D01*
X197962184Y-133024469D01*
X196980698Y-132041268D01*
X195697669Y-131508508D01*
X194308426Y-131507295D01*
X193024469Y-132037816D01*
X192041268Y-133019302D01*
X191508508Y-134302331D01*
X191507295Y-135691574D01*
X188577451Y-135691574D01*
X188517879Y-135631899D01*
X188130593Y-135471083D01*
X187711246Y-135470717D01*
X187323680Y-135630856D01*
X187026899Y-135927121D01*
X186866083Y-136314407D01*
X186865717Y-136733754D01*
X184010170Y-136733754D01*
X184042134Y-136624609D01*
X183994836Y-136187605D01*
X183918597Y-136003551D01*
X183763397Y-135915090D01*
X183153487Y-136525000D01*
X182686513Y-136525000D01*
X182076603Y-135915090D01*
X181921403Y-136003551D01*
X181797866Y-136425391D01*
X148189315Y-136425391D01*
X148491492Y-135697669D01*
X148491506Y-135681603D01*
X182310090Y-135681603D01*
X182920000Y-136291513D01*
X183529910Y-135681603D01*
X183441449Y-135526403D01*
X183019609Y-135402866D01*
X182582605Y-135450164D01*
X182398551Y-135526403D01*
X182310090Y-135681603D01*
X148491506Y-135681603D01*
X148492705Y-134308426D01*
X147962184Y-133024469D01*
X146980698Y-132041268D01*
X145697669Y-131508508D01*
X144308426Y-131507295D01*
X143024469Y-132037816D01*
X142041268Y-133019302D01*
X141508508Y-134302331D01*
X141507295Y-135691574D01*
X140511855Y-135691574D01*
X140367100Y-134963845D01*
X140367100Y-130371132D01*
X179702354Y-130371132D01*
X179795537Y-130530274D01*
X180231251Y-130660206D01*
X180683520Y-130613507D01*
X180884463Y-130530274D01*
X180977646Y-130371132D01*
X180340000Y-129733487D01*
X179702354Y-130371132D01*
X140367100Y-130371132D01*
X140367100Y-129391251D01*
X179179794Y-129391251D01*
X179226493Y-129843520D01*
X179309726Y-130044463D01*
X179468868Y-130137646D01*
X180106513Y-129500000D01*
X180573487Y-129500000D01*
X181211132Y-130137646D01*
X181370274Y-130044463D01*
X181500206Y-129608749D01*
X181453507Y-129156480D01*
X181370274Y-128955537D01*
X181211132Y-128862354D01*
X180573487Y-129500000D01*
X180106513Y-129500000D01*
X179468868Y-128862354D01*
X179309726Y-128955537D01*
X179179794Y-129391251D01*
X140367100Y-129391251D01*
X140367100Y-128628868D01*
X179702354Y-128628868D01*
X180340000Y-129266513D01*
X180977646Y-128628868D01*
X180884463Y-128469726D01*
X180448749Y-128339794D01*
X179996480Y-128386493D01*
X179795537Y-128469726D01*
X179702354Y-128628868D01*
X140367100Y-128628868D01*
X140367100Y-126200000D01*
X179242178Y-126200000D01*
X179242178Y-127800000D01*
X179262546Y-127908246D01*
X179326519Y-128007663D01*
X179424131Y-128074358D01*
X179540000Y-128097822D01*
X181140000Y-128097822D01*
X181248246Y-128077454D01*
X181347663Y-128013481D01*
X181414358Y-127915869D01*
X181425671Y-127860000D01*
X191892178Y-127860000D01*
X191892178Y-129060000D01*
X191912546Y-129168246D01*
X191976519Y-129267663D01*
X192074131Y-129334358D01*
X192190000Y-129357822D01*
X193890000Y-129357822D01*
X193998246Y-129337454D01*
X194097663Y-129273481D01*
X194164358Y-129175869D01*
X194187822Y-129060000D01*
X194187822Y-127860000D01*
X194167454Y-127751754D01*
X194103481Y-127652337D01*
X194005869Y-127585642D01*
X193890000Y-127562178D01*
X192190000Y-127562178D01*
X192081754Y-127582546D01*
X191982337Y-127646519D01*
X191915642Y-127744131D01*
X191892178Y-127860000D01*
X181425671Y-127860000D01*
X181437822Y-127800000D01*
X181437822Y-126799759D01*
X184510297Y-126799759D01*
X184600249Y-127017460D01*
X184766664Y-127184165D01*
X184984207Y-127274497D01*
X185219759Y-127274703D01*
X185437460Y-127184751D01*
X185486839Y-127135458D01*
X185536519Y-127212663D01*
X185634131Y-127279358D01*
X185750000Y-127302822D01*
X187310000Y-127302822D01*
X187418246Y-127282454D01*
X187517663Y-127218481D01*
X187584358Y-127120869D01*
X187607822Y-127005000D01*
X187607822Y-126355000D01*
X188152178Y-126355000D01*
X188152178Y-127005000D01*
X188172546Y-127113246D01*
X188236519Y-127212663D01*
X188334131Y-127279358D01*
X188450000Y-127302822D01*
X190010000Y-127302822D01*
X190118246Y-127282454D01*
X190212039Y-127222100D01*
X192333304Y-127222100D01*
X192426233Y-127284193D01*
X192767625Y-127352100D01*
X193312375Y-127352100D01*
X193653767Y-127284193D01*
X193943185Y-127090810D01*
X194136568Y-126801392D01*
X194204475Y-126460000D01*
X194136568Y-126118608D01*
X193943185Y-125829190D01*
X193653767Y-125635807D01*
X193312375Y-125567900D01*
X192767625Y-125567900D01*
X192426233Y-125635807D01*
X192136815Y-125829190D01*
X191943432Y-126118608D01*
X191939595Y-126137900D01*
X190209669Y-126137900D01*
X190125869Y-126080642D01*
X190010000Y-126057178D01*
X188450000Y-126057178D01*
X188341754Y-126077546D01*
X188242337Y-126141519D01*
X188175642Y-126239131D01*
X188152178Y-126355000D01*
X187607822Y-126355000D01*
X187589944Y-126259990D01*
X187600697Y-126249237D01*
X187652900Y-126123207D01*
X187652900Y-125978225D01*
X187567175Y-125892500D01*
X186695100Y-125892500D01*
X186695100Y-125915100D01*
X186364900Y-125915100D01*
X186364900Y-125892500D01*
X185492825Y-125892500D01*
X185407100Y-125978225D01*
X185407100Y-126123207D01*
X185429440Y-126177141D01*
X185220793Y-126090503D01*
X184985241Y-126090297D01*
X184767540Y-126180249D01*
X184600835Y-126346664D01*
X184510503Y-126564207D01*
X184510297Y-126799759D01*
X181437822Y-126799759D01*
X181437822Y-126200000D01*
X181417454Y-126091754D01*
X181353481Y-125992337D01*
X181255869Y-125925642D01*
X181140000Y-125902178D01*
X179540000Y-125902178D01*
X179431754Y-125922546D01*
X179332337Y-125986519D01*
X179265642Y-126084131D01*
X179242178Y-126200000D01*
X140367100Y-126200000D01*
X140367100Y-124770310D01*
X184634746Y-124770310D01*
X184724698Y-124988011D01*
X184891113Y-125154716D01*
X185108656Y-125245048D01*
X185344208Y-125245254D01*
X185460750Y-125197100D01*
X185469508Y-125197100D01*
X185470056Y-125200010D01*
X185459303Y-125210763D01*
X185407100Y-125336793D01*
X185407100Y-125481775D01*
X185492825Y-125567500D01*
X186364900Y-125567500D01*
X186364900Y-125544900D01*
X186695100Y-125544900D01*
X186695100Y-125567500D01*
X187567175Y-125567500D01*
X187652900Y-125481775D01*
X187652900Y-125336793D01*
X187600697Y-125210763D01*
X187588811Y-125198877D01*
X187607822Y-125105000D01*
X187607822Y-124455000D01*
X188152178Y-124455000D01*
X188152178Y-125105000D01*
X188172546Y-125213246D01*
X188236519Y-125312663D01*
X188334131Y-125379358D01*
X188450000Y-125402822D01*
X190010000Y-125402822D01*
X190118246Y-125382454D01*
X190212039Y-125322100D01*
X192616805Y-125322100D01*
X192767625Y-125352100D01*
X193312375Y-125352100D01*
X193653767Y-125284193D01*
X193943185Y-125090810D01*
X194136568Y-124801392D01*
X194204475Y-124460000D01*
X194136568Y-124118608D01*
X193943185Y-123829190D01*
X193653767Y-123635807D01*
X193312375Y-123567900D01*
X192767625Y-123567900D01*
X192426233Y-123635807D01*
X192136815Y-123829190D01*
X191943432Y-124118608D01*
X191919703Y-124237900D01*
X190209669Y-124237900D01*
X190125869Y-124180642D01*
X190010000Y-124157178D01*
X188450000Y-124157178D01*
X188341754Y-124177546D01*
X188242337Y-124241519D01*
X188175642Y-124339131D01*
X188152178Y-124455000D01*
X187607822Y-124455000D01*
X187587454Y-124346754D01*
X187523481Y-124247337D01*
X187425869Y-124180642D01*
X187310000Y-124157178D01*
X185750000Y-124157178D01*
X185641754Y-124177546D01*
X185609572Y-124198255D01*
X185562785Y-124151386D01*
X185345242Y-124061054D01*
X185109690Y-124060848D01*
X184891989Y-124150800D01*
X184725284Y-124317215D01*
X184634952Y-124534758D01*
X184634746Y-124770310D01*
X140367100Y-124770310D01*
X140367100Y-121402259D01*
X172762797Y-121402259D01*
X172852749Y-121619960D01*
X173019164Y-121786665D01*
X173236707Y-121876997D01*
X173472259Y-121877203D01*
X173689960Y-121787251D01*
X173775259Y-121702100D01*
X173811344Y-121702100D01*
X173840019Y-121746663D01*
X173937631Y-121813358D01*
X174053500Y-121836822D01*
X175196500Y-121836822D01*
X175304746Y-121816454D01*
X175404163Y-121752481D01*
X175470858Y-121654869D01*
X175494322Y-121539000D01*
X175494322Y-121156690D01*
X177187565Y-122849934D01*
X177322882Y-122940350D01*
X177349364Y-122945618D01*
X177482500Y-122972100D01*
X181824746Y-122972100D01*
X181909164Y-123056665D01*
X182126707Y-123146997D01*
X182362259Y-123147203D01*
X182579960Y-123057251D01*
X182746665Y-122890836D01*
X182836997Y-122673293D01*
X182837203Y-122437741D01*
X182747251Y-122220040D01*
X182580836Y-122053335D01*
X182363293Y-121963003D01*
X182127741Y-121962797D01*
X181910040Y-122052749D01*
X181824741Y-122137900D01*
X177655269Y-122137900D01*
X176548369Y-121031000D01*
X180105678Y-121031000D01*
X180105678Y-121539000D01*
X180126046Y-121647246D01*
X180190019Y-121746663D01*
X180287631Y-121813358D01*
X180403500Y-121836822D01*
X181546500Y-121836822D01*
X181654746Y-121816454D01*
X181754163Y-121752481D01*
X181788587Y-121702100D01*
X181824746Y-121702100D01*
X181909164Y-121786665D01*
X182126707Y-121876997D01*
X182362259Y-121877203D01*
X182579960Y-121787251D01*
X182647569Y-121719759D01*
X184510297Y-121719759D01*
X184600249Y-121937460D01*
X184766664Y-122104165D01*
X184984207Y-122194497D01*
X185219759Y-122194703D01*
X185437460Y-122104751D01*
X185525264Y-122017100D01*
X185549508Y-122017100D01*
X185552546Y-122033246D01*
X185616519Y-122132663D01*
X185714131Y-122199358D01*
X185830000Y-122222822D01*
X187390000Y-122222822D01*
X187498246Y-122202454D01*
X187597663Y-122138481D01*
X187664358Y-122040869D01*
X187687822Y-121925000D01*
X187687822Y-121275000D01*
X187669944Y-121179990D01*
X187680697Y-121169237D01*
X187732900Y-121043207D01*
X187732900Y-120898225D01*
X187647175Y-120812500D01*
X186775100Y-120812500D01*
X186775100Y-120835100D01*
X186444900Y-120835100D01*
X186444900Y-120812500D01*
X185572825Y-120812500D01*
X185487100Y-120898225D01*
X185487100Y-121043207D01*
X185539303Y-121169237D01*
X185551189Y-121181123D01*
X185550829Y-121182900D01*
X185520258Y-121182900D01*
X185438336Y-121100835D01*
X185220793Y-121010503D01*
X184985241Y-121010297D01*
X184767540Y-121100249D01*
X184600835Y-121266664D01*
X184510503Y-121484207D01*
X184510297Y-121719759D01*
X182647569Y-121719759D01*
X182746665Y-121620836D01*
X182836997Y-121403293D01*
X182837203Y-121167741D01*
X182747251Y-120950040D01*
X182580836Y-120783335D01*
X182363293Y-120693003D01*
X182127741Y-120692797D01*
X181910040Y-120782749D01*
X181824741Y-120867900D01*
X181788656Y-120867900D01*
X181759981Y-120823337D01*
X181662369Y-120756642D01*
X181546500Y-120733178D01*
X180403500Y-120733178D01*
X180295254Y-120753546D01*
X180195837Y-120817519D01*
X180129142Y-120915131D01*
X180105678Y-121031000D01*
X176548369Y-121031000D01*
X175494322Y-119976954D01*
X175494322Y-119761000D01*
X180105678Y-119761000D01*
X180105678Y-120269000D01*
X180126046Y-120377246D01*
X180190019Y-120476663D01*
X180287631Y-120543358D01*
X180403500Y-120566822D01*
X181546500Y-120566822D01*
X181654746Y-120546454D01*
X181754163Y-120482481D01*
X181788587Y-120432100D01*
X181824746Y-120432100D01*
X181909164Y-120516665D01*
X182126707Y-120606997D01*
X182362259Y-120607203D01*
X182579960Y-120517251D01*
X182746665Y-120350836D01*
X182836997Y-120133293D01*
X182837203Y-119897741D01*
X182802916Y-119814759D01*
X184510297Y-119814759D01*
X184600249Y-120032460D01*
X184766664Y-120199165D01*
X184984207Y-120289497D01*
X185219759Y-120289703D01*
X185437460Y-120199751D01*
X185520255Y-120117100D01*
X185549508Y-120117100D01*
X185550056Y-120120010D01*
X185539303Y-120130763D01*
X185487100Y-120256793D01*
X185487100Y-120401775D01*
X185572825Y-120487500D01*
X186444900Y-120487500D01*
X186444900Y-120464900D01*
X186775100Y-120464900D01*
X186775100Y-120487500D01*
X187647175Y-120487500D01*
X187732900Y-120401775D01*
X187732900Y-120256793D01*
X187680697Y-120130763D01*
X187668811Y-120118877D01*
X187687822Y-120025000D01*
X187687822Y-119375000D01*
X188232178Y-119375000D01*
X188232178Y-120025000D01*
X188252546Y-120133246D01*
X188316519Y-120232663D01*
X188414131Y-120299358D01*
X188530000Y-120322822D01*
X190090000Y-120322822D01*
X190198246Y-120302454D01*
X190292039Y-120242100D01*
X191918868Y-120242100D01*
X191875525Y-120460000D01*
X191943432Y-120801392D01*
X192114825Y-121057900D01*
X190289669Y-121057900D01*
X190205869Y-121000642D01*
X190090000Y-120977178D01*
X188530000Y-120977178D01*
X188421754Y-120997546D01*
X188322337Y-121061519D01*
X188255642Y-121159131D01*
X188232178Y-121275000D01*
X188232178Y-121925000D01*
X188252546Y-122033246D01*
X188316519Y-122132663D01*
X188414131Y-122199358D01*
X188530000Y-122222822D01*
X190090000Y-122222822D01*
X190198246Y-122202454D01*
X190292039Y-122142100D01*
X191938759Y-122142100D01*
X191875525Y-122460000D01*
X191943432Y-122801392D01*
X192136815Y-123090810D01*
X192426233Y-123284193D01*
X192767625Y-123352100D01*
X193312375Y-123352100D01*
X193653767Y-123284193D01*
X193943185Y-123090810D01*
X194136568Y-122801392D01*
X194204475Y-122460000D01*
X194136568Y-122118608D01*
X193943185Y-121829190D01*
X193653767Y-121635807D01*
X193312375Y-121567900D01*
X192914546Y-121567900D01*
X192681643Y-121334997D01*
X192767625Y-121352100D01*
X193312375Y-121352100D01*
X193653767Y-121284193D01*
X193943185Y-121090810D01*
X194136568Y-120801392D01*
X194204475Y-120460000D01*
X194136568Y-120118608D01*
X193943185Y-119829190D01*
X193653767Y-119635807D01*
X193312375Y-119567900D01*
X192914546Y-119567900D01*
X192663323Y-119316677D01*
X192609030Y-119280400D01*
X192487453Y-119199165D01*
X192453033Y-119192319D01*
X192280000Y-119157899D01*
X192279995Y-119157900D01*
X190289669Y-119157900D01*
X190205869Y-119100642D01*
X190090000Y-119077178D01*
X188530000Y-119077178D01*
X188421754Y-119097546D01*
X188322337Y-119161519D01*
X188255642Y-119259131D01*
X188232178Y-119375000D01*
X187687822Y-119375000D01*
X187667454Y-119266754D01*
X187603481Y-119167337D01*
X187505869Y-119100642D01*
X187390000Y-119077178D01*
X185830000Y-119077178D01*
X185721754Y-119097546D01*
X185622337Y-119161519D01*
X185555642Y-119259131D01*
X185550829Y-119282900D01*
X185525250Y-119282900D01*
X185438336Y-119195835D01*
X185220793Y-119105503D01*
X184985241Y-119105297D01*
X184767540Y-119195249D01*
X184600835Y-119361664D01*
X184510503Y-119579207D01*
X184510297Y-119814759D01*
X182802916Y-119814759D01*
X182747251Y-119680040D01*
X182580836Y-119513335D01*
X182363293Y-119423003D01*
X182127741Y-119422797D01*
X181910040Y-119512749D01*
X181824741Y-119597900D01*
X181788656Y-119597900D01*
X181759981Y-119553337D01*
X181662369Y-119486642D01*
X181546500Y-119463178D01*
X180403500Y-119463178D01*
X180295254Y-119483546D01*
X180195837Y-119547519D01*
X180129142Y-119645131D01*
X180105678Y-119761000D01*
X175494322Y-119761000D01*
X175473954Y-119652754D01*
X175409981Y-119553337D01*
X175312369Y-119486642D01*
X175196500Y-119463178D01*
X174053500Y-119463178D01*
X173945254Y-119483546D01*
X173845837Y-119547519D01*
X173779142Y-119645131D01*
X173755678Y-119761000D01*
X173755678Y-120269000D01*
X173776046Y-120377246D01*
X173840019Y-120476663D01*
X173937631Y-120543358D01*
X174053500Y-120566822D01*
X174904454Y-120566822D01*
X175070810Y-120733178D01*
X174053500Y-120733178D01*
X173945254Y-120753546D01*
X173845837Y-120817519D01*
X173811413Y-120867900D01*
X173775254Y-120867900D01*
X173690836Y-120783335D01*
X173473293Y-120693003D01*
X173237741Y-120692797D01*
X173020040Y-120782749D01*
X172853335Y-120949164D01*
X172763003Y-121166707D01*
X172762797Y-121402259D01*
X140367100Y-121402259D01*
X140367100Y-112313583D01*
X147397693Y-112313583D01*
X147578797Y-112751888D01*
X147913848Y-113087524D01*
X148351836Y-113269393D01*
X148826083Y-113269807D01*
X149264388Y-113088703D01*
X149600024Y-112753652D01*
X149781893Y-112315664D01*
X149781894Y-112313583D01*
X149937693Y-112313583D01*
X150118797Y-112751888D01*
X150453848Y-113087524D01*
X150891836Y-113269393D01*
X151366083Y-113269807D01*
X151804388Y-113088703D01*
X152140024Y-112753652D01*
X152321893Y-112315664D01*
X152321894Y-112313583D01*
X152477693Y-112313583D01*
X152658797Y-112751888D01*
X152993848Y-113087524D01*
X153252900Y-113195092D01*
X153252900Y-113350292D01*
X153284650Y-113509909D01*
X153375066Y-113645226D01*
X156229774Y-116499934D01*
X156365091Y-116590350D01*
X156524708Y-116622100D01*
X172864732Y-116622100D01*
X172937900Y-116695268D01*
X172937900Y-117792500D01*
X172969650Y-117952117D01*
X173060066Y-118087434D01*
X173755678Y-118783047D01*
X173755678Y-118999000D01*
X173776046Y-119107246D01*
X173840019Y-119206663D01*
X173937631Y-119273358D01*
X174053500Y-119296822D01*
X175196500Y-119296822D01*
X175304746Y-119276454D01*
X175404163Y-119212481D01*
X175470858Y-119114869D01*
X175494322Y-118999000D01*
X175494322Y-118491000D01*
X180105678Y-118491000D01*
X180105678Y-118999000D01*
X180126046Y-119107246D01*
X180190019Y-119206663D01*
X180287631Y-119273358D01*
X180403500Y-119296822D01*
X181546500Y-119296822D01*
X181654746Y-119276454D01*
X181754163Y-119212481D01*
X181788587Y-119162100D01*
X181824746Y-119162100D01*
X181909164Y-119246665D01*
X182126707Y-119336997D01*
X182362259Y-119337203D01*
X182579960Y-119247251D01*
X182746665Y-119080836D01*
X182836997Y-118863293D01*
X182837203Y-118627741D01*
X182747251Y-118410040D01*
X182580836Y-118243335D01*
X182363293Y-118153003D01*
X182127741Y-118152797D01*
X181910040Y-118242749D01*
X181824741Y-118327900D01*
X181788656Y-118327900D01*
X181759981Y-118283337D01*
X181662369Y-118216642D01*
X181546500Y-118193178D01*
X180403500Y-118193178D01*
X180295254Y-118213546D01*
X180195837Y-118277519D01*
X180129142Y-118375131D01*
X180105678Y-118491000D01*
X175494322Y-118491000D01*
X175473954Y-118382754D01*
X175409981Y-118283337D01*
X175312369Y-118216642D01*
X175196500Y-118193178D01*
X174345547Y-118193178D01*
X174224269Y-118071900D01*
X174374175Y-118071900D01*
X174459900Y-117986175D01*
X174459900Y-117602000D01*
X174790100Y-117602000D01*
X174790100Y-117986175D01*
X174875825Y-118071900D01*
X175264707Y-118071900D01*
X175390737Y-118019697D01*
X175487197Y-117923237D01*
X175539400Y-117797207D01*
X175539400Y-117687725D01*
X175453675Y-117602000D01*
X174790100Y-117602000D01*
X174459900Y-117602000D01*
X174439900Y-117602000D01*
X174439900Y-117348000D01*
X174459900Y-117348000D01*
X174459900Y-116963825D01*
X174790100Y-116963825D01*
X174790100Y-117348000D01*
X175453675Y-117348000D01*
X175539400Y-117262275D01*
X175539400Y-117221000D01*
X180105678Y-117221000D01*
X180105678Y-117729000D01*
X180126046Y-117837246D01*
X180190019Y-117936663D01*
X180287631Y-118003358D01*
X180403500Y-118026822D01*
X181546500Y-118026822D01*
X181654746Y-118006454D01*
X181754163Y-117942481D01*
X181788587Y-117892100D01*
X181824746Y-117892100D01*
X181909164Y-117976665D01*
X182126707Y-118066997D01*
X182362259Y-118067203D01*
X182579960Y-117977251D01*
X182746665Y-117810836D01*
X182836997Y-117593293D01*
X182837203Y-117357741D01*
X182747251Y-117140040D01*
X182580836Y-116973335D01*
X182363293Y-116883003D01*
X182127741Y-116882797D01*
X181910040Y-116972749D01*
X181824741Y-117057900D01*
X181788656Y-117057900D01*
X181759981Y-117013337D01*
X181662369Y-116946642D01*
X181546500Y-116923178D01*
X180403500Y-116923178D01*
X180295254Y-116943546D01*
X180195837Y-117007519D01*
X180129142Y-117105131D01*
X180105678Y-117221000D01*
X175539400Y-117221000D01*
X175539400Y-117152793D01*
X175487197Y-117026763D01*
X175390737Y-116930303D01*
X175264707Y-116878100D01*
X174875825Y-116878100D01*
X174790100Y-116963825D01*
X174459900Y-116963825D01*
X174374175Y-116878100D01*
X173985293Y-116878100D01*
X173859263Y-116930303D01*
X173772100Y-117017466D01*
X173772100Y-116615854D01*
X173803500Y-116622100D01*
X173811344Y-116622100D01*
X173840019Y-116666663D01*
X173937631Y-116733358D01*
X174053500Y-116756822D01*
X175196500Y-116756822D01*
X175304746Y-116736454D01*
X175404163Y-116672481D01*
X175438587Y-116622100D01*
X175577500Y-116622100D01*
X175737117Y-116590350D01*
X175872434Y-116499934D01*
X176421368Y-115951000D01*
X180105678Y-115951000D01*
X180105678Y-116459000D01*
X180126046Y-116567246D01*
X180190019Y-116666663D01*
X180287631Y-116733358D01*
X180403500Y-116756822D01*
X181546500Y-116756822D01*
X181654746Y-116736454D01*
X181754163Y-116672481D01*
X181788587Y-116622100D01*
X181824746Y-116622100D01*
X181909164Y-116706665D01*
X182126707Y-116796997D01*
X182362259Y-116797203D01*
X182579960Y-116707251D01*
X182746665Y-116540836D01*
X182836997Y-116323293D01*
X182837203Y-116087741D01*
X182747251Y-115870040D01*
X182580836Y-115703335D01*
X182363293Y-115613003D01*
X182127741Y-115612797D01*
X181910040Y-115702749D01*
X181824741Y-115787900D01*
X181788656Y-115787900D01*
X181759981Y-115743337D01*
X181662369Y-115676642D01*
X181546500Y-115653178D01*
X180403500Y-115653178D01*
X180295254Y-115673546D01*
X180195837Y-115737519D01*
X180129142Y-115835131D01*
X180105678Y-115951000D01*
X176421368Y-115951000D01*
X177459934Y-114912434D01*
X177550350Y-114777117D01*
X177569468Y-114681000D01*
X180105678Y-114681000D01*
X180105678Y-115189000D01*
X180126046Y-115297246D01*
X180190019Y-115396663D01*
X180287631Y-115463358D01*
X180403500Y-115486822D01*
X181546500Y-115486822D01*
X181654746Y-115466454D01*
X181754163Y-115402481D01*
X181788587Y-115352100D01*
X181824746Y-115352100D01*
X181909164Y-115436665D01*
X182126707Y-115526997D01*
X182362259Y-115527203D01*
X182579960Y-115437251D01*
X182746665Y-115270836D01*
X182836997Y-115053293D01*
X182837203Y-114817741D01*
X182747251Y-114600040D01*
X182580836Y-114433335D01*
X182363293Y-114343003D01*
X182127741Y-114342797D01*
X181910040Y-114432749D01*
X181824741Y-114517900D01*
X181788656Y-114517900D01*
X181759981Y-114473337D01*
X181662369Y-114406642D01*
X181546500Y-114383178D01*
X180403500Y-114383178D01*
X180295254Y-114403546D01*
X180195837Y-114467519D01*
X180129142Y-114565131D01*
X180105678Y-114681000D01*
X177569468Y-114681000D01*
X177582100Y-114617500D01*
X177582100Y-113411000D01*
X180105678Y-113411000D01*
X180105678Y-113919000D01*
X180126046Y-114027246D01*
X180190019Y-114126663D01*
X180287631Y-114193358D01*
X180403500Y-114216822D01*
X181546500Y-114216822D01*
X181654746Y-114196454D01*
X181754163Y-114132481D01*
X181788587Y-114082100D01*
X181824746Y-114082100D01*
X181909164Y-114166665D01*
X182126707Y-114256997D01*
X182362259Y-114257203D01*
X182579960Y-114167251D01*
X182746665Y-114000836D01*
X182836997Y-113783293D01*
X182837203Y-113547741D01*
X182747251Y-113330040D01*
X182580836Y-113163335D01*
X182363293Y-113073003D01*
X182127741Y-113072797D01*
X181910040Y-113162749D01*
X181824741Y-113247900D01*
X181788656Y-113247900D01*
X181759981Y-113203337D01*
X181662369Y-113136642D01*
X181546500Y-113113178D01*
X180403500Y-113113178D01*
X180295254Y-113133546D01*
X180195837Y-113197519D01*
X180129142Y-113295131D01*
X180105678Y-113411000D01*
X177582100Y-113411000D01*
X177582100Y-112607725D01*
X180060600Y-112607725D01*
X180060600Y-112717207D01*
X180112803Y-112843237D01*
X180209263Y-112939697D01*
X180335293Y-112991900D01*
X180724175Y-112991900D01*
X180809900Y-112906175D01*
X180809900Y-112522000D01*
X181140100Y-112522000D01*
X181140100Y-112906175D01*
X181225825Y-112991900D01*
X181614707Y-112991900D01*
X181740737Y-112939697D01*
X181837197Y-112843237D01*
X181889400Y-112717207D01*
X181889400Y-112607725D01*
X181803675Y-112522000D01*
X181140100Y-112522000D01*
X180809900Y-112522000D01*
X180146325Y-112522000D01*
X180060600Y-112607725D01*
X177582100Y-112607725D01*
X177582100Y-112072793D01*
X180060600Y-112072793D01*
X180060600Y-112182275D01*
X180146325Y-112268000D01*
X180809900Y-112268000D01*
X180809900Y-111883825D01*
X181140100Y-111883825D01*
X181140100Y-112268000D01*
X181803675Y-112268000D01*
X181889400Y-112182275D01*
X181889400Y-112072793D01*
X181837197Y-111946763D01*
X181740737Y-111850303D01*
X181614707Y-111798100D01*
X181225825Y-111798100D01*
X181140100Y-111883825D01*
X180809900Y-111883825D01*
X180724175Y-111798100D01*
X180335293Y-111798100D01*
X180209263Y-111850303D01*
X180112803Y-111946763D01*
X180060600Y-112072793D01*
X177582100Y-112072793D01*
X177582100Y-111160000D01*
X191892178Y-111160000D01*
X191892178Y-112360000D01*
X191912546Y-112468246D01*
X191976519Y-112567663D01*
X192074131Y-112634358D01*
X192190000Y-112657822D01*
X193890000Y-112657822D01*
X193998246Y-112637454D01*
X194097663Y-112573481D01*
X194164358Y-112475869D01*
X194187822Y-112360000D01*
X194187822Y-111160000D01*
X194167454Y-111051754D01*
X194103481Y-110952337D01*
X194005869Y-110885642D01*
X193890000Y-110862178D01*
X192190000Y-110862178D01*
X192081754Y-110882546D01*
X191982337Y-110946519D01*
X191915642Y-111044131D01*
X191892178Y-111160000D01*
X177582100Y-111160000D01*
X177582100Y-110289759D01*
X184510297Y-110289759D01*
X184600249Y-110507460D01*
X184766664Y-110674165D01*
X184984207Y-110764497D01*
X185219759Y-110764703D01*
X185437460Y-110674751D01*
X185525264Y-110587100D01*
X185549508Y-110587100D01*
X185552546Y-110603246D01*
X185616519Y-110702663D01*
X185714131Y-110769358D01*
X185830000Y-110792822D01*
X187390000Y-110792822D01*
X187498246Y-110772454D01*
X187597663Y-110708481D01*
X187664358Y-110610869D01*
X187687822Y-110495000D01*
X187687822Y-109845000D01*
X188232178Y-109845000D01*
X188232178Y-110495000D01*
X188252546Y-110603246D01*
X188316519Y-110702663D01*
X188414131Y-110769358D01*
X188530000Y-110792822D01*
X190090000Y-110792822D01*
X190198246Y-110772454D01*
X190292039Y-110712100D01*
X192629995Y-110712100D01*
X192630000Y-110712101D01*
X192817766Y-110674751D01*
X192837453Y-110670835D01*
X192865492Y-110652100D01*
X193312375Y-110652100D01*
X193653767Y-110584193D01*
X193943185Y-110390810D01*
X194136568Y-110101392D01*
X194204475Y-109760000D01*
X194136568Y-109418608D01*
X193943185Y-109129190D01*
X193653767Y-108935807D01*
X193312375Y-108867900D01*
X192767625Y-108867900D01*
X192426233Y-108935807D01*
X192136815Y-109129190D01*
X191943432Y-109418608D01*
X191901801Y-109627900D01*
X190289669Y-109627900D01*
X190205869Y-109570642D01*
X190090000Y-109547178D01*
X188530000Y-109547178D01*
X188421754Y-109567546D01*
X188322337Y-109631519D01*
X188255642Y-109729131D01*
X188232178Y-109845000D01*
X187687822Y-109845000D01*
X187669944Y-109749990D01*
X187680697Y-109739237D01*
X187732900Y-109613207D01*
X187732900Y-109468225D01*
X187647175Y-109382500D01*
X186775100Y-109382500D01*
X186775100Y-109405100D01*
X186444900Y-109405100D01*
X186444900Y-109382500D01*
X185572825Y-109382500D01*
X185487100Y-109468225D01*
X185487100Y-109613207D01*
X185539303Y-109739237D01*
X185551189Y-109751123D01*
X185550829Y-109752900D01*
X185520258Y-109752900D01*
X185438336Y-109670835D01*
X185220793Y-109580503D01*
X184985241Y-109580297D01*
X184767540Y-109670249D01*
X184600835Y-109836664D01*
X184510503Y-110054207D01*
X184510297Y-110289759D01*
X177582100Y-110289759D01*
X177582100Y-108384759D01*
X184510297Y-108384759D01*
X184600249Y-108602460D01*
X184766664Y-108769165D01*
X184984207Y-108859497D01*
X185219759Y-108859703D01*
X185437460Y-108769751D01*
X185520255Y-108687100D01*
X185549508Y-108687100D01*
X185550056Y-108690010D01*
X185539303Y-108700763D01*
X185487100Y-108826793D01*
X185487100Y-108971775D01*
X185572825Y-109057500D01*
X186444900Y-109057500D01*
X186444900Y-109034900D01*
X186775100Y-109034900D01*
X186775100Y-109057500D01*
X187647175Y-109057500D01*
X187732900Y-108971775D01*
X187732900Y-108826793D01*
X187680697Y-108700763D01*
X187668811Y-108688877D01*
X187687822Y-108595000D01*
X187687822Y-107945000D01*
X188232178Y-107945000D01*
X188232178Y-108595000D01*
X188252546Y-108703246D01*
X188316519Y-108802663D01*
X188414131Y-108869358D01*
X188530000Y-108892822D01*
X190090000Y-108892822D01*
X190198246Y-108872454D01*
X190292039Y-108812100D01*
X192529995Y-108812100D01*
X192530000Y-108812101D01*
X192703033Y-108777681D01*
X192737453Y-108770835D01*
X192913323Y-108653323D01*
X192914546Y-108652100D01*
X193312375Y-108652100D01*
X193653767Y-108584193D01*
X193943185Y-108390810D01*
X194136568Y-108101392D01*
X194204475Y-107760000D01*
X194136568Y-107418608D01*
X193943185Y-107129190D01*
X193653767Y-106935807D01*
X193312375Y-106867900D01*
X192767625Y-106867900D01*
X192426233Y-106935807D01*
X192136815Y-107129190D01*
X191943432Y-107418608D01*
X191881910Y-107727900D01*
X190289669Y-107727900D01*
X190205869Y-107670642D01*
X190090000Y-107647178D01*
X188530000Y-107647178D01*
X188421754Y-107667546D01*
X188322337Y-107731519D01*
X188255642Y-107829131D01*
X188232178Y-107945000D01*
X187687822Y-107945000D01*
X187667454Y-107836754D01*
X187603481Y-107737337D01*
X187505869Y-107670642D01*
X187390000Y-107647178D01*
X185830000Y-107647178D01*
X185721754Y-107667546D01*
X185622337Y-107731519D01*
X185555642Y-107829131D01*
X185550829Y-107852900D01*
X185525250Y-107852900D01*
X185438336Y-107765835D01*
X185220793Y-107675503D01*
X184985241Y-107675297D01*
X184767540Y-107765249D01*
X184600835Y-107931664D01*
X184510503Y-108149207D01*
X184510297Y-108384759D01*
X177582100Y-108384759D01*
X177582100Y-105209759D01*
X184510297Y-105209759D01*
X184600249Y-105427460D01*
X184766664Y-105594165D01*
X184984207Y-105684497D01*
X185219759Y-105684703D01*
X185437460Y-105594751D01*
X185525264Y-105507100D01*
X185549508Y-105507100D01*
X185552546Y-105523246D01*
X185616519Y-105622663D01*
X185714131Y-105689358D01*
X185830000Y-105712822D01*
X187390000Y-105712822D01*
X187498246Y-105692454D01*
X187597663Y-105628481D01*
X187664358Y-105530869D01*
X187687822Y-105415000D01*
X187687822Y-104765000D01*
X187669944Y-104669990D01*
X187680697Y-104659237D01*
X187732900Y-104533207D01*
X187732900Y-104388225D01*
X187647175Y-104302500D01*
X186775100Y-104302500D01*
X186775100Y-104325100D01*
X186444900Y-104325100D01*
X186444900Y-104302500D01*
X185572825Y-104302500D01*
X185487100Y-104388225D01*
X185487100Y-104533207D01*
X185539303Y-104659237D01*
X185551189Y-104671123D01*
X185550829Y-104672900D01*
X185520258Y-104672900D01*
X185438336Y-104590835D01*
X185220793Y-104500503D01*
X184985241Y-104500297D01*
X184767540Y-104590249D01*
X184600835Y-104756664D01*
X184510503Y-104974207D01*
X184510297Y-105209759D01*
X177582100Y-105209759D01*
X177582100Y-103304759D01*
X184510297Y-103304759D01*
X184600249Y-103522460D01*
X184766664Y-103689165D01*
X184984207Y-103779497D01*
X185219759Y-103779703D01*
X185437460Y-103689751D01*
X185520255Y-103607100D01*
X185549508Y-103607100D01*
X185550056Y-103610010D01*
X185539303Y-103620763D01*
X185487100Y-103746793D01*
X185487100Y-103891775D01*
X185572825Y-103977500D01*
X186444900Y-103977500D01*
X186444900Y-103954900D01*
X186775100Y-103954900D01*
X186775100Y-103977500D01*
X187647175Y-103977500D01*
X187732900Y-103891775D01*
X187732900Y-103746793D01*
X187680697Y-103620763D01*
X187668811Y-103608877D01*
X187687822Y-103515000D01*
X187687822Y-102865000D01*
X188232178Y-102865000D01*
X188232178Y-103515000D01*
X188252546Y-103623246D01*
X188316519Y-103722663D01*
X188414131Y-103789358D01*
X188530000Y-103812822D01*
X190090000Y-103812822D01*
X190198246Y-103792454D01*
X190292039Y-103732100D01*
X191881075Y-103732100D01*
X191875525Y-103760000D01*
X191943432Y-104101392D01*
X192136815Y-104390810D01*
X192372727Y-104548441D01*
X192370000Y-104547899D01*
X192369995Y-104547900D01*
X190289669Y-104547900D01*
X190205869Y-104490642D01*
X190090000Y-104467178D01*
X188530000Y-104467178D01*
X188421754Y-104487546D01*
X188322337Y-104551519D01*
X188255642Y-104649131D01*
X188232178Y-104765000D01*
X188232178Y-105415000D01*
X188252546Y-105523246D01*
X188316519Y-105622663D01*
X188414131Y-105689358D01*
X188530000Y-105712822D01*
X190090000Y-105712822D01*
X190198246Y-105692454D01*
X190292039Y-105632100D01*
X191900966Y-105632100D01*
X191875525Y-105760000D01*
X191943432Y-106101392D01*
X192136815Y-106390810D01*
X192426233Y-106584193D01*
X192767625Y-106652100D01*
X193312375Y-106652100D01*
X193653767Y-106584193D01*
X193943185Y-106390810D01*
X194136568Y-106101392D01*
X194204475Y-105760000D01*
X194136568Y-105418608D01*
X193943185Y-105129190D01*
X193653767Y-104935807D01*
X193312375Y-104867900D01*
X192914546Y-104867900D01*
X192753323Y-104706677D01*
X192702772Y-104672900D01*
X192630957Y-104624915D01*
X192767625Y-104652100D01*
X193312375Y-104652100D01*
X193653767Y-104584193D01*
X193943185Y-104390810D01*
X194136568Y-104101392D01*
X194204475Y-103760000D01*
X194136568Y-103418608D01*
X193943185Y-103129190D01*
X193653767Y-102935807D01*
X193312375Y-102867900D01*
X192914546Y-102867900D01*
X192853323Y-102806677D01*
X192799030Y-102770400D01*
X192677453Y-102689165D01*
X192643033Y-102682319D01*
X192470000Y-102647899D01*
X192469995Y-102647900D01*
X190289669Y-102647900D01*
X190205869Y-102590642D01*
X190090000Y-102567178D01*
X188530000Y-102567178D01*
X188421754Y-102587546D01*
X188322337Y-102651519D01*
X188255642Y-102749131D01*
X188232178Y-102865000D01*
X187687822Y-102865000D01*
X187667454Y-102756754D01*
X187603481Y-102657337D01*
X187505869Y-102590642D01*
X187390000Y-102567178D01*
X185830000Y-102567178D01*
X185721754Y-102587546D01*
X185622337Y-102651519D01*
X185555642Y-102749131D01*
X185550829Y-102772900D01*
X185525250Y-102772900D01*
X185438336Y-102685835D01*
X185220793Y-102595503D01*
X184985241Y-102595297D01*
X184767540Y-102685249D01*
X184600835Y-102851664D01*
X184510503Y-103069207D01*
X184510297Y-103304759D01*
X177582100Y-103304759D01*
X177582100Y-94840000D01*
X191892178Y-94840000D01*
X191892178Y-96040000D01*
X191912546Y-96148246D01*
X191976519Y-96247663D01*
X192074131Y-96314358D01*
X192190000Y-96337822D01*
X193890000Y-96337822D01*
X193998246Y-96317454D01*
X194097663Y-96253481D01*
X194164358Y-96155869D01*
X194187822Y-96040000D01*
X194187822Y-94840000D01*
X194167454Y-94731754D01*
X194103481Y-94632337D01*
X194005869Y-94565642D01*
X193890000Y-94542178D01*
X192190000Y-94542178D01*
X192081754Y-94562546D01*
X191982337Y-94626519D01*
X191915642Y-94724131D01*
X191892178Y-94840000D01*
X177582100Y-94840000D01*
X177582100Y-93779759D01*
X184510297Y-93779759D01*
X184600249Y-93997460D01*
X184766664Y-94164165D01*
X184984207Y-94254497D01*
X185219759Y-94254703D01*
X185437460Y-94164751D01*
X185525264Y-94077100D01*
X185549508Y-94077100D01*
X185552546Y-94093246D01*
X185616519Y-94192663D01*
X185714131Y-94259358D01*
X185830000Y-94282822D01*
X187390000Y-94282822D01*
X187498246Y-94262454D01*
X187597663Y-94198481D01*
X187664358Y-94100869D01*
X187687822Y-93985000D01*
X187687822Y-93335000D01*
X188232178Y-93335000D01*
X188232178Y-93985000D01*
X188252546Y-94093246D01*
X188316519Y-94192663D01*
X188414131Y-94259358D01*
X188530000Y-94282822D01*
X190090000Y-94282822D01*
X190198246Y-94262454D01*
X190292039Y-94202100D01*
X192333304Y-94202100D01*
X192426233Y-94264193D01*
X192767625Y-94332100D01*
X193312375Y-94332100D01*
X193653767Y-94264193D01*
X193943185Y-94070810D01*
X194136568Y-93781392D01*
X194204475Y-93440000D01*
X194136568Y-93098608D01*
X193943185Y-92809190D01*
X193653767Y-92615807D01*
X193312375Y-92547900D01*
X192767625Y-92547900D01*
X192426233Y-92615807D01*
X192136815Y-92809190D01*
X191943432Y-93098608D01*
X191939595Y-93117900D01*
X190289669Y-93117900D01*
X190205869Y-93060642D01*
X190090000Y-93037178D01*
X188530000Y-93037178D01*
X188421754Y-93057546D01*
X188322337Y-93121519D01*
X188255642Y-93219131D01*
X188232178Y-93335000D01*
X187687822Y-93335000D01*
X187669944Y-93239990D01*
X187680697Y-93229237D01*
X187732900Y-93103207D01*
X187732900Y-92958225D01*
X187647175Y-92872500D01*
X186775100Y-92872500D01*
X186775100Y-92895100D01*
X186444900Y-92895100D01*
X186444900Y-92872500D01*
X185572825Y-92872500D01*
X185487100Y-92958225D01*
X185487100Y-93103207D01*
X185539303Y-93229237D01*
X185551189Y-93241123D01*
X185550829Y-93242900D01*
X185520258Y-93242900D01*
X185438336Y-93160835D01*
X185220793Y-93070503D01*
X184985241Y-93070297D01*
X184767540Y-93160249D01*
X184600835Y-93326664D01*
X184510503Y-93544207D01*
X184510297Y-93779759D01*
X177582100Y-93779759D01*
X177582100Y-91750310D01*
X184634746Y-91750310D01*
X184724698Y-91968011D01*
X184891113Y-92134716D01*
X185108656Y-92225048D01*
X185344208Y-92225254D01*
X185460750Y-92177100D01*
X185549508Y-92177100D01*
X185550056Y-92180010D01*
X185539303Y-92190763D01*
X185487100Y-92316793D01*
X185487100Y-92461775D01*
X185572825Y-92547500D01*
X186444900Y-92547500D01*
X186444900Y-92524900D01*
X186775100Y-92524900D01*
X186775100Y-92547500D01*
X187647175Y-92547500D01*
X187732900Y-92461775D01*
X187732900Y-92316793D01*
X187680697Y-92190763D01*
X187668811Y-92178877D01*
X187687822Y-92085000D01*
X187687822Y-91435000D01*
X188232178Y-91435000D01*
X188232178Y-92085000D01*
X188252546Y-92193246D01*
X188316519Y-92292663D01*
X188414131Y-92359358D01*
X188530000Y-92382822D01*
X190090000Y-92382822D01*
X190198246Y-92362454D01*
X190292039Y-92302100D01*
X192616805Y-92302100D01*
X192767625Y-92332100D01*
X193312375Y-92332100D01*
X193653767Y-92264193D01*
X193943185Y-92070810D01*
X194136568Y-91781392D01*
X194204475Y-91440000D01*
X194136568Y-91098608D01*
X193943185Y-90809190D01*
X193653767Y-90615807D01*
X193312375Y-90547900D01*
X192767625Y-90547900D01*
X192426233Y-90615807D01*
X192136815Y-90809190D01*
X191943432Y-91098608D01*
X191919703Y-91217900D01*
X190289669Y-91217900D01*
X190205869Y-91160642D01*
X190090000Y-91137178D01*
X188530000Y-91137178D01*
X188421754Y-91157546D01*
X188322337Y-91221519D01*
X188255642Y-91319131D01*
X188232178Y-91435000D01*
X187687822Y-91435000D01*
X187667454Y-91326754D01*
X187603481Y-91227337D01*
X187505869Y-91160642D01*
X187390000Y-91137178D01*
X185830000Y-91137178D01*
X185721754Y-91157546D01*
X185640862Y-91209599D01*
X185562785Y-91131386D01*
X185345242Y-91041054D01*
X185109690Y-91040848D01*
X184891989Y-91130800D01*
X184725284Y-91297215D01*
X184634952Y-91514758D01*
X184634746Y-91750310D01*
X177582100Y-91750310D01*
X177582100Y-88011000D01*
X180105678Y-88011000D01*
X180105678Y-88519000D01*
X180126046Y-88627246D01*
X180190019Y-88726663D01*
X180287631Y-88793358D01*
X180403500Y-88816822D01*
X181546500Y-88816822D01*
X181654746Y-88796454D01*
X181754163Y-88732481D01*
X181788587Y-88682100D01*
X181824746Y-88682100D01*
X181909164Y-88766665D01*
X182126707Y-88856997D01*
X182362259Y-88857203D01*
X182579960Y-88767251D01*
X182647569Y-88699759D01*
X184510297Y-88699759D01*
X184600249Y-88917460D01*
X184766664Y-89084165D01*
X184984207Y-89174497D01*
X185219759Y-89174703D01*
X185437460Y-89084751D01*
X185525264Y-88997100D01*
X185549508Y-88997100D01*
X185552546Y-89013246D01*
X185616519Y-89112663D01*
X185714131Y-89179358D01*
X185830000Y-89202822D01*
X187390000Y-89202822D01*
X187498246Y-89182454D01*
X187597663Y-89118481D01*
X187664358Y-89020869D01*
X187687822Y-88905000D01*
X187687822Y-88255000D01*
X187669944Y-88159990D01*
X187680697Y-88149237D01*
X187732900Y-88023207D01*
X187732900Y-87878225D01*
X187647175Y-87792500D01*
X186775100Y-87792500D01*
X186775100Y-87815100D01*
X186444900Y-87815100D01*
X186444900Y-87792500D01*
X185572825Y-87792500D01*
X185487100Y-87878225D01*
X185487100Y-88023207D01*
X185539303Y-88149237D01*
X185551189Y-88161123D01*
X185550829Y-88162900D01*
X185520258Y-88162900D01*
X185438336Y-88080835D01*
X185220793Y-87990503D01*
X184985241Y-87990297D01*
X184767540Y-88080249D01*
X184600835Y-88246664D01*
X184510503Y-88464207D01*
X184510297Y-88699759D01*
X182647569Y-88699759D01*
X182746665Y-88600836D01*
X182836997Y-88383293D01*
X182837203Y-88147741D01*
X182747251Y-87930040D01*
X182580836Y-87763335D01*
X182363293Y-87673003D01*
X182127741Y-87672797D01*
X181910040Y-87762749D01*
X181824741Y-87847900D01*
X181788656Y-87847900D01*
X181759981Y-87803337D01*
X181662369Y-87736642D01*
X181546500Y-87713178D01*
X180403500Y-87713178D01*
X180295254Y-87733546D01*
X180195837Y-87797519D01*
X180129142Y-87895131D01*
X180105678Y-88011000D01*
X177582100Y-88011000D01*
X177582100Y-86741000D01*
X180105678Y-86741000D01*
X180105678Y-87249000D01*
X180126046Y-87357246D01*
X180190019Y-87456663D01*
X180287631Y-87523358D01*
X180403500Y-87546822D01*
X181546500Y-87546822D01*
X181654746Y-87526454D01*
X181754163Y-87462481D01*
X181788587Y-87412100D01*
X181824746Y-87412100D01*
X181909164Y-87496665D01*
X182126707Y-87586997D01*
X182362259Y-87587203D01*
X182579960Y-87497251D01*
X182746665Y-87330836D01*
X182836997Y-87113293D01*
X182837203Y-86877741D01*
X182802916Y-86794759D01*
X184510297Y-86794759D01*
X184600249Y-87012460D01*
X184766664Y-87179165D01*
X184984207Y-87269497D01*
X185219759Y-87269703D01*
X185437460Y-87179751D01*
X185520255Y-87097100D01*
X185549508Y-87097100D01*
X185550056Y-87100010D01*
X185539303Y-87110763D01*
X185487100Y-87236793D01*
X185487100Y-87381775D01*
X185572825Y-87467500D01*
X186444900Y-87467500D01*
X186444900Y-87444900D01*
X186775100Y-87444900D01*
X186775100Y-87467500D01*
X187647175Y-87467500D01*
X187732900Y-87381775D01*
X187732900Y-87236793D01*
X187680697Y-87110763D01*
X187668811Y-87098877D01*
X187687822Y-87005000D01*
X187687822Y-86355000D01*
X188232178Y-86355000D01*
X188232178Y-87005000D01*
X188252546Y-87113246D01*
X188316519Y-87212663D01*
X188414131Y-87279358D01*
X188530000Y-87302822D01*
X190090000Y-87302822D01*
X190198246Y-87282454D01*
X190292039Y-87222100D01*
X191918868Y-87222100D01*
X191875525Y-87440000D01*
X191943432Y-87781392D01*
X192114825Y-88037900D01*
X190289669Y-88037900D01*
X190205869Y-87980642D01*
X190090000Y-87957178D01*
X188530000Y-87957178D01*
X188421754Y-87977546D01*
X188322337Y-88041519D01*
X188255642Y-88139131D01*
X188232178Y-88255000D01*
X188232178Y-88905000D01*
X188252546Y-89013246D01*
X188316519Y-89112663D01*
X188414131Y-89179358D01*
X188530000Y-89202822D01*
X190090000Y-89202822D01*
X190198246Y-89182454D01*
X190292039Y-89122100D01*
X191938759Y-89122100D01*
X191875525Y-89440000D01*
X191943432Y-89781392D01*
X192136815Y-90070810D01*
X192426233Y-90264193D01*
X192767625Y-90332100D01*
X193312375Y-90332100D01*
X193653767Y-90264193D01*
X193943185Y-90070810D01*
X194136568Y-89781392D01*
X194204475Y-89440000D01*
X194136568Y-89098608D01*
X193943185Y-88809190D01*
X193653767Y-88615807D01*
X193312375Y-88547900D01*
X192914546Y-88547900D01*
X192681643Y-88314997D01*
X192767625Y-88332100D01*
X193312375Y-88332100D01*
X193653767Y-88264193D01*
X193943185Y-88070810D01*
X194136568Y-87781392D01*
X194204475Y-87440000D01*
X194136568Y-87098608D01*
X193943185Y-86809190D01*
X193653767Y-86615807D01*
X193312375Y-86547900D01*
X192914546Y-86547900D01*
X192663323Y-86296677D01*
X192609030Y-86260400D01*
X192487453Y-86179165D01*
X192453033Y-86172319D01*
X192280000Y-86137899D01*
X192279995Y-86137900D01*
X190289669Y-86137900D01*
X190205869Y-86080642D01*
X190090000Y-86057178D01*
X188530000Y-86057178D01*
X188421754Y-86077546D01*
X188322337Y-86141519D01*
X188255642Y-86239131D01*
X188232178Y-86355000D01*
X187687822Y-86355000D01*
X187667454Y-86246754D01*
X187603481Y-86147337D01*
X187505869Y-86080642D01*
X187390000Y-86057178D01*
X185830000Y-86057178D01*
X185721754Y-86077546D01*
X185622337Y-86141519D01*
X185555642Y-86239131D01*
X185550829Y-86262900D01*
X185525250Y-86262900D01*
X185438336Y-86175835D01*
X185220793Y-86085503D01*
X184985241Y-86085297D01*
X184767540Y-86175249D01*
X184600835Y-86341664D01*
X184510503Y-86559207D01*
X184510297Y-86794759D01*
X182802916Y-86794759D01*
X182747251Y-86660040D01*
X182580836Y-86493335D01*
X182363293Y-86403003D01*
X182127741Y-86402797D01*
X181910040Y-86492749D01*
X181824741Y-86577900D01*
X181788656Y-86577900D01*
X181759981Y-86533337D01*
X181662369Y-86466642D01*
X181546500Y-86443178D01*
X180403500Y-86443178D01*
X180295254Y-86463546D01*
X180195837Y-86527519D01*
X180129142Y-86625131D01*
X180105678Y-86741000D01*
X177582100Y-86741000D01*
X177582100Y-85471000D01*
X180105678Y-85471000D01*
X180105678Y-85979000D01*
X180126046Y-86087246D01*
X180190019Y-86186663D01*
X180287631Y-86253358D01*
X180403500Y-86276822D01*
X181546500Y-86276822D01*
X181654746Y-86256454D01*
X181754163Y-86192481D01*
X181788587Y-86142100D01*
X181824746Y-86142100D01*
X181909164Y-86226665D01*
X182126707Y-86316997D01*
X182362259Y-86317203D01*
X182579960Y-86227251D01*
X182746665Y-86060836D01*
X182836997Y-85843293D01*
X182837203Y-85607741D01*
X182747251Y-85390040D01*
X182580836Y-85223335D01*
X182363293Y-85133003D01*
X182127741Y-85132797D01*
X181910040Y-85222749D01*
X181824741Y-85307900D01*
X181788656Y-85307900D01*
X181759981Y-85263337D01*
X181662369Y-85196642D01*
X181546500Y-85173178D01*
X180403500Y-85173178D01*
X180295254Y-85193546D01*
X180195837Y-85257519D01*
X180129142Y-85355131D01*
X180105678Y-85471000D01*
X177582100Y-85471000D01*
X177582100Y-84201000D01*
X180105678Y-84201000D01*
X180105678Y-84709000D01*
X180126046Y-84817246D01*
X180190019Y-84916663D01*
X180287631Y-84983358D01*
X180403500Y-85006822D01*
X181546500Y-85006822D01*
X181654746Y-84986454D01*
X181754163Y-84922481D01*
X181788587Y-84872100D01*
X181824746Y-84872100D01*
X181909164Y-84956665D01*
X182126707Y-85046997D01*
X182362259Y-85047203D01*
X182579960Y-84957251D01*
X182746665Y-84790836D01*
X182836997Y-84573293D01*
X182837203Y-84337741D01*
X182747251Y-84120040D01*
X182580836Y-83953335D01*
X182363293Y-83863003D01*
X182127741Y-83862797D01*
X181910040Y-83952749D01*
X181824741Y-84037900D01*
X181788656Y-84037900D01*
X181759981Y-83993337D01*
X181662369Y-83926642D01*
X181546500Y-83903178D01*
X180403500Y-83903178D01*
X180295254Y-83923546D01*
X180195837Y-83987519D01*
X180129142Y-84085131D01*
X180105678Y-84201000D01*
X177582100Y-84201000D01*
X177582100Y-82931000D01*
X180105678Y-82931000D01*
X180105678Y-83439000D01*
X180126046Y-83547246D01*
X180190019Y-83646663D01*
X180287631Y-83713358D01*
X180403500Y-83736822D01*
X181546500Y-83736822D01*
X181654746Y-83716454D01*
X181754163Y-83652481D01*
X181788587Y-83602100D01*
X181824746Y-83602100D01*
X181909164Y-83686665D01*
X182126707Y-83776997D01*
X182362259Y-83777203D01*
X182579960Y-83687251D01*
X182746665Y-83520836D01*
X182836997Y-83303293D01*
X182837203Y-83067741D01*
X182747251Y-82850040D01*
X182580836Y-82683335D01*
X182363293Y-82593003D01*
X182127741Y-82592797D01*
X181910040Y-82682749D01*
X181824741Y-82767900D01*
X181788656Y-82767900D01*
X181759981Y-82723337D01*
X181662369Y-82656642D01*
X181546500Y-82633178D01*
X180403500Y-82633178D01*
X180295254Y-82653546D01*
X180195837Y-82717519D01*
X180129142Y-82815131D01*
X180105678Y-82931000D01*
X177582100Y-82931000D01*
X177582100Y-81661000D01*
X180105678Y-81661000D01*
X180105678Y-82169000D01*
X180126046Y-82277246D01*
X180190019Y-82376663D01*
X180287631Y-82443358D01*
X180403500Y-82466822D01*
X181546500Y-82466822D01*
X181654746Y-82446454D01*
X181754163Y-82382481D01*
X181788587Y-82332100D01*
X181824746Y-82332100D01*
X181909164Y-82416665D01*
X182126707Y-82506997D01*
X182362259Y-82507203D01*
X182579960Y-82417251D01*
X182746665Y-82250836D01*
X182836997Y-82033293D01*
X182837203Y-81797741D01*
X182747251Y-81580040D01*
X182580836Y-81413335D01*
X182363293Y-81323003D01*
X182127741Y-81322797D01*
X181910040Y-81412749D01*
X181824741Y-81497900D01*
X181788656Y-81497900D01*
X181759981Y-81453337D01*
X181662369Y-81386642D01*
X181546500Y-81363178D01*
X180403500Y-81363178D01*
X180295254Y-81383546D01*
X180195837Y-81447519D01*
X180129142Y-81545131D01*
X180105678Y-81661000D01*
X177582100Y-81661000D01*
X177582100Y-80391000D01*
X180105678Y-80391000D01*
X180105678Y-80899000D01*
X180126046Y-81007246D01*
X180190019Y-81106663D01*
X180287631Y-81173358D01*
X180403500Y-81196822D01*
X181546500Y-81196822D01*
X181654746Y-81176454D01*
X181754163Y-81112481D01*
X181788587Y-81062100D01*
X181824746Y-81062100D01*
X181909164Y-81146665D01*
X182126707Y-81236997D01*
X182362259Y-81237203D01*
X182579960Y-81147251D01*
X182746665Y-80980836D01*
X182836997Y-80763293D01*
X182837203Y-80527741D01*
X182747251Y-80310040D01*
X182580836Y-80143335D01*
X182363293Y-80053003D01*
X182127741Y-80052797D01*
X181910040Y-80142749D01*
X181824741Y-80227900D01*
X181788656Y-80227900D01*
X181759981Y-80183337D01*
X181662369Y-80116642D01*
X181546500Y-80093178D01*
X180403500Y-80093178D01*
X180295254Y-80113546D01*
X180195837Y-80177519D01*
X180129142Y-80275131D01*
X180105678Y-80391000D01*
X177582100Y-80391000D01*
X177582100Y-79587725D01*
X180060600Y-79587725D01*
X180060600Y-79697207D01*
X180112803Y-79823237D01*
X180209263Y-79919697D01*
X180335293Y-79971900D01*
X180724175Y-79971900D01*
X180809900Y-79886175D01*
X180809900Y-79502000D01*
X181140100Y-79502000D01*
X181140100Y-79886175D01*
X181225825Y-79971900D01*
X181614707Y-79971900D01*
X181740737Y-79919697D01*
X181837197Y-79823237D01*
X181889400Y-79697207D01*
X181889400Y-79587725D01*
X181803675Y-79502000D01*
X181140100Y-79502000D01*
X180809900Y-79502000D01*
X180146325Y-79502000D01*
X180060600Y-79587725D01*
X177582100Y-79587725D01*
X177582100Y-79052793D01*
X180060600Y-79052793D01*
X180060600Y-79162275D01*
X180146325Y-79248000D01*
X180809900Y-79248000D01*
X180809900Y-78863825D01*
X181140100Y-78863825D01*
X181140100Y-79248000D01*
X181803675Y-79248000D01*
X181889400Y-79162275D01*
X181889400Y-79052793D01*
X181837197Y-78926763D01*
X181740737Y-78830303D01*
X181614707Y-78778100D01*
X181225825Y-78778100D01*
X181140100Y-78863825D01*
X180809900Y-78863825D01*
X180724175Y-78778100D01*
X180335293Y-78778100D01*
X180209263Y-78830303D01*
X180112803Y-78926763D01*
X180060600Y-79052793D01*
X177582100Y-79052793D01*
X177582100Y-78330000D01*
X191892178Y-78330000D01*
X191892178Y-79530000D01*
X191912546Y-79638246D01*
X191976519Y-79737663D01*
X192074131Y-79804358D01*
X192190000Y-79827822D01*
X193890000Y-79827822D01*
X193998246Y-79807454D01*
X194097663Y-79743481D01*
X194164358Y-79645869D01*
X194187822Y-79530000D01*
X194187822Y-78330000D01*
X194167454Y-78221754D01*
X194103481Y-78122337D01*
X194005869Y-78055642D01*
X193890000Y-78032178D01*
X192190000Y-78032178D01*
X192081754Y-78052546D01*
X191982337Y-78116519D01*
X191915642Y-78214131D01*
X191892178Y-78330000D01*
X177582100Y-78330000D01*
X177582100Y-77269759D01*
X184510297Y-77269759D01*
X184600249Y-77487460D01*
X184766664Y-77654165D01*
X184984207Y-77744497D01*
X185219759Y-77744703D01*
X185437460Y-77654751D01*
X185525264Y-77567100D01*
X185549508Y-77567100D01*
X185552546Y-77583246D01*
X185616519Y-77682663D01*
X185714131Y-77749358D01*
X185830000Y-77772822D01*
X187390000Y-77772822D01*
X187498246Y-77752454D01*
X187597663Y-77688481D01*
X187664358Y-77590869D01*
X187687822Y-77475000D01*
X187687822Y-76825000D01*
X188232178Y-76825000D01*
X188232178Y-77475000D01*
X188252546Y-77583246D01*
X188316519Y-77682663D01*
X188414131Y-77749358D01*
X188530000Y-77772822D01*
X190090000Y-77772822D01*
X190198246Y-77752454D01*
X190292039Y-77692100D01*
X192333304Y-77692100D01*
X192426233Y-77754193D01*
X192767625Y-77822100D01*
X193312375Y-77822100D01*
X193653767Y-77754193D01*
X193943185Y-77560810D01*
X194136568Y-77271392D01*
X194204475Y-76930000D01*
X194136568Y-76588608D01*
X193943185Y-76299190D01*
X193653767Y-76105807D01*
X193312375Y-76037900D01*
X192767625Y-76037900D01*
X192426233Y-76105807D01*
X192136815Y-76299190D01*
X191943432Y-76588608D01*
X191939595Y-76607900D01*
X190289669Y-76607900D01*
X190205869Y-76550642D01*
X190090000Y-76527178D01*
X188530000Y-76527178D01*
X188421754Y-76547546D01*
X188322337Y-76611519D01*
X188255642Y-76709131D01*
X188232178Y-76825000D01*
X187687822Y-76825000D01*
X187669944Y-76729990D01*
X187680697Y-76719237D01*
X187732900Y-76593207D01*
X187732900Y-76448225D01*
X187647175Y-76362500D01*
X186775100Y-76362500D01*
X186775100Y-76385100D01*
X186444900Y-76385100D01*
X186444900Y-76362500D01*
X185572825Y-76362500D01*
X185487100Y-76448225D01*
X185487100Y-76593207D01*
X185539303Y-76719237D01*
X185551189Y-76731123D01*
X185550829Y-76732900D01*
X185520258Y-76732900D01*
X185438336Y-76650835D01*
X185220793Y-76560503D01*
X184985241Y-76560297D01*
X184767540Y-76650249D01*
X184600835Y-76816664D01*
X184510503Y-77034207D01*
X184510297Y-77269759D01*
X177582100Y-77269759D01*
X177582100Y-75364759D01*
X184510297Y-75364759D01*
X184600249Y-75582460D01*
X184766664Y-75749165D01*
X184984207Y-75839497D01*
X185219759Y-75839703D01*
X185437460Y-75749751D01*
X185520255Y-75667100D01*
X185549508Y-75667100D01*
X185550056Y-75670010D01*
X185539303Y-75680763D01*
X185487100Y-75806793D01*
X185487100Y-75951775D01*
X185572825Y-76037500D01*
X186444900Y-76037500D01*
X186444900Y-76014900D01*
X186775100Y-76014900D01*
X186775100Y-76037500D01*
X187647175Y-76037500D01*
X187732900Y-75951775D01*
X187732900Y-75806793D01*
X187680697Y-75680763D01*
X187668811Y-75668877D01*
X187687822Y-75575000D01*
X187687822Y-74925000D01*
X188232178Y-74925000D01*
X188232178Y-75575000D01*
X188252546Y-75683246D01*
X188316519Y-75782663D01*
X188414131Y-75849358D01*
X188530000Y-75872822D01*
X190090000Y-75872822D01*
X190198246Y-75852454D01*
X190292039Y-75792100D01*
X192616805Y-75792100D01*
X192767625Y-75822100D01*
X193312375Y-75822100D01*
X193653767Y-75754193D01*
X193943185Y-75560810D01*
X194136568Y-75271392D01*
X194204475Y-74930000D01*
X194136568Y-74588608D01*
X193943185Y-74299190D01*
X193653767Y-74105807D01*
X193312375Y-74037900D01*
X192767625Y-74037900D01*
X192426233Y-74105807D01*
X192136815Y-74299190D01*
X191943432Y-74588608D01*
X191919703Y-74707900D01*
X190289669Y-74707900D01*
X190205869Y-74650642D01*
X190090000Y-74627178D01*
X188530000Y-74627178D01*
X188421754Y-74647546D01*
X188322337Y-74711519D01*
X188255642Y-74809131D01*
X188232178Y-74925000D01*
X187687822Y-74925000D01*
X187667454Y-74816754D01*
X187603481Y-74717337D01*
X187505869Y-74650642D01*
X187390000Y-74627178D01*
X185830000Y-74627178D01*
X185721754Y-74647546D01*
X185622337Y-74711519D01*
X185555642Y-74809131D01*
X185550829Y-74832900D01*
X185525250Y-74832900D01*
X185438336Y-74745835D01*
X185220793Y-74655503D01*
X184985241Y-74655297D01*
X184767540Y-74745249D01*
X184600835Y-74911664D01*
X184510503Y-75129207D01*
X184510297Y-75364759D01*
X177582100Y-75364759D01*
X177582100Y-72189759D01*
X184510297Y-72189759D01*
X184600249Y-72407460D01*
X184766664Y-72574165D01*
X184984207Y-72664497D01*
X185219759Y-72664703D01*
X185437460Y-72574751D01*
X185525264Y-72487100D01*
X185549508Y-72487100D01*
X185552546Y-72503246D01*
X185616519Y-72602663D01*
X185714131Y-72669358D01*
X185830000Y-72692822D01*
X187390000Y-72692822D01*
X187498246Y-72672454D01*
X187597663Y-72608481D01*
X187664358Y-72510869D01*
X187687822Y-72395000D01*
X187687822Y-71745000D01*
X187669944Y-71649990D01*
X187680697Y-71639237D01*
X187732900Y-71513207D01*
X187732900Y-71368225D01*
X187647175Y-71282500D01*
X186775100Y-71282500D01*
X186775100Y-71305100D01*
X186444900Y-71305100D01*
X186444900Y-71282500D01*
X185572825Y-71282500D01*
X185487100Y-71368225D01*
X185487100Y-71513207D01*
X185539303Y-71639237D01*
X185551189Y-71651123D01*
X185550829Y-71652900D01*
X185520258Y-71652900D01*
X185438336Y-71570835D01*
X185220793Y-71480503D01*
X184985241Y-71480297D01*
X184767540Y-71570249D01*
X184600835Y-71736664D01*
X184510503Y-71954207D01*
X184510297Y-72189759D01*
X177582100Y-72189759D01*
X177582100Y-70284759D01*
X184510297Y-70284759D01*
X184600249Y-70502460D01*
X184766664Y-70669165D01*
X184984207Y-70759497D01*
X185219759Y-70759703D01*
X185437460Y-70669751D01*
X185520255Y-70587100D01*
X185549508Y-70587100D01*
X185550056Y-70590010D01*
X185539303Y-70600763D01*
X185487100Y-70726793D01*
X185487100Y-70871775D01*
X185572825Y-70957500D01*
X186444900Y-70957500D01*
X186444900Y-70934900D01*
X186775100Y-70934900D01*
X186775100Y-70957500D01*
X187647175Y-70957500D01*
X187732900Y-70871775D01*
X187732900Y-70726793D01*
X187680697Y-70600763D01*
X187668811Y-70588877D01*
X187687822Y-70495000D01*
X187687822Y-69845000D01*
X188232178Y-69845000D01*
X188232178Y-70495000D01*
X188252546Y-70603246D01*
X188316519Y-70702663D01*
X188414131Y-70769358D01*
X188530000Y-70792822D01*
X190090000Y-70792822D01*
X190198246Y-70772454D01*
X190292039Y-70712100D01*
X191918868Y-70712100D01*
X191875525Y-70930000D01*
X191943432Y-71271392D01*
X192114825Y-71527900D01*
X190289669Y-71527900D01*
X190205869Y-71470642D01*
X190090000Y-71447178D01*
X188530000Y-71447178D01*
X188421754Y-71467546D01*
X188322337Y-71531519D01*
X188255642Y-71629131D01*
X188232178Y-71745000D01*
X188232178Y-72395000D01*
X188252546Y-72503246D01*
X188316519Y-72602663D01*
X188414131Y-72669358D01*
X188530000Y-72692822D01*
X190090000Y-72692822D01*
X190198246Y-72672454D01*
X190292039Y-72612100D01*
X191938759Y-72612100D01*
X191875525Y-72930000D01*
X191943432Y-73271392D01*
X192136815Y-73560810D01*
X192426233Y-73754193D01*
X192767625Y-73822100D01*
X193312375Y-73822100D01*
X193653767Y-73754193D01*
X193943185Y-73560810D01*
X194136568Y-73271392D01*
X194204475Y-72930000D01*
X194136568Y-72588608D01*
X193943185Y-72299190D01*
X193653767Y-72105807D01*
X193312375Y-72037900D01*
X192914546Y-72037900D01*
X192681643Y-71804997D01*
X192767625Y-71822100D01*
X193312375Y-71822100D01*
X193653767Y-71754193D01*
X193943185Y-71560810D01*
X194136568Y-71271392D01*
X194204475Y-70930000D01*
X194136568Y-70588608D01*
X193943185Y-70299190D01*
X193653767Y-70105807D01*
X193312375Y-70037900D01*
X192914546Y-70037900D01*
X192663323Y-69786677D01*
X192609030Y-69750400D01*
X192487453Y-69669165D01*
X192453033Y-69662319D01*
X192280000Y-69627899D01*
X192279995Y-69627900D01*
X190289669Y-69627900D01*
X190205869Y-69570642D01*
X190090000Y-69547178D01*
X188530000Y-69547178D01*
X188421754Y-69567546D01*
X188322337Y-69631519D01*
X188255642Y-69729131D01*
X188232178Y-69845000D01*
X187687822Y-69845000D01*
X187667454Y-69736754D01*
X187603481Y-69637337D01*
X187505869Y-69570642D01*
X187390000Y-69547178D01*
X185830000Y-69547178D01*
X185721754Y-69567546D01*
X185622337Y-69631519D01*
X185555642Y-69729131D01*
X185550829Y-69752900D01*
X185525250Y-69752900D01*
X185438336Y-69665835D01*
X185220793Y-69575503D01*
X184985241Y-69575297D01*
X184767540Y-69665249D01*
X184600835Y-69831664D01*
X184510503Y-70049207D01*
X184510297Y-70284759D01*
X177582100Y-70284759D01*
X177582100Y-70022768D01*
X179364934Y-68239934D01*
X179455350Y-68104617D01*
X179487100Y-67945000D01*
X179487100Y-67720982D01*
X179700810Y-67578185D01*
X179894193Y-67288767D01*
X179962100Y-66947375D01*
X179962100Y-66402625D01*
X179894193Y-66061233D01*
X179797880Y-65917090D01*
X179972222Y-65917090D01*
X180224331Y-66169199D01*
X180177900Y-66402625D01*
X180177900Y-66947375D01*
X180245807Y-67288767D01*
X180439190Y-67578185D01*
X180728608Y-67771568D01*
X181070000Y-67839475D01*
X181411392Y-67771568D01*
X181700810Y-67578185D01*
X181894193Y-67288767D01*
X181962100Y-66947375D01*
X181962100Y-66402625D01*
X181894193Y-66061233D01*
X181700810Y-65771815D01*
X181411392Y-65578432D01*
X181070000Y-65510525D01*
X180799249Y-65564381D01*
X180701947Y-65467079D01*
X181522211Y-65467079D01*
X182172178Y-66117046D01*
X182172178Y-67525000D01*
X182192546Y-67633246D01*
X182256519Y-67732663D01*
X182354131Y-67799358D01*
X182470000Y-67822822D01*
X183670000Y-67822822D01*
X183778246Y-67802454D01*
X183877663Y-67738481D01*
X183944358Y-67640869D01*
X183967822Y-67525000D01*
X183967822Y-65825000D01*
X183947454Y-65716754D01*
X183931252Y-65691574D01*
X191507295Y-65691574D01*
X192037816Y-66975531D01*
X193019302Y-67958732D01*
X194302331Y-68491492D01*
X195691574Y-68492705D01*
X196975531Y-67962184D01*
X197958732Y-66980698D01*
X198491492Y-65697669D01*
X198492705Y-64308426D01*
X197962184Y-63024469D01*
X196980698Y-62041268D01*
X195697669Y-61508508D01*
X194308426Y-61507295D01*
X193024469Y-62037816D01*
X192041268Y-63019302D01*
X191508508Y-64302331D01*
X191507295Y-65691574D01*
X183931252Y-65691574D01*
X183883481Y-65617337D01*
X183785869Y-65550642D01*
X183670000Y-65527178D01*
X182762046Y-65527178D01*
X181989913Y-64755045D01*
X181854596Y-64664629D01*
X181694979Y-64632879D01*
X177136860Y-64632879D01*
X176977243Y-64664629D01*
X176841926Y-64755045D01*
X175781567Y-65815404D01*
X175697254Y-65706099D01*
X175378291Y-65533924D01*
X175235100Y-65583875D01*
X175235100Y-66509900D01*
X175255100Y-66509900D01*
X175255100Y-66840100D01*
X175235100Y-66840100D01*
X175235100Y-66860100D01*
X174904900Y-66860100D01*
X174904900Y-66840100D01*
X174205431Y-66840100D01*
X174118124Y-66989804D01*
X174215381Y-67349138D01*
X174442746Y-67643901D01*
X174761709Y-67816076D01*
X174904898Y-67766126D01*
X174904898Y-67808395D01*
X174550393Y-68162900D01*
X168765268Y-68162900D01*
X168437100Y-67834732D01*
X168437100Y-67822822D01*
X168620000Y-67822822D01*
X168728246Y-67802454D01*
X168827663Y-67738481D01*
X168894358Y-67640869D01*
X168917822Y-67525000D01*
X168917822Y-66360196D01*
X174118124Y-66360196D01*
X174205431Y-66509900D01*
X174904900Y-66509900D01*
X174904900Y-65583875D01*
X174761709Y-65533924D01*
X174442746Y-65706099D01*
X174215381Y-66000862D01*
X174118124Y-66360196D01*
X168917822Y-66360196D01*
X168917822Y-65825000D01*
X168897454Y-65716754D01*
X168833481Y-65617337D01*
X168735869Y-65550642D01*
X168620000Y-65527178D01*
X167420000Y-65527178D01*
X167311754Y-65547546D01*
X167212337Y-65611519D01*
X167145642Y-65709131D01*
X167122178Y-65825000D01*
X167122178Y-67525000D01*
X167127301Y-67552227D01*
X167005000Y-67527900D01*
X166684409Y-67527900D01*
X166844193Y-67288767D01*
X166912100Y-66947375D01*
X166912100Y-66402625D01*
X166844193Y-66061233D01*
X166650810Y-65771815D01*
X166361392Y-65578432D01*
X166020000Y-65510525D01*
X165678608Y-65578432D01*
X165389190Y-65771815D01*
X165195807Y-66061233D01*
X165127900Y-66402625D01*
X165127900Y-66947375D01*
X165195807Y-67288767D01*
X165355591Y-67527900D01*
X164684409Y-67527900D01*
X164844193Y-67288767D01*
X164912100Y-66947375D01*
X164912100Y-66402625D01*
X164844193Y-66061233D01*
X164650810Y-65771815D01*
X164361392Y-65578432D01*
X164020000Y-65510525D01*
X163678608Y-65578432D01*
X163389190Y-65771815D01*
X163195807Y-66061233D01*
X163127900Y-66402625D01*
X163127900Y-66947375D01*
X163195807Y-67288767D01*
X163355591Y-67527900D01*
X163212768Y-67527900D01*
X162865669Y-67180801D01*
X162912100Y-66947375D01*
X162912100Y-66402625D01*
X162844193Y-66061233D01*
X162650810Y-65771815D01*
X162361392Y-65578432D01*
X162020000Y-65510525D01*
X161678608Y-65578432D01*
X161389190Y-65771815D01*
X161195807Y-66061233D01*
X161127900Y-66402625D01*
X161127900Y-66947375D01*
X161195807Y-67288767D01*
X161389190Y-67578185D01*
X161678608Y-67771568D01*
X162020000Y-67839475D01*
X162290751Y-67785619D01*
X162745066Y-68239934D01*
X162880383Y-68330350D01*
X163040000Y-68362100D01*
X166832232Y-68362100D01*
X167795077Y-69324945D01*
X167930393Y-69415361D01*
X167956875Y-69420629D01*
X168090011Y-69447111D01*
X174964989Y-69447111D01*
X175124606Y-69415361D01*
X175259923Y-69324945D01*
X176799249Y-67785619D01*
X177070000Y-67839475D01*
X177411392Y-67771568D01*
X177700810Y-67578185D01*
X177727890Y-67537657D01*
X177727890Y-68060831D01*
X176233655Y-69555066D01*
X176143239Y-69690383D01*
X176111489Y-69850000D01*
X176111489Y-78886143D01*
X176039732Y-78957900D01*
X175438656Y-78957900D01*
X175409981Y-78913337D01*
X175312369Y-78846642D01*
X175196500Y-78823178D01*
X174053500Y-78823178D01*
X173945254Y-78843546D01*
X173845837Y-78907519D01*
X173779142Y-79005131D01*
X173755678Y-79121000D01*
X173755678Y-79629000D01*
X173776046Y-79737246D01*
X173840019Y-79836663D01*
X173937631Y-79903358D01*
X174053500Y-79926822D01*
X175196500Y-79926822D01*
X175304746Y-79906454D01*
X175404163Y-79842481D01*
X175438587Y-79792100D01*
X176212500Y-79792100D01*
X176372117Y-79760350D01*
X176507434Y-79669934D01*
X176747900Y-79429468D01*
X176747900Y-82037529D01*
X175751435Y-81041065D01*
X175616118Y-80950649D01*
X175488984Y-80925360D01*
X175494322Y-80899000D01*
X175494322Y-80391000D01*
X175473954Y-80282754D01*
X175409981Y-80183337D01*
X175312369Y-80116642D01*
X175196500Y-80093178D01*
X174053500Y-80093178D01*
X173945254Y-80113546D01*
X173845837Y-80177519D01*
X173811413Y-80227900D01*
X173775254Y-80227900D01*
X173690836Y-80143335D01*
X173473293Y-80053003D01*
X173237741Y-80052797D01*
X173020040Y-80142749D01*
X172853335Y-80309164D01*
X172763003Y-80526707D01*
X172762797Y-80762259D01*
X172852749Y-80979960D01*
X173019164Y-81146665D01*
X173236707Y-81236997D01*
X173346015Y-81237093D01*
X173343149Y-81241382D01*
X173311399Y-81400999D01*
X173311399Y-82605999D01*
X173343149Y-82765616D01*
X173433565Y-82900933D01*
X173755678Y-83223046D01*
X173755678Y-83439000D01*
X173776046Y-83547246D01*
X173840019Y-83646663D01*
X173937631Y-83713358D01*
X174053500Y-83736822D01*
X175196500Y-83736822D01*
X175304746Y-83716454D01*
X175404163Y-83652481D01*
X175470858Y-83554869D01*
X175494322Y-83439000D01*
X175494322Y-83056690D01*
X175937901Y-83500269D01*
X175937797Y-83619759D01*
X176027749Y-83837460D01*
X176112900Y-83922759D01*
X176112900Y-87575531D01*
X175494322Y-86956954D01*
X175494322Y-86741000D01*
X175473954Y-86632754D01*
X175409981Y-86533337D01*
X175312369Y-86466642D01*
X175196500Y-86443178D01*
X174053500Y-86443178D01*
X173945254Y-86463546D01*
X173845837Y-86527519D01*
X173779142Y-86625131D01*
X173772100Y-86659906D01*
X173772100Y-86532768D01*
X174032333Y-86272536D01*
X174053500Y-86276822D01*
X175196500Y-86276822D01*
X175304746Y-86256454D01*
X175404163Y-86192481D01*
X175470858Y-86094869D01*
X175494322Y-85979000D01*
X175494322Y-85471000D01*
X175473954Y-85362754D01*
X175409981Y-85263337D01*
X175312369Y-85196642D01*
X175196500Y-85173178D01*
X174053500Y-85173178D01*
X173945254Y-85193546D01*
X173845837Y-85257519D01*
X173779142Y-85355131D01*
X173774749Y-85376823D01*
X173695066Y-85430065D01*
X173060066Y-86065066D01*
X172969650Y-86200383D01*
X172937900Y-86360000D01*
X172937900Y-87139731D01*
X172425067Y-87652565D01*
X172425066Y-87652566D01*
X172334650Y-87787883D01*
X172302900Y-87947500D01*
X172302900Y-88582500D01*
X172334650Y-88742117D01*
X172425066Y-88877434D01*
X173060066Y-89512435D01*
X173195383Y-89602850D01*
X173355000Y-89634600D01*
X174452232Y-89634600D01*
X175477900Y-90660268D01*
X175477900Y-111773732D01*
X175355512Y-111896120D01*
X175312369Y-111866642D01*
X175196500Y-111843178D01*
X174053500Y-111843178D01*
X173945254Y-111863546D01*
X173845837Y-111927519D01*
X173779142Y-112025131D01*
X173755678Y-112141000D01*
X173755678Y-112649000D01*
X173776046Y-112757246D01*
X173840019Y-112856663D01*
X173937631Y-112923358D01*
X174053500Y-112946822D01*
X175196500Y-112946822D01*
X175304746Y-112926454D01*
X175404163Y-112862481D01*
X175438587Y-112812100D01*
X175446500Y-112812100D01*
X175606117Y-112780350D01*
X175741434Y-112689934D01*
X176112900Y-112318468D01*
X176112900Y-114127231D01*
X175722232Y-114517900D01*
X175438656Y-114517900D01*
X175409981Y-114473337D01*
X175312369Y-114406642D01*
X175196500Y-114383178D01*
X174053500Y-114383178D01*
X173945254Y-114403546D01*
X173845837Y-114467519D01*
X173779142Y-114565131D01*
X173755678Y-114681000D01*
X173755678Y-114835400D01*
X159240268Y-114835400D01*
X159167100Y-114762232D01*
X159167100Y-113782259D01*
X172762797Y-113782259D01*
X172852749Y-113999960D01*
X173019164Y-114166665D01*
X173236707Y-114256997D01*
X173472259Y-114257203D01*
X173689960Y-114167251D01*
X173775259Y-114082100D01*
X173811344Y-114082100D01*
X173840019Y-114126663D01*
X173937631Y-114193358D01*
X174053500Y-114216822D01*
X175196500Y-114216822D01*
X175304746Y-114196454D01*
X175404163Y-114132481D01*
X175470858Y-114034869D01*
X175494322Y-113919000D01*
X175494322Y-113411000D01*
X175473954Y-113302754D01*
X175409981Y-113203337D01*
X175312369Y-113136642D01*
X175196500Y-113113178D01*
X174053500Y-113113178D01*
X173945254Y-113133546D01*
X173845837Y-113197519D01*
X173811413Y-113247900D01*
X173775254Y-113247900D01*
X173690836Y-113163335D01*
X173473293Y-113073003D01*
X173237741Y-113072797D01*
X173020040Y-113162749D01*
X172853335Y-113329164D01*
X172763003Y-113546707D01*
X172762797Y-113782259D01*
X159167100Y-113782259D01*
X159167100Y-113195012D01*
X159424388Y-113088703D01*
X159760024Y-112753652D01*
X159941893Y-112315664D01*
X159941894Y-112313583D01*
X160097693Y-112313583D01*
X160278797Y-112751888D01*
X160613848Y-113087524D01*
X161051836Y-113269393D01*
X161526083Y-113269807D01*
X161964388Y-113088703D01*
X162300024Y-112753652D01*
X162481893Y-112315664D01*
X162481894Y-112313583D01*
X162637693Y-112313583D01*
X162818797Y-112751888D01*
X163153848Y-113087524D01*
X163591836Y-113269393D01*
X164066083Y-113269807D01*
X164504388Y-113088703D01*
X164840024Y-112753652D01*
X165021893Y-112315664D01*
X165021894Y-112313583D01*
X165177693Y-112313583D01*
X165358797Y-112751888D01*
X165693848Y-113087524D01*
X166131836Y-113269393D01*
X166606083Y-113269807D01*
X167044388Y-113088703D01*
X167380024Y-112753652D01*
X167561893Y-112315664D01*
X167562307Y-111841417D01*
X167381203Y-111403112D01*
X167046152Y-111067476D01*
X166608164Y-110885607D01*
X166133917Y-110885193D01*
X165695612Y-111066297D01*
X165359976Y-111401348D01*
X165178107Y-111839336D01*
X165177693Y-112313583D01*
X165021894Y-112313583D01*
X165022307Y-111841417D01*
X164841203Y-111403112D01*
X164506152Y-111067476D01*
X164068164Y-110885607D01*
X163593917Y-110885193D01*
X163155612Y-111066297D01*
X162819976Y-111401348D01*
X162638107Y-111839336D01*
X162637693Y-112313583D01*
X162481894Y-112313583D01*
X162482307Y-111841417D01*
X162301203Y-111403112D01*
X161966152Y-111067476D01*
X161528164Y-110885607D01*
X161053917Y-110885193D01*
X160615612Y-111066297D01*
X160279976Y-111401348D01*
X160098107Y-111839336D01*
X160097693Y-112313583D01*
X159941894Y-112313583D01*
X159942307Y-111841417D01*
X159761203Y-111403112D01*
X159426152Y-111067476D01*
X158988164Y-110885607D01*
X158513917Y-110885193D01*
X158075612Y-111066297D01*
X157739976Y-111401348D01*
X157558107Y-111839336D01*
X157557693Y-112313583D01*
X157738797Y-112751888D01*
X158073848Y-113087524D01*
X158332900Y-113195092D01*
X158332900Y-114935000D01*
X158364650Y-115094617D01*
X158455066Y-115229934D01*
X158563023Y-115337891D01*
X157202760Y-115337891D01*
X156627100Y-114762232D01*
X156627100Y-113195012D01*
X156884388Y-113088703D01*
X157220024Y-112753652D01*
X157401893Y-112315664D01*
X157402307Y-111841417D01*
X157221203Y-111403112D01*
X156886152Y-111067476D01*
X156448164Y-110885607D01*
X155973917Y-110885193D01*
X155535612Y-111066297D01*
X155199976Y-111401348D01*
X155018107Y-111839336D01*
X155017693Y-112313583D01*
X155198797Y-112751888D01*
X155533848Y-113087524D01*
X155792900Y-113195092D01*
X155792900Y-114883324D01*
X154099475Y-113189899D01*
X154344388Y-113088703D01*
X154680024Y-112753652D01*
X154861893Y-112315664D01*
X154862307Y-111841417D01*
X154681203Y-111403112D01*
X154346152Y-111067476D01*
X153908164Y-110885607D01*
X153433917Y-110885193D01*
X152995612Y-111066297D01*
X152659976Y-111401348D01*
X152478107Y-111839336D01*
X152477693Y-112313583D01*
X152321894Y-112313583D01*
X152322307Y-111841417D01*
X152141203Y-111403112D01*
X151806152Y-111067476D01*
X151368164Y-110885607D01*
X150893917Y-110885193D01*
X150455612Y-111066297D01*
X150119976Y-111401348D01*
X149938107Y-111839336D01*
X149937693Y-112313583D01*
X149781894Y-112313583D01*
X149782307Y-111841417D01*
X149601203Y-111403112D01*
X149266152Y-111067476D01*
X148828164Y-110885607D01*
X148353917Y-110885193D01*
X147915612Y-111066297D01*
X147579976Y-111401348D01*
X147398107Y-111839336D01*
X147397693Y-112313583D01*
X140367100Y-112313583D01*
X140367100Y-89453583D01*
X147397693Y-89453583D01*
X147578797Y-89891888D01*
X147913848Y-90227524D01*
X148351836Y-90409393D01*
X148826083Y-90409807D01*
X149264388Y-90228703D01*
X149331697Y-90161511D01*
X150419476Y-90161511D01*
X150525046Y-90331032D01*
X150997226Y-90477776D01*
X151489619Y-90432653D01*
X151734954Y-90331032D01*
X151840524Y-90161511D01*
X151130000Y-89450987D01*
X150419476Y-90161511D01*
X149331697Y-90161511D01*
X149600024Y-89893652D01*
X149781893Y-89455664D01*
X149782216Y-89084726D01*
X149869724Y-89084726D01*
X149914847Y-89577119D01*
X150016468Y-89822454D01*
X150185989Y-89928024D01*
X150896513Y-89217500D01*
X151363487Y-89217500D01*
X152074011Y-89928024D01*
X152243532Y-89822454D01*
X152358169Y-89453583D01*
X152477693Y-89453583D01*
X152658797Y-89891888D01*
X152993848Y-90227524D01*
X153431836Y-90409393D01*
X153906083Y-90409807D01*
X154344388Y-90228703D01*
X154680024Y-89893652D01*
X154861893Y-89455664D01*
X154861894Y-89453583D01*
X155017693Y-89453583D01*
X155198797Y-89891888D01*
X155533848Y-90227524D01*
X155971836Y-90409393D01*
X156446083Y-90409807D01*
X156884388Y-90228703D01*
X157220024Y-89893652D01*
X157401893Y-89455664D01*
X157401894Y-89453583D01*
X157557693Y-89453583D01*
X157738797Y-89891888D01*
X158073848Y-90227524D01*
X158511836Y-90409393D01*
X158986083Y-90409807D01*
X159424388Y-90228703D01*
X159760024Y-89893652D01*
X159941893Y-89455664D01*
X159941894Y-89453583D01*
X160097693Y-89453583D01*
X160278797Y-89891888D01*
X160613848Y-90227524D01*
X161051836Y-90409393D01*
X161526083Y-90409807D01*
X161964388Y-90228703D01*
X162300024Y-89893652D01*
X162481893Y-89455664D01*
X162481894Y-89453583D01*
X162637693Y-89453583D01*
X162818797Y-89891888D01*
X163153848Y-90227524D01*
X163591836Y-90409393D01*
X164066083Y-90409807D01*
X164504388Y-90228703D01*
X164840024Y-89893652D01*
X165021893Y-89455664D01*
X165021894Y-89453583D01*
X165177693Y-89453583D01*
X165358797Y-89891888D01*
X165693848Y-90227524D01*
X166131836Y-90409393D01*
X166606083Y-90409807D01*
X167044388Y-90228703D01*
X167380024Y-89893652D01*
X167561893Y-89455664D01*
X167562307Y-88981417D01*
X167381203Y-88543112D01*
X167046152Y-88207476D01*
X166608164Y-88025607D01*
X166133917Y-88025193D01*
X165695612Y-88206297D01*
X165359976Y-88541348D01*
X165178107Y-88979336D01*
X165177693Y-89453583D01*
X165021894Y-89453583D01*
X165022307Y-88981417D01*
X164841203Y-88543112D01*
X164506152Y-88207476D01*
X164068164Y-88025607D01*
X163593917Y-88025193D01*
X163155612Y-88206297D01*
X162819976Y-88541348D01*
X162638107Y-88979336D01*
X162637693Y-89453583D01*
X162481894Y-89453583D01*
X162482307Y-88981417D01*
X162301203Y-88543112D01*
X161966152Y-88207476D01*
X161528164Y-88025607D01*
X161053917Y-88025193D01*
X160615612Y-88206297D01*
X160279976Y-88541348D01*
X160098107Y-88979336D01*
X160097693Y-89453583D01*
X159941894Y-89453583D01*
X159942307Y-88981417D01*
X159761203Y-88543112D01*
X159426152Y-88207476D01*
X158988164Y-88025607D01*
X158513917Y-88025193D01*
X158075612Y-88206297D01*
X157739976Y-88541348D01*
X157558107Y-88979336D01*
X157557693Y-89453583D01*
X157401894Y-89453583D01*
X157402307Y-88981417D01*
X157221203Y-88543112D01*
X156886152Y-88207476D01*
X156448164Y-88025607D01*
X155973917Y-88025193D01*
X155535612Y-88206297D01*
X155199976Y-88541348D01*
X155018107Y-88979336D01*
X155017693Y-89453583D01*
X154861894Y-89453583D01*
X154862307Y-88981417D01*
X154681203Y-88543112D01*
X154346152Y-88207476D01*
X153908164Y-88025607D01*
X153433917Y-88025193D01*
X152995612Y-88206297D01*
X152659976Y-88541348D01*
X152478107Y-88979336D01*
X152477693Y-89453583D01*
X152358169Y-89453583D01*
X152390276Y-89350274D01*
X152345153Y-88857881D01*
X152243532Y-88612546D01*
X152074011Y-88506976D01*
X151363487Y-89217500D01*
X150896513Y-89217500D01*
X150185989Y-88506976D01*
X150016468Y-88612546D01*
X149869724Y-89084726D01*
X149782216Y-89084726D01*
X149782307Y-88981417D01*
X149601203Y-88543112D01*
X149332050Y-88273489D01*
X150419476Y-88273489D01*
X151130000Y-88984013D01*
X151840524Y-88273489D01*
X151734954Y-88103968D01*
X151262774Y-87957224D01*
X150770381Y-88002347D01*
X150525046Y-88103968D01*
X150419476Y-88273489D01*
X149332050Y-88273489D01*
X149266152Y-88207476D01*
X148828164Y-88025607D01*
X148353917Y-88025193D01*
X147915612Y-88206297D01*
X147579976Y-88541348D01*
X147398107Y-88979336D01*
X147397693Y-89453583D01*
X140367100Y-89453583D01*
X140367100Y-84240000D01*
X149982178Y-84240000D01*
X149982178Y-85940000D01*
X150002546Y-86048246D01*
X150066519Y-86147663D01*
X150164131Y-86214358D01*
X150280000Y-86237822D01*
X151980000Y-86237822D01*
X152088246Y-86217454D01*
X152187663Y-86153481D01*
X152254358Y-86055869D01*
X152277822Y-85940000D01*
X152277822Y-84667725D01*
X173710600Y-84667725D01*
X173710600Y-84777207D01*
X173762803Y-84903237D01*
X173859263Y-84999697D01*
X173985293Y-85051900D01*
X174374175Y-85051900D01*
X174459900Y-84966175D01*
X174459900Y-84582000D01*
X174790100Y-84582000D01*
X174790100Y-84966175D01*
X174875825Y-85051900D01*
X175264707Y-85051900D01*
X175390737Y-84999697D01*
X175487197Y-84903237D01*
X175539400Y-84777207D01*
X175539400Y-84667725D01*
X175453675Y-84582000D01*
X174790100Y-84582000D01*
X174459900Y-84582000D01*
X173796325Y-84582000D01*
X173710600Y-84667725D01*
X152277822Y-84667725D01*
X152277822Y-84240000D01*
X152257650Y-84132793D01*
X173710600Y-84132793D01*
X173710600Y-84242275D01*
X173796325Y-84328000D01*
X174459900Y-84328000D01*
X174459900Y-83943825D01*
X174790100Y-83943825D01*
X174790100Y-84328000D01*
X175453675Y-84328000D01*
X175539400Y-84242275D01*
X175539400Y-84132793D01*
X175487197Y-84006763D01*
X175390737Y-83910303D01*
X175264707Y-83858100D01*
X174875825Y-83858100D01*
X174790100Y-83943825D01*
X174459900Y-83943825D01*
X174374175Y-83858100D01*
X173985293Y-83858100D01*
X173859263Y-83910303D01*
X173762803Y-84006763D01*
X173710600Y-84132793D01*
X152257650Y-84132793D01*
X152257454Y-84131754D01*
X152193481Y-84032337D01*
X152095869Y-83965642D01*
X151980000Y-83942178D01*
X150280000Y-83942178D01*
X150171754Y-83962546D01*
X150072337Y-84026519D01*
X150005642Y-84124131D01*
X149982178Y-84240000D01*
X140367100Y-84240000D01*
X140367100Y-82550000D01*
X149965525Y-82550000D01*
X150052462Y-82987063D01*
X150300038Y-83357587D01*
X150670562Y-83605163D01*
X151107625Y-83692100D01*
X151152375Y-83692100D01*
X151589438Y-83605163D01*
X151959962Y-83357587D01*
X152207538Y-82987063D01*
X152294475Y-82550000D01*
X152207538Y-82112937D01*
X151959962Y-81742413D01*
X151589438Y-81494837D01*
X151152375Y-81407900D01*
X151107625Y-81407900D01*
X150670562Y-81494837D01*
X150300038Y-81742413D01*
X150052462Y-82112937D01*
X149965525Y-82550000D01*
X140367100Y-82550000D01*
X140367100Y-65691574D01*
X141507295Y-65691574D01*
X142037816Y-66975531D01*
X143019302Y-67958732D01*
X144302331Y-68491492D01*
X145691574Y-68492705D01*
X146975531Y-67962184D01*
X147949610Y-66989804D01*
X159068124Y-66989804D01*
X159165381Y-67349138D01*
X159392746Y-67643901D01*
X159711709Y-67816076D01*
X159854900Y-67766125D01*
X159854900Y-66840100D01*
X160185100Y-66840100D01*
X160185100Y-67766125D01*
X160328291Y-67816076D01*
X160647254Y-67643901D01*
X160874619Y-67349138D01*
X160971876Y-66989804D01*
X160884569Y-66840100D01*
X160185100Y-66840100D01*
X159854900Y-66840100D01*
X159155431Y-66840100D01*
X159068124Y-66989804D01*
X147949610Y-66989804D01*
X147958732Y-66980698D01*
X148216386Y-66360196D01*
X159068124Y-66360196D01*
X159155431Y-66509900D01*
X159854900Y-66509900D01*
X159854900Y-65583875D01*
X160185100Y-65583875D01*
X160185100Y-66509900D01*
X160884569Y-66509900D01*
X160971876Y-66360196D01*
X160874619Y-66000862D01*
X160647254Y-65706099D01*
X160328291Y-65533924D01*
X160185100Y-65583875D01*
X159854900Y-65583875D01*
X159711709Y-65533924D01*
X159392746Y-65706099D01*
X159165381Y-66000862D01*
X159068124Y-66360196D01*
X148216386Y-66360196D01*
X148491492Y-65697669D01*
X148492705Y-64308426D01*
X147962184Y-63024469D01*
X146980698Y-62041268D01*
X145697669Y-61508508D01*
X144308426Y-61507295D01*
X143024469Y-62037816D01*
X142041268Y-63019302D01*
X141508508Y-64302331D01*
X141507295Y-65691574D01*
X140367100Y-65691574D01*
X140367100Y-65036155D01*
X140726403Y-63229818D01*
X141729131Y-61729130D01*
X143229818Y-60726403D01*
X145036155Y-60367100D01*
X194963845Y-60367100D01*
X196770182Y-60726403D01*
X196770182Y-60726403D01*
G37*
X196770182Y-60726403D02*
X198270870Y-61729131D01*
X199273597Y-63229818D01*
X199632900Y-65036155D01*
X199632900Y-134963845D01*
X199273597Y-136770182D01*
X198270870Y-138270869D01*
X196770182Y-139273597D01*
X195073441Y-139611100D01*
X144926559Y-139611100D01*
X143229818Y-139273597D01*
X141729131Y-138270870D01*
X140726403Y-136770182D01*
X140511855Y-135691574D01*
X141507295Y-135691574D01*
X142037816Y-136975531D01*
X143019302Y-137958732D01*
X144302331Y-138491492D01*
X145691574Y-138492705D01*
X146975531Y-137962184D01*
X147570355Y-137368397D01*
X182310090Y-137368397D01*
X182398551Y-137523597D01*
X182820391Y-137647134D01*
X183257395Y-137599836D01*
X183441449Y-137523597D01*
X183529910Y-137368397D01*
X182920000Y-136758487D01*
X182310090Y-137368397D01*
X147570355Y-137368397D01*
X147958732Y-136980698D01*
X148189315Y-136425391D01*
X181797866Y-136425391D01*
X181845164Y-136862395D01*
X181921403Y-137046449D01*
X182076603Y-137134910D01*
X182686513Y-136525000D01*
X183153487Y-136525000D01*
X183763397Y-137134910D01*
X183918597Y-137046449D01*
X184010170Y-136733754D01*
X186865717Y-136733754D01*
X187025856Y-137121320D01*
X187322121Y-137418101D01*
X187709407Y-137578917D01*
X188128754Y-137579283D01*
X188516320Y-137419144D01*
X188813101Y-137122879D01*
X188973917Y-136735593D01*
X188974283Y-136316246D01*
X188814144Y-135928680D01*
X188577451Y-135691574D01*
X191507295Y-135691574D01*
X192037816Y-136975531D01*
X193019302Y-137958732D01*
X194302331Y-138491492D01*
X195691574Y-138492705D01*
X196975531Y-137962184D01*
X197958732Y-136980698D01*
X198491492Y-135697669D01*
X198492705Y-134308426D01*
X197962184Y-133024469D01*
X196980698Y-132041268D01*
X195697669Y-131508508D01*
X194308426Y-131507295D01*
X193024469Y-132037816D01*
X192041268Y-133019302D01*
X191508508Y-134302331D01*
X191507295Y-135691574D01*
X188577451Y-135691574D01*
X188517879Y-135631899D01*
X188130593Y-135471083D01*
X187711246Y-135470717D01*
X187323680Y-135630856D01*
X187026899Y-135927121D01*
X186866083Y-136314407D01*
X186865717Y-136733754D01*
X184010170Y-136733754D01*
X184042134Y-136624609D01*
X183994836Y-136187605D01*
X183918597Y-136003551D01*
X183763397Y-135915090D01*
X183153487Y-136525000D01*
X182686513Y-136525000D01*
X182076603Y-135915090D01*
X181921403Y-136003551D01*
X181797866Y-136425391D01*
X148189315Y-136425391D01*
X148491492Y-135697669D01*
X148491506Y-135681603D01*
X182310090Y-135681603D01*
X182920000Y-136291513D01*
X183529910Y-135681603D01*
X183441449Y-135526403D01*
X183019609Y-135402866D01*
X182582605Y-135450164D01*
X182398551Y-135526403D01*
X182310090Y-135681603D01*
X148491506Y-135681603D01*
X148492705Y-134308426D01*
X147962184Y-133024469D01*
X146980698Y-132041268D01*
X145697669Y-131508508D01*
X144308426Y-131507295D01*
X143024469Y-132037816D01*
X142041268Y-133019302D01*
X141508508Y-134302331D01*
X141507295Y-135691574D01*
X140511855Y-135691574D01*
X140367100Y-134963845D01*
X140367100Y-130371132D01*
X179702354Y-130371132D01*
X179795537Y-130530274D01*
X180231251Y-130660206D01*
X180683520Y-130613507D01*
X180884463Y-130530274D01*
X180977646Y-130371132D01*
X180340000Y-129733487D01*
X179702354Y-130371132D01*
X140367100Y-130371132D01*
X140367100Y-129391251D01*
X179179794Y-129391251D01*
X179226493Y-129843520D01*
X179309726Y-130044463D01*
X179468868Y-130137646D01*
X180106513Y-129500000D01*
X180573487Y-129500000D01*
X181211132Y-130137646D01*
X181370274Y-130044463D01*
X181500206Y-129608749D01*
X181453507Y-129156480D01*
X181370274Y-128955537D01*
X181211132Y-128862354D01*
X180573487Y-129500000D01*
X180106513Y-129500000D01*
X179468868Y-128862354D01*
X179309726Y-128955537D01*
X179179794Y-129391251D01*
X140367100Y-129391251D01*
X140367100Y-128628868D01*
X179702354Y-128628868D01*
X180340000Y-129266513D01*
X180977646Y-128628868D01*
X180884463Y-128469726D01*
X180448749Y-128339794D01*
X179996480Y-128386493D01*
X179795537Y-128469726D01*
X179702354Y-128628868D01*
X140367100Y-128628868D01*
X140367100Y-126200000D01*
X179242178Y-126200000D01*
X179242178Y-127800000D01*
X179262546Y-127908246D01*
X179326519Y-128007663D01*
X179424131Y-128074358D01*
X179540000Y-128097822D01*
X181140000Y-128097822D01*
X181248246Y-128077454D01*
X181347663Y-128013481D01*
X181414358Y-127915869D01*
X181425671Y-127860000D01*
X191892178Y-127860000D01*
X191892178Y-129060000D01*
X191912546Y-129168246D01*
X191976519Y-129267663D01*
X192074131Y-129334358D01*
X192190000Y-129357822D01*
X193890000Y-129357822D01*
X193998246Y-129337454D01*
X194097663Y-129273481D01*
X194164358Y-129175869D01*
X194187822Y-129060000D01*
X194187822Y-127860000D01*
X194167454Y-127751754D01*
X194103481Y-127652337D01*
X194005869Y-127585642D01*
X193890000Y-127562178D01*
X192190000Y-127562178D01*
X192081754Y-127582546D01*
X191982337Y-127646519D01*
X191915642Y-127744131D01*
X191892178Y-127860000D01*
X181425671Y-127860000D01*
X181437822Y-127800000D01*
X181437822Y-126799759D01*
X184510297Y-126799759D01*
X184600249Y-127017460D01*
X184766664Y-127184165D01*
X184984207Y-127274497D01*
X185219759Y-127274703D01*
X185437460Y-127184751D01*
X185486839Y-127135458D01*
X185536519Y-127212663D01*
X185634131Y-127279358D01*
X185750000Y-127302822D01*
X187310000Y-127302822D01*
X187418246Y-127282454D01*
X187517663Y-127218481D01*
X187584358Y-127120869D01*
X187607822Y-127005000D01*
X187607822Y-126355000D01*
X188152178Y-126355000D01*
X188152178Y-127005000D01*
X188172546Y-127113246D01*
X188236519Y-127212663D01*
X188334131Y-127279358D01*
X188450000Y-127302822D01*
X190010000Y-127302822D01*
X190118246Y-127282454D01*
X190212039Y-127222100D01*
X192333304Y-127222100D01*
X192426233Y-127284193D01*
X192767625Y-127352100D01*
X193312375Y-127352100D01*
X193653767Y-127284193D01*
X193943185Y-127090810D01*
X194136568Y-126801392D01*
X194204475Y-126460000D01*
X194136568Y-126118608D01*
X193943185Y-125829190D01*
X193653767Y-125635807D01*
X193312375Y-125567900D01*
X192767625Y-125567900D01*
X192426233Y-125635807D01*
X192136815Y-125829190D01*
X191943432Y-126118608D01*
X191939595Y-126137900D01*
X190209669Y-126137900D01*
X190125869Y-126080642D01*
X190010000Y-126057178D01*
X188450000Y-126057178D01*
X188341754Y-126077546D01*
X188242337Y-126141519D01*
X188175642Y-126239131D01*
X188152178Y-126355000D01*
X187607822Y-126355000D01*
X187589944Y-126259990D01*
X187600697Y-126249237D01*
X187652900Y-126123207D01*
X187652900Y-125978225D01*
X187567175Y-125892500D01*
X186695100Y-125892500D01*
X186695100Y-125915100D01*
X186364900Y-125915100D01*
X186364900Y-125892500D01*
X185492825Y-125892500D01*
X185407100Y-125978225D01*
X185407100Y-126123207D01*
X185429440Y-126177141D01*
X185220793Y-126090503D01*
X184985241Y-126090297D01*
X184767540Y-126180249D01*
X184600835Y-126346664D01*
X184510503Y-126564207D01*
X184510297Y-126799759D01*
X181437822Y-126799759D01*
X181437822Y-126200000D01*
X181417454Y-126091754D01*
X181353481Y-125992337D01*
X181255869Y-125925642D01*
X181140000Y-125902178D01*
X179540000Y-125902178D01*
X179431754Y-125922546D01*
X179332337Y-125986519D01*
X179265642Y-126084131D01*
X179242178Y-126200000D01*
X140367100Y-126200000D01*
X140367100Y-124770310D01*
X184634746Y-124770310D01*
X184724698Y-124988011D01*
X184891113Y-125154716D01*
X185108656Y-125245048D01*
X185344208Y-125245254D01*
X185460750Y-125197100D01*
X185469508Y-125197100D01*
X185470056Y-125200010D01*
X185459303Y-125210763D01*
X185407100Y-125336793D01*
X185407100Y-125481775D01*
X185492825Y-125567500D01*
X186364900Y-125567500D01*
X186364900Y-125544900D01*
X186695100Y-125544900D01*
X186695100Y-125567500D01*
X187567175Y-125567500D01*
X187652900Y-125481775D01*
X187652900Y-125336793D01*
X187600697Y-125210763D01*
X187588811Y-125198877D01*
X187607822Y-125105000D01*
X187607822Y-124455000D01*
X188152178Y-124455000D01*
X188152178Y-125105000D01*
X188172546Y-125213246D01*
X188236519Y-125312663D01*
X188334131Y-125379358D01*
X188450000Y-125402822D01*
X190010000Y-125402822D01*
X190118246Y-125382454D01*
X190212039Y-125322100D01*
X192616805Y-125322100D01*
X192767625Y-125352100D01*
X193312375Y-125352100D01*
X193653767Y-125284193D01*
X193943185Y-125090810D01*
X194136568Y-124801392D01*
X194204475Y-124460000D01*
X194136568Y-124118608D01*
X193943185Y-123829190D01*
X193653767Y-123635807D01*
X193312375Y-123567900D01*
X192767625Y-123567900D01*
X192426233Y-123635807D01*
X192136815Y-123829190D01*
X191943432Y-124118608D01*
X191919703Y-124237900D01*
X190209669Y-124237900D01*
X190125869Y-124180642D01*
X190010000Y-124157178D01*
X188450000Y-124157178D01*
X188341754Y-124177546D01*
X188242337Y-124241519D01*
X188175642Y-124339131D01*
X188152178Y-124455000D01*
X187607822Y-124455000D01*
X187587454Y-124346754D01*
X187523481Y-124247337D01*
X187425869Y-124180642D01*
X187310000Y-124157178D01*
X185750000Y-124157178D01*
X185641754Y-124177546D01*
X185609572Y-124198255D01*
X185562785Y-124151386D01*
X185345242Y-124061054D01*
X185109690Y-124060848D01*
X184891989Y-124150800D01*
X184725284Y-124317215D01*
X184634952Y-124534758D01*
X184634746Y-124770310D01*
X140367100Y-124770310D01*
X140367100Y-121402259D01*
X172762797Y-121402259D01*
X172852749Y-121619960D01*
X173019164Y-121786665D01*
X173236707Y-121876997D01*
X173472259Y-121877203D01*
X173689960Y-121787251D01*
X173775259Y-121702100D01*
X173811344Y-121702100D01*
X173840019Y-121746663D01*
X173937631Y-121813358D01*
X174053500Y-121836822D01*
X175196500Y-121836822D01*
X175304746Y-121816454D01*
X175404163Y-121752481D01*
X175470858Y-121654869D01*
X175494322Y-121539000D01*
X175494322Y-121156690D01*
X177187565Y-122849934D01*
X177322882Y-122940350D01*
X177349364Y-122945618D01*
X177482500Y-122972100D01*
X181824746Y-122972100D01*
X181909164Y-123056665D01*
X182126707Y-123146997D01*
X182362259Y-123147203D01*
X182579960Y-123057251D01*
X182746665Y-122890836D01*
X182836997Y-122673293D01*
X182837203Y-122437741D01*
X182747251Y-122220040D01*
X182580836Y-122053335D01*
X182363293Y-121963003D01*
X182127741Y-121962797D01*
X181910040Y-122052749D01*
X181824741Y-122137900D01*
X177655269Y-122137900D01*
X176548369Y-121031000D01*
X180105678Y-121031000D01*
X180105678Y-121539000D01*
X180126046Y-121647246D01*
X180190019Y-121746663D01*
X180287631Y-121813358D01*
X180403500Y-121836822D01*
X181546500Y-121836822D01*
X181654746Y-121816454D01*
X181754163Y-121752481D01*
X181788587Y-121702100D01*
X181824746Y-121702100D01*
X181909164Y-121786665D01*
X182126707Y-121876997D01*
X182362259Y-121877203D01*
X182579960Y-121787251D01*
X182647569Y-121719759D01*
X184510297Y-121719759D01*
X184600249Y-121937460D01*
X184766664Y-122104165D01*
X184984207Y-122194497D01*
X185219759Y-122194703D01*
X185437460Y-122104751D01*
X185525264Y-122017100D01*
X185549508Y-122017100D01*
X185552546Y-122033246D01*
X185616519Y-122132663D01*
X185714131Y-122199358D01*
X185830000Y-122222822D01*
X187390000Y-122222822D01*
X187498246Y-122202454D01*
X187597663Y-122138481D01*
X187664358Y-122040869D01*
X187687822Y-121925000D01*
X187687822Y-121275000D01*
X187669944Y-121179990D01*
X187680697Y-121169237D01*
X187732900Y-121043207D01*
X187732900Y-120898225D01*
X187647175Y-120812500D01*
X186775100Y-120812500D01*
X186775100Y-120835100D01*
X186444900Y-120835100D01*
X186444900Y-120812500D01*
X185572825Y-120812500D01*
X185487100Y-120898225D01*
X185487100Y-121043207D01*
X185539303Y-121169237D01*
X185551189Y-121181123D01*
X185550829Y-121182900D01*
X185520258Y-121182900D01*
X185438336Y-121100835D01*
X185220793Y-121010503D01*
X184985241Y-121010297D01*
X184767540Y-121100249D01*
X184600835Y-121266664D01*
X184510503Y-121484207D01*
X184510297Y-121719759D01*
X182647569Y-121719759D01*
X182746665Y-121620836D01*
X182836997Y-121403293D01*
X182837203Y-121167741D01*
X182747251Y-120950040D01*
X182580836Y-120783335D01*
X182363293Y-120693003D01*
X182127741Y-120692797D01*
X181910040Y-120782749D01*
X181824741Y-120867900D01*
X181788656Y-120867900D01*
X181759981Y-120823337D01*
X181662369Y-120756642D01*
X181546500Y-120733178D01*
X180403500Y-120733178D01*
X180295254Y-120753546D01*
X180195837Y-120817519D01*
X180129142Y-120915131D01*
X180105678Y-121031000D01*
X176548369Y-121031000D01*
X175494322Y-119976954D01*
X175494322Y-119761000D01*
X180105678Y-119761000D01*
X180105678Y-120269000D01*
X180126046Y-120377246D01*
X180190019Y-120476663D01*
X180287631Y-120543358D01*
X180403500Y-120566822D01*
X181546500Y-120566822D01*
X181654746Y-120546454D01*
X181754163Y-120482481D01*
X181788587Y-120432100D01*
X181824746Y-120432100D01*
X181909164Y-120516665D01*
X182126707Y-120606997D01*
X182362259Y-120607203D01*
X182579960Y-120517251D01*
X182746665Y-120350836D01*
X182836997Y-120133293D01*
X182837203Y-119897741D01*
X182802916Y-119814759D01*
X184510297Y-119814759D01*
X184600249Y-120032460D01*
X184766664Y-120199165D01*
X184984207Y-120289497D01*
X185219759Y-120289703D01*
X185437460Y-120199751D01*
X185520255Y-120117100D01*
X185549508Y-120117100D01*
X185550056Y-120120010D01*
X185539303Y-120130763D01*
X185487100Y-120256793D01*
X185487100Y-120401775D01*
X185572825Y-120487500D01*
X186444900Y-120487500D01*
X186444900Y-120464900D01*
X186775100Y-120464900D01*
X186775100Y-120487500D01*
X187647175Y-120487500D01*
X187732900Y-120401775D01*
X187732900Y-120256793D01*
X187680697Y-120130763D01*
X187668811Y-120118877D01*
X187687822Y-120025000D01*
X187687822Y-119375000D01*
X188232178Y-119375000D01*
X188232178Y-120025000D01*
X188252546Y-120133246D01*
X188316519Y-120232663D01*
X188414131Y-120299358D01*
X188530000Y-120322822D01*
X190090000Y-120322822D01*
X190198246Y-120302454D01*
X190292039Y-120242100D01*
X191918868Y-120242100D01*
X191875525Y-120460000D01*
X191943432Y-120801392D01*
X192114825Y-121057900D01*
X190289669Y-121057900D01*
X190205869Y-121000642D01*
X190090000Y-120977178D01*
X188530000Y-120977178D01*
X188421754Y-120997546D01*
X188322337Y-121061519D01*
X188255642Y-121159131D01*
X188232178Y-121275000D01*
X188232178Y-121925000D01*
X188252546Y-122033246D01*
X188316519Y-122132663D01*
X188414131Y-122199358D01*
X188530000Y-122222822D01*
X190090000Y-122222822D01*
X190198246Y-122202454D01*
X190292039Y-122142100D01*
X191938759Y-122142100D01*
X191875525Y-122460000D01*
X191943432Y-122801392D01*
X192136815Y-123090810D01*
X192426233Y-123284193D01*
X192767625Y-123352100D01*
X193312375Y-123352100D01*
X193653767Y-123284193D01*
X193943185Y-123090810D01*
X194136568Y-122801392D01*
X194204475Y-122460000D01*
X194136568Y-122118608D01*
X193943185Y-121829190D01*
X193653767Y-121635807D01*
X193312375Y-121567900D01*
X192914546Y-121567900D01*
X192681643Y-121334997D01*
X192767625Y-121352100D01*
X193312375Y-121352100D01*
X193653767Y-121284193D01*
X193943185Y-121090810D01*
X194136568Y-120801392D01*
X194204475Y-120460000D01*
X194136568Y-120118608D01*
X193943185Y-119829190D01*
X193653767Y-119635807D01*
X193312375Y-119567900D01*
X192914546Y-119567900D01*
X192663323Y-119316677D01*
X192609030Y-119280400D01*
X192487453Y-119199165D01*
X192453033Y-119192319D01*
X192280000Y-119157899D01*
X192279995Y-119157900D01*
X190289669Y-119157900D01*
X190205869Y-119100642D01*
X190090000Y-119077178D01*
X188530000Y-119077178D01*
X188421754Y-119097546D01*
X188322337Y-119161519D01*
X188255642Y-119259131D01*
X188232178Y-119375000D01*
X187687822Y-119375000D01*
X187667454Y-119266754D01*
X187603481Y-119167337D01*
X187505869Y-119100642D01*
X187390000Y-119077178D01*
X185830000Y-119077178D01*
X185721754Y-119097546D01*
X185622337Y-119161519D01*
X185555642Y-119259131D01*
X185550829Y-119282900D01*
X185525250Y-119282900D01*
X185438336Y-119195835D01*
X185220793Y-119105503D01*
X184985241Y-119105297D01*
X184767540Y-119195249D01*
X184600835Y-119361664D01*
X184510503Y-119579207D01*
X184510297Y-119814759D01*
X182802916Y-119814759D01*
X182747251Y-119680040D01*
X182580836Y-119513335D01*
X182363293Y-119423003D01*
X182127741Y-119422797D01*
X181910040Y-119512749D01*
X181824741Y-119597900D01*
X181788656Y-119597900D01*
X181759981Y-119553337D01*
X181662369Y-119486642D01*
X181546500Y-119463178D01*
X180403500Y-119463178D01*
X180295254Y-119483546D01*
X180195837Y-119547519D01*
X180129142Y-119645131D01*
X180105678Y-119761000D01*
X175494322Y-119761000D01*
X175473954Y-119652754D01*
X175409981Y-119553337D01*
X175312369Y-119486642D01*
X175196500Y-119463178D01*
X174053500Y-119463178D01*
X173945254Y-119483546D01*
X173845837Y-119547519D01*
X173779142Y-119645131D01*
X173755678Y-119761000D01*
X173755678Y-120269000D01*
X173776046Y-120377246D01*
X173840019Y-120476663D01*
X173937631Y-120543358D01*
X174053500Y-120566822D01*
X174904454Y-120566822D01*
X175070810Y-120733178D01*
X174053500Y-120733178D01*
X173945254Y-120753546D01*
X173845837Y-120817519D01*
X173811413Y-120867900D01*
X173775254Y-120867900D01*
X173690836Y-120783335D01*
X173473293Y-120693003D01*
X173237741Y-120692797D01*
X173020040Y-120782749D01*
X172853335Y-120949164D01*
X172763003Y-121166707D01*
X172762797Y-121402259D01*
X140367100Y-121402259D01*
X140367100Y-112313583D01*
X147397693Y-112313583D01*
X147578797Y-112751888D01*
X147913848Y-113087524D01*
X148351836Y-113269393D01*
X148826083Y-113269807D01*
X149264388Y-113088703D01*
X149600024Y-112753652D01*
X149781893Y-112315664D01*
X149781894Y-112313583D01*
X149937693Y-112313583D01*
X150118797Y-112751888D01*
X150453848Y-113087524D01*
X150891836Y-113269393D01*
X151366083Y-113269807D01*
X151804388Y-113088703D01*
X152140024Y-112753652D01*
X152321893Y-112315664D01*
X152321894Y-112313583D01*
X152477693Y-112313583D01*
X152658797Y-112751888D01*
X152993848Y-113087524D01*
X153252900Y-113195092D01*
X153252900Y-113350292D01*
X153284650Y-113509909D01*
X153375066Y-113645226D01*
X156229774Y-116499934D01*
X156365091Y-116590350D01*
X156524708Y-116622100D01*
X172864732Y-116622100D01*
X172937900Y-116695268D01*
X172937900Y-117792500D01*
X172969650Y-117952117D01*
X173060066Y-118087434D01*
X173755678Y-118783047D01*
X173755678Y-118999000D01*
X173776046Y-119107246D01*
X173840019Y-119206663D01*
X173937631Y-119273358D01*
X174053500Y-119296822D01*
X175196500Y-119296822D01*
X175304746Y-119276454D01*
X175404163Y-119212481D01*
X175470858Y-119114869D01*
X175494322Y-118999000D01*
X175494322Y-118491000D01*
X180105678Y-118491000D01*
X180105678Y-118999000D01*
X180126046Y-119107246D01*
X180190019Y-119206663D01*
X180287631Y-119273358D01*
X180403500Y-119296822D01*
X181546500Y-119296822D01*
X181654746Y-119276454D01*
X181754163Y-119212481D01*
X181788587Y-119162100D01*
X181824746Y-119162100D01*
X181909164Y-119246665D01*
X182126707Y-119336997D01*
X182362259Y-119337203D01*
X182579960Y-119247251D01*
X182746665Y-119080836D01*
X182836997Y-118863293D01*
X182837203Y-118627741D01*
X182747251Y-118410040D01*
X182580836Y-118243335D01*
X182363293Y-118153003D01*
X182127741Y-118152797D01*
X181910040Y-118242749D01*
X181824741Y-118327900D01*
X181788656Y-118327900D01*
X181759981Y-118283337D01*
X181662369Y-118216642D01*
X181546500Y-118193178D01*
X180403500Y-118193178D01*
X180295254Y-118213546D01*
X180195837Y-118277519D01*
X180129142Y-118375131D01*
X180105678Y-118491000D01*
X175494322Y-118491000D01*
X175473954Y-118382754D01*
X175409981Y-118283337D01*
X175312369Y-118216642D01*
X175196500Y-118193178D01*
X174345547Y-118193178D01*
X174224269Y-118071900D01*
X174374175Y-118071900D01*
X174459900Y-117986175D01*
X174459900Y-117602000D01*
X174790100Y-117602000D01*
X174790100Y-117986175D01*
X174875825Y-118071900D01*
X175264707Y-118071900D01*
X175390737Y-118019697D01*
X175487197Y-117923237D01*
X175539400Y-117797207D01*
X175539400Y-117687725D01*
X175453675Y-117602000D01*
X174790100Y-117602000D01*
X174459900Y-117602000D01*
X174439900Y-117602000D01*
X174439900Y-117348000D01*
X174459900Y-117348000D01*
X174459900Y-116963825D01*
X174790100Y-116963825D01*
X174790100Y-117348000D01*
X175453675Y-117348000D01*
X175539400Y-117262275D01*
X175539400Y-117221000D01*
X180105678Y-117221000D01*
X180105678Y-117729000D01*
X180126046Y-117837246D01*
X180190019Y-117936663D01*
X180287631Y-118003358D01*
X180403500Y-118026822D01*
X181546500Y-118026822D01*
X181654746Y-118006454D01*
X181754163Y-117942481D01*
X181788587Y-117892100D01*
X181824746Y-117892100D01*
X181909164Y-117976665D01*
X182126707Y-118066997D01*
X182362259Y-118067203D01*
X182579960Y-117977251D01*
X182746665Y-117810836D01*
X182836997Y-117593293D01*
X182837203Y-117357741D01*
X182747251Y-117140040D01*
X182580836Y-116973335D01*
X182363293Y-116883003D01*
X182127741Y-116882797D01*
X181910040Y-116972749D01*
X181824741Y-117057900D01*
X181788656Y-117057900D01*
X181759981Y-117013337D01*
X181662369Y-116946642D01*
X181546500Y-116923178D01*
X180403500Y-116923178D01*
X180295254Y-116943546D01*
X180195837Y-117007519D01*
X180129142Y-117105131D01*
X180105678Y-117221000D01*
X175539400Y-117221000D01*
X175539400Y-117152793D01*
X175487197Y-117026763D01*
X175390737Y-116930303D01*
X175264707Y-116878100D01*
X174875825Y-116878100D01*
X174790100Y-116963825D01*
X174459900Y-116963825D01*
X174374175Y-116878100D01*
X173985293Y-116878100D01*
X173859263Y-116930303D01*
X173772100Y-117017466D01*
X173772100Y-116615854D01*
X173803500Y-116622100D01*
X173811344Y-116622100D01*
X173840019Y-116666663D01*
X173937631Y-116733358D01*
X174053500Y-116756822D01*
X175196500Y-116756822D01*
X175304746Y-116736454D01*
X175404163Y-116672481D01*
X175438587Y-116622100D01*
X175577500Y-116622100D01*
X175737117Y-116590350D01*
X175872434Y-116499934D01*
X176421368Y-115951000D01*
X180105678Y-115951000D01*
X180105678Y-116459000D01*
X180126046Y-116567246D01*
X180190019Y-116666663D01*
X180287631Y-116733358D01*
X180403500Y-116756822D01*
X181546500Y-116756822D01*
X181654746Y-116736454D01*
X181754163Y-116672481D01*
X181788587Y-116622100D01*
X181824746Y-116622100D01*
X181909164Y-116706665D01*
X182126707Y-116796997D01*
X182362259Y-116797203D01*
X182579960Y-116707251D01*
X182746665Y-116540836D01*
X182836997Y-116323293D01*
X182837203Y-116087741D01*
X182747251Y-115870040D01*
X182580836Y-115703335D01*
X182363293Y-115613003D01*
X182127741Y-115612797D01*
X181910040Y-115702749D01*
X181824741Y-115787900D01*
X181788656Y-115787900D01*
X181759981Y-115743337D01*
X181662369Y-115676642D01*
X181546500Y-115653178D01*
X180403500Y-115653178D01*
X180295254Y-115673546D01*
X180195837Y-115737519D01*
X180129142Y-115835131D01*
X180105678Y-115951000D01*
X176421368Y-115951000D01*
X177459934Y-114912434D01*
X177550350Y-114777117D01*
X177569468Y-114681000D01*
X180105678Y-114681000D01*
X180105678Y-115189000D01*
X180126046Y-115297246D01*
X180190019Y-115396663D01*
X180287631Y-115463358D01*
X180403500Y-115486822D01*
X181546500Y-115486822D01*
X181654746Y-115466454D01*
X181754163Y-115402481D01*
X181788587Y-115352100D01*
X181824746Y-115352100D01*
X181909164Y-115436665D01*
X182126707Y-115526997D01*
X182362259Y-115527203D01*
X182579960Y-115437251D01*
X182746665Y-115270836D01*
X182836997Y-115053293D01*
X182837203Y-114817741D01*
X182747251Y-114600040D01*
X182580836Y-114433335D01*
X182363293Y-114343003D01*
X182127741Y-114342797D01*
X181910040Y-114432749D01*
X181824741Y-114517900D01*
X181788656Y-114517900D01*
X181759981Y-114473337D01*
X181662369Y-114406642D01*
X181546500Y-114383178D01*
X180403500Y-114383178D01*
X180295254Y-114403546D01*
X180195837Y-114467519D01*
X180129142Y-114565131D01*
X180105678Y-114681000D01*
X177569468Y-114681000D01*
X177582100Y-114617500D01*
X177582100Y-113411000D01*
X180105678Y-113411000D01*
X180105678Y-113919000D01*
X180126046Y-114027246D01*
X180190019Y-114126663D01*
X180287631Y-114193358D01*
X180403500Y-114216822D01*
X181546500Y-114216822D01*
X181654746Y-114196454D01*
X181754163Y-114132481D01*
X181788587Y-114082100D01*
X181824746Y-114082100D01*
X181909164Y-114166665D01*
X182126707Y-114256997D01*
X182362259Y-114257203D01*
X182579960Y-114167251D01*
X182746665Y-114000836D01*
X182836997Y-113783293D01*
X182837203Y-113547741D01*
X182747251Y-113330040D01*
X182580836Y-113163335D01*
X182363293Y-113073003D01*
X182127741Y-113072797D01*
X181910040Y-113162749D01*
X181824741Y-113247900D01*
X181788656Y-113247900D01*
X181759981Y-113203337D01*
X181662369Y-113136642D01*
X181546500Y-113113178D01*
X180403500Y-113113178D01*
X180295254Y-113133546D01*
X180195837Y-113197519D01*
X180129142Y-113295131D01*
X180105678Y-113411000D01*
X177582100Y-113411000D01*
X177582100Y-112607725D01*
X180060600Y-112607725D01*
X180060600Y-112717207D01*
X180112803Y-112843237D01*
X180209263Y-112939697D01*
X180335293Y-112991900D01*
X180724175Y-112991900D01*
X180809900Y-112906175D01*
X180809900Y-112522000D01*
X181140100Y-112522000D01*
X181140100Y-112906175D01*
X181225825Y-112991900D01*
X181614707Y-112991900D01*
X181740737Y-112939697D01*
X181837197Y-112843237D01*
X181889400Y-112717207D01*
X181889400Y-112607725D01*
X181803675Y-112522000D01*
X181140100Y-112522000D01*
X180809900Y-112522000D01*
X180146325Y-112522000D01*
X180060600Y-112607725D01*
X177582100Y-112607725D01*
X177582100Y-112072793D01*
X180060600Y-112072793D01*
X180060600Y-112182275D01*
X180146325Y-112268000D01*
X180809900Y-112268000D01*
X180809900Y-111883825D01*
X181140100Y-111883825D01*
X181140100Y-112268000D01*
X181803675Y-112268000D01*
X181889400Y-112182275D01*
X181889400Y-112072793D01*
X181837197Y-111946763D01*
X181740737Y-111850303D01*
X181614707Y-111798100D01*
X181225825Y-111798100D01*
X181140100Y-111883825D01*
X180809900Y-111883825D01*
X180724175Y-111798100D01*
X180335293Y-111798100D01*
X180209263Y-111850303D01*
X180112803Y-111946763D01*
X180060600Y-112072793D01*
X177582100Y-112072793D01*
X177582100Y-111160000D01*
X191892178Y-111160000D01*
X191892178Y-112360000D01*
X191912546Y-112468246D01*
X191976519Y-112567663D01*
X192074131Y-112634358D01*
X192190000Y-112657822D01*
X193890000Y-112657822D01*
X193998246Y-112637454D01*
X194097663Y-112573481D01*
X194164358Y-112475869D01*
X194187822Y-112360000D01*
X194187822Y-111160000D01*
X194167454Y-111051754D01*
X194103481Y-110952337D01*
X194005869Y-110885642D01*
X193890000Y-110862178D01*
X192190000Y-110862178D01*
X192081754Y-110882546D01*
X191982337Y-110946519D01*
X191915642Y-111044131D01*
X191892178Y-111160000D01*
X177582100Y-111160000D01*
X177582100Y-110289759D01*
X184510297Y-110289759D01*
X184600249Y-110507460D01*
X184766664Y-110674165D01*
X184984207Y-110764497D01*
X185219759Y-110764703D01*
X185437460Y-110674751D01*
X185525264Y-110587100D01*
X185549508Y-110587100D01*
X185552546Y-110603246D01*
X185616519Y-110702663D01*
X185714131Y-110769358D01*
X185830000Y-110792822D01*
X187390000Y-110792822D01*
X187498246Y-110772454D01*
X187597663Y-110708481D01*
X187664358Y-110610869D01*
X187687822Y-110495000D01*
X187687822Y-109845000D01*
X188232178Y-109845000D01*
X188232178Y-110495000D01*
X188252546Y-110603246D01*
X188316519Y-110702663D01*
X188414131Y-110769358D01*
X188530000Y-110792822D01*
X190090000Y-110792822D01*
X190198246Y-110772454D01*
X190292039Y-110712100D01*
X192629995Y-110712100D01*
X192630000Y-110712101D01*
X192817766Y-110674751D01*
X192837453Y-110670835D01*
X192865492Y-110652100D01*
X193312375Y-110652100D01*
X193653767Y-110584193D01*
X193943185Y-110390810D01*
X194136568Y-110101392D01*
X194204475Y-109760000D01*
X194136568Y-109418608D01*
X193943185Y-109129190D01*
X193653767Y-108935807D01*
X193312375Y-108867900D01*
X192767625Y-108867900D01*
X192426233Y-108935807D01*
X192136815Y-109129190D01*
X191943432Y-109418608D01*
X191901801Y-109627900D01*
X190289669Y-109627900D01*
X190205869Y-109570642D01*
X190090000Y-109547178D01*
X188530000Y-109547178D01*
X188421754Y-109567546D01*
X188322337Y-109631519D01*
X188255642Y-109729131D01*
X188232178Y-109845000D01*
X187687822Y-109845000D01*
X187669944Y-109749990D01*
X187680697Y-109739237D01*
X187732900Y-109613207D01*
X187732900Y-109468225D01*
X187647175Y-109382500D01*
X186775100Y-109382500D01*
X186775100Y-109405100D01*
X186444900Y-109405100D01*
X186444900Y-109382500D01*
X185572825Y-109382500D01*
X185487100Y-109468225D01*
X185487100Y-109613207D01*
X185539303Y-109739237D01*
X185551189Y-109751123D01*
X185550829Y-109752900D01*
X185520258Y-109752900D01*
X185438336Y-109670835D01*
X185220793Y-109580503D01*
X184985241Y-109580297D01*
X184767540Y-109670249D01*
X184600835Y-109836664D01*
X184510503Y-110054207D01*
X184510297Y-110289759D01*
X177582100Y-110289759D01*
X177582100Y-108384759D01*
X184510297Y-108384759D01*
X184600249Y-108602460D01*
X184766664Y-108769165D01*
X184984207Y-108859497D01*
X185219759Y-108859703D01*
X185437460Y-108769751D01*
X185520255Y-108687100D01*
X185549508Y-108687100D01*
X185550056Y-108690010D01*
X185539303Y-108700763D01*
X185487100Y-108826793D01*
X185487100Y-108971775D01*
X185572825Y-109057500D01*
X186444900Y-109057500D01*
X186444900Y-109034900D01*
X186775100Y-109034900D01*
X186775100Y-109057500D01*
X187647175Y-109057500D01*
X187732900Y-108971775D01*
X187732900Y-108826793D01*
X187680697Y-108700763D01*
X187668811Y-108688877D01*
X187687822Y-108595000D01*
X187687822Y-107945000D01*
X188232178Y-107945000D01*
X188232178Y-108595000D01*
X188252546Y-108703246D01*
X188316519Y-108802663D01*
X188414131Y-108869358D01*
X188530000Y-108892822D01*
X190090000Y-108892822D01*
X190198246Y-108872454D01*
X190292039Y-108812100D01*
X192529995Y-108812100D01*
X192530000Y-108812101D01*
X192703033Y-108777681D01*
X192737453Y-108770835D01*
X192913323Y-108653323D01*
X192914546Y-108652100D01*
X193312375Y-108652100D01*
X193653767Y-108584193D01*
X193943185Y-108390810D01*
X194136568Y-108101392D01*
X194204475Y-107760000D01*
X194136568Y-107418608D01*
X193943185Y-107129190D01*
X193653767Y-106935807D01*
X193312375Y-106867900D01*
X192767625Y-106867900D01*
X192426233Y-106935807D01*
X192136815Y-107129190D01*
X191943432Y-107418608D01*
X191881910Y-107727900D01*
X190289669Y-107727900D01*
X190205869Y-107670642D01*
X190090000Y-107647178D01*
X188530000Y-107647178D01*
X188421754Y-107667546D01*
X188322337Y-107731519D01*
X188255642Y-107829131D01*
X188232178Y-107945000D01*
X187687822Y-107945000D01*
X187667454Y-107836754D01*
X187603481Y-107737337D01*
X187505869Y-107670642D01*
X187390000Y-107647178D01*
X185830000Y-107647178D01*
X185721754Y-107667546D01*
X185622337Y-107731519D01*
X185555642Y-107829131D01*
X185550829Y-107852900D01*
X185525250Y-107852900D01*
X185438336Y-107765835D01*
X185220793Y-107675503D01*
X184985241Y-107675297D01*
X184767540Y-107765249D01*
X184600835Y-107931664D01*
X184510503Y-108149207D01*
X184510297Y-108384759D01*
X177582100Y-108384759D01*
X177582100Y-105209759D01*
X184510297Y-105209759D01*
X184600249Y-105427460D01*
X184766664Y-105594165D01*
X184984207Y-105684497D01*
X185219759Y-105684703D01*
X185437460Y-105594751D01*
X185525264Y-105507100D01*
X185549508Y-105507100D01*
X185552546Y-105523246D01*
X185616519Y-105622663D01*
X185714131Y-105689358D01*
X185830000Y-105712822D01*
X187390000Y-105712822D01*
X187498246Y-105692454D01*
X187597663Y-105628481D01*
X187664358Y-105530869D01*
X187687822Y-105415000D01*
X187687822Y-104765000D01*
X187669944Y-104669990D01*
X187680697Y-104659237D01*
X187732900Y-104533207D01*
X187732900Y-104388225D01*
X187647175Y-104302500D01*
X186775100Y-104302500D01*
X186775100Y-104325100D01*
X186444900Y-104325100D01*
X186444900Y-104302500D01*
X185572825Y-104302500D01*
X185487100Y-104388225D01*
X185487100Y-104533207D01*
X185539303Y-104659237D01*
X185551189Y-104671123D01*
X185550829Y-104672900D01*
X185520258Y-104672900D01*
X185438336Y-104590835D01*
X185220793Y-104500503D01*
X184985241Y-104500297D01*
X184767540Y-104590249D01*
X184600835Y-104756664D01*
X184510503Y-104974207D01*
X184510297Y-105209759D01*
X177582100Y-105209759D01*
X177582100Y-103304759D01*
X184510297Y-103304759D01*
X184600249Y-103522460D01*
X184766664Y-103689165D01*
X184984207Y-103779497D01*
X185219759Y-103779703D01*
X185437460Y-103689751D01*
X185520255Y-103607100D01*
X185549508Y-103607100D01*
X185550056Y-103610010D01*
X185539303Y-103620763D01*
X185487100Y-103746793D01*
X185487100Y-103891775D01*
X185572825Y-103977500D01*
X186444900Y-103977500D01*
X186444900Y-103954900D01*
X186775100Y-103954900D01*
X186775100Y-103977500D01*
X187647175Y-103977500D01*
X187732900Y-103891775D01*
X187732900Y-103746793D01*
X187680697Y-103620763D01*
X187668811Y-103608877D01*
X187687822Y-103515000D01*
X187687822Y-102865000D01*
X188232178Y-102865000D01*
X188232178Y-103515000D01*
X188252546Y-103623246D01*
X188316519Y-103722663D01*
X188414131Y-103789358D01*
X188530000Y-103812822D01*
X190090000Y-103812822D01*
X190198246Y-103792454D01*
X190292039Y-103732100D01*
X191881075Y-103732100D01*
X191875525Y-103760000D01*
X191943432Y-104101392D01*
X192136815Y-104390810D01*
X192372727Y-104548441D01*
X192370000Y-104547899D01*
X192369995Y-104547900D01*
X190289669Y-104547900D01*
X190205869Y-104490642D01*
X190090000Y-104467178D01*
X188530000Y-104467178D01*
X188421754Y-104487546D01*
X188322337Y-104551519D01*
X188255642Y-104649131D01*
X188232178Y-104765000D01*
X188232178Y-105415000D01*
X188252546Y-105523246D01*
X188316519Y-105622663D01*
X188414131Y-105689358D01*
X188530000Y-105712822D01*
X190090000Y-105712822D01*
X190198246Y-105692454D01*
X190292039Y-105632100D01*
X191900966Y-105632100D01*
X191875525Y-105760000D01*
X191943432Y-106101392D01*
X192136815Y-106390810D01*
X192426233Y-106584193D01*
X192767625Y-106652100D01*
X193312375Y-106652100D01*
X193653767Y-106584193D01*
X193943185Y-106390810D01*
X194136568Y-106101392D01*
X194204475Y-105760000D01*
X194136568Y-105418608D01*
X193943185Y-105129190D01*
X193653767Y-104935807D01*
X193312375Y-104867900D01*
X192914546Y-104867900D01*
X192753323Y-104706677D01*
X192702772Y-104672900D01*
X192630957Y-104624915D01*
X192767625Y-104652100D01*
X193312375Y-104652100D01*
X193653767Y-104584193D01*
X193943185Y-104390810D01*
X194136568Y-104101392D01*
X194204475Y-103760000D01*
X194136568Y-103418608D01*
X193943185Y-103129190D01*
X193653767Y-102935807D01*
X193312375Y-102867900D01*
X192914546Y-102867900D01*
X192853323Y-102806677D01*
X192799030Y-102770400D01*
X192677453Y-102689165D01*
X192643033Y-102682319D01*
X192470000Y-102647899D01*
X192469995Y-102647900D01*
X190289669Y-102647900D01*
X190205869Y-102590642D01*
X190090000Y-102567178D01*
X188530000Y-102567178D01*
X188421754Y-102587546D01*
X188322337Y-102651519D01*
X188255642Y-102749131D01*
X188232178Y-102865000D01*
X187687822Y-102865000D01*
X187667454Y-102756754D01*
X187603481Y-102657337D01*
X187505869Y-102590642D01*
X187390000Y-102567178D01*
X185830000Y-102567178D01*
X185721754Y-102587546D01*
X185622337Y-102651519D01*
X185555642Y-102749131D01*
X185550829Y-102772900D01*
X185525250Y-102772900D01*
X185438336Y-102685835D01*
X185220793Y-102595503D01*
X184985241Y-102595297D01*
X184767540Y-102685249D01*
X184600835Y-102851664D01*
X184510503Y-103069207D01*
X184510297Y-103304759D01*
X177582100Y-103304759D01*
X177582100Y-94840000D01*
X191892178Y-94840000D01*
X191892178Y-96040000D01*
X191912546Y-96148246D01*
X191976519Y-96247663D01*
X192074131Y-96314358D01*
X192190000Y-96337822D01*
X193890000Y-96337822D01*
X193998246Y-96317454D01*
X194097663Y-96253481D01*
X194164358Y-96155869D01*
X194187822Y-96040000D01*
X194187822Y-94840000D01*
X194167454Y-94731754D01*
X194103481Y-94632337D01*
X194005869Y-94565642D01*
X193890000Y-94542178D01*
X192190000Y-94542178D01*
X192081754Y-94562546D01*
X191982337Y-94626519D01*
X191915642Y-94724131D01*
X191892178Y-94840000D01*
X177582100Y-94840000D01*
X177582100Y-93779759D01*
X184510297Y-93779759D01*
X184600249Y-93997460D01*
X184766664Y-94164165D01*
X184984207Y-94254497D01*
X185219759Y-94254703D01*
X185437460Y-94164751D01*
X185525264Y-94077100D01*
X185549508Y-94077100D01*
X185552546Y-94093246D01*
X185616519Y-94192663D01*
X185714131Y-94259358D01*
X185830000Y-94282822D01*
X187390000Y-94282822D01*
X187498246Y-94262454D01*
X187597663Y-94198481D01*
X187664358Y-94100869D01*
X187687822Y-93985000D01*
X187687822Y-93335000D01*
X188232178Y-93335000D01*
X188232178Y-93985000D01*
X188252546Y-94093246D01*
X188316519Y-94192663D01*
X188414131Y-94259358D01*
X188530000Y-94282822D01*
X190090000Y-94282822D01*
X190198246Y-94262454D01*
X190292039Y-94202100D01*
X192333304Y-94202100D01*
X192426233Y-94264193D01*
X192767625Y-94332100D01*
X193312375Y-94332100D01*
X193653767Y-94264193D01*
X193943185Y-94070810D01*
X194136568Y-93781392D01*
X194204475Y-93440000D01*
X194136568Y-93098608D01*
X193943185Y-92809190D01*
X193653767Y-92615807D01*
X193312375Y-92547900D01*
X192767625Y-92547900D01*
X192426233Y-92615807D01*
X192136815Y-92809190D01*
X191943432Y-93098608D01*
X191939595Y-93117900D01*
X190289669Y-93117900D01*
X190205869Y-93060642D01*
X190090000Y-93037178D01*
X188530000Y-93037178D01*
X188421754Y-93057546D01*
X188322337Y-93121519D01*
X188255642Y-93219131D01*
X188232178Y-93335000D01*
X187687822Y-93335000D01*
X187669944Y-93239990D01*
X187680697Y-93229237D01*
X187732900Y-93103207D01*
X187732900Y-92958225D01*
X187647175Y-92872500D01*
X186775100Y-92872500D01*
X186775100Y-92895100D01*
X186444900Y-92895100D01*
X186444900Y-92872500D01*
X185572825Y-92872500D01*
X185487100Y-92958225D01*
X185487100Y-93103207D01*
X185539303Y-93229237D01*
X185551189Y-93241123D01*
X185550829Y-93242900D01*
X185520258Y-93242900D01*
X185438336Y-93160835D01*
X185220793Y-93070503D01*
X184985241Y-93070297D01*
X184767540Y-93160249D01*
X184600835Y-93326664D01*
X184510503Y-93544207D01*
X184510297Y-93779759D01*
X177582100Y-93779759D01*
X177582100Y-91750310D01*
X184634746Y-91750310D01*
X184724698Y-91968011D01*
X184891113Y-92134716D01*
X185108656Y-92225048D01*
X185344208Y-92225254D01*
X185460750Y-92177100D01*
X185549508Y-92177100D01*
X185550056Y-92180010D01*
X185539303Y-92190763D01*
X185487100Y-92316793D01*
X185487100Y-92461775D01*
X185572825Y-92547500D01*
X186444900Y-92547500D01*
X186444900Y-92524900D01*
X186775100Y-92524900D01*
X186775100Y-92547500D01*
X187647175Y-92547500D01*
X187732900Y-92461775D01*
X187732900Y-92316793D01*
X187680697Y-92190763D01*
X187668811Y-92178877D01*
X187687822Y-92085000D01*
X187687822Y-91435000D01*
X188232178Y-91435000D01*
X188232178Y-92085000D01*
X188252546Y-92193246D01*
X188316519Y-92292663D01*
X188414131Y-92359358D01*
X188530000Y-92382822D01*
X190090000Y-92382822D01*
X190198246Y-92362454D01*
X190292039Y-92302100D01*
X192616805Y-92302100D01*
X192767625Y-92332100D01*
X193312375Y-92332100D01*
X193653767Y-92264193D01*
X193943185Y-92070810D01*
X194136568Y-91781392D01*
X194204475Y-91440000D01*
X194136568Y-91098608D01*
X193943185Y-90809190D01*
X193653767Y-90615807D01*
X193312375Y-90547900D01*
X192767625Y-90547900D01*
X192426233Y-90615807D01*
X192136815Y-90809190D01*
X191943432Y-91098608D01*
X191919703Y-91217900D01*
X190289669Y-91217900D01*
X190205869Y-91160642D01*
X190090000Y-91137178D01*
X188530000Y-91137178D01*
X188421754Y-91157546D01*
X188322337Y-91221519D01*
X188255642Y-91319131D01*
X188232178Y-91435000D01*
X187687822Y-91435000D01*
X187667454Y-91326754D01*
X187603481Y-91227337D01*
X187505869Y-91160642D01*
X187390000Y-91137178D01*
X185830000Y-91137178D01*
X185721754Y-91157546D01*
X185640862Y-91209599D01*
X185562785Y-91131386D01*
X185345242Y-91041054D01*
X185109690Y-91040848D01*
X184891989Y-91130800D01*
X184725284Y-91297215D01*
X184634952Y-91514758D01*
X184634746Y-91750310D01*
X177582100Y-91750310D01*
X177582100Y-88011000D01*
X180105678Y-88011000D01*
X180105678Y-88519000D01*
X180126046Y-88627246D01*
X180190019Y-88726663D01*
X180287631Y-88793358D01*
X180403500Y-88816822D01*
X181546500Y-88816822D01*
X181654746Y-88796454D01*
X181754163Y-88732481D01*
X181788587Y-88682100D01*
X181824746Y-88682100D01*
X181909164Y-88766665D01*
X182126707Y-88856997D01*
X182362259Y-88857203D01*
X182579960Y-88767251D01*
X182647569Y-88699759D01*
X184510297Y-88699759D01*
X184600249Y-88917460D01*
X184766664Y-89084165D01*
X184984207Y-89174497D01*
X185219759Y-89174703D01*
X185437460Y-89084751D01*
X185525264Y-88997100D01*
X185549508Y-88997100D01*
X185552546Y-89013246D01*
X185616519Y-89112663D01*
X185714131Y-89179358D01*
X185830000Y-89202822D01*
X187390000Y-89202822D01*
X187498246Y-89182454D01*
X187597663Y-89118481D01*
X187664358Y-89020869D01*
X187687822Y-88905000D01*
X187687822Y-88255000D01*
X187669944Y-88159990D01*
X187680697Y-88149237D01*
X187732900Y-88023207D01*
X187732900Y-87878225D01*
X187647175Y-87792500D01*
X186775100Y-87792500D01*
X186775100Y-87815100D01*
X186444900Y-87815100D01*
X186444900Y-87792500D01*
X185572825Y-87792500D01*
X185487100Y-87878225D01*
X185487100Y-88023207D01*
X185539303Y-88149237D01*
X185551189Y-88161123D01*
X185550829Y-88162900D01*
X185520258Y-88162900D01*
X185438336Y-88080835D01*
X185220793Y-87990503D01*
X184985241Y-87990297D01*
X184767540Y-88080249D01*
X184600835Y-88246664D01*
X184510503Y-88464207D01*
X184510297Y-88699759D01*
X182647569Y-88699759D01*
X182746665Y-88600836D01*
X182836997Y-88383293D01*
X182837203Y-88147741D01*
X182747251Y-87930040D01*
X182580836Y-87763335D01*
X182363293Y-87673003D01*
X182127741Y-87672797D01*
X181910040Y-87762749D01*
X181824741Y-87847900D01*
X181788656Y-87847900D01*
X181759981Y-87803337D01*
X181662369Y-87736642D01*
X181546500Y-87713178D01*
X180403500Y-87713178D01*
X180295254Y-87733546D01*
X180195837Y-87797519D01*
X180129142Y-87895131D01*
X180105678Y-88011000D01*
X177582100Y-88011000D01*
X177582100Y-86741000D01*
X180105678Y-86741000D01*
X180105678Y-87249000D01*
X180126046Y-87357246D01*
X180190019Y-87456663D01*
X180287631Y-87523358D01*
X180403500Y-87546822D01*
X181546500Y-87546822D01*
X181654746Y-87526454D01*
X181754163Y-87462481D01*
X181788587Y-87412100D01*
X181824746Y-87412100D01*
X181909164Y-87496665D01*
X182126707Y-87586997D01*
X182362259Y-87587203D01*
X182579960Y-87497251D01*
X182746665Y-87330836D01*
X182836997Y-87113293D01*
X182837203Y-86877741D01*
X182802916Y-86794759D01*
X184510297Y-86794759D01*
X184600249Y-87012460D01*
X184766664Y-87179165D01*
X184984207Y-87269497D01*
X185219759Y-87269703D01*
X185437460Y-87179751D01*
X185520255Y-87097100D01*
X185549508Y-87097100D01*
X185550056Y-87100010D01*
X185539303Y-87110763D01*
X185487100Y-87236793D01*
X185487100Y-87381775D01*
X185572825Y-87467500D01*
X186444900Y-87467500D01*
X186444900Y-87444900D01*
X186775100Y-87444900D01*
X186775100Y-87467500D01*
X187647175Y-87467500D01*
X187732900Y-87381775D01*
X187732900Y-87236793D01*
X187680697Y-87110763D01*
X187668811Y-87098877D01*
X187687822Y-87005000D01*
X187687822Y-86355000D01*
X188232178Y-86355000D01*
X188232178Y-87005000D01*
X188252546Y-87113246D01*
X188316519Y-87212663D01*
X188414131Y-87279358D01*
X188530000Y-87302822D01*
X190090000Y-87302822D01*
X190198246Y-87282454D01*
X190292039Y-87222100D01*
X191918868Y-87222100D01*
X191875525Y-87440000D01*
X191943432Y-87781392D01*
X192114825Y-88037900D01*
X190289669Y-88037900D01*
X190205869Y-87980642D01*
X190090000Y-87957178D01*
X188530000Y-87957178D01*
X188421754Y-87977546D01*
X188322337Y-88041519D01*
X188255642Y-88139131D01*
X188232178Y-88255000D01*
X188232178Y-88905000D01*
X188252546Y-89013246D01*
X188316519Y-89112663D01*
X188414131Y-89179358D01*
X188530000Y-89202822D01*
X190090000Y-89202822D01*
X190198246Y-89182454D01*
X190292039Y-89122100D01*
X191938759Y-89122100D01*
X191875525Y-89440000D01*
X191943432Y-89781392D01*
X192136815Y-90070810D01*
X192426233Y-90264193D01*
X192767625Y-90332100D01*
X193312375Y-90332100D01*
X193653767Y-90264193D01*
X193943185Y-90070810D01*
X194136568Y-89781392D01*
X194204475Y-89440000D01*
X194136568Y-89098608D01*
X193943185Y-88809190D01*
X193653767Y-88615807D01*
X193312375Y-88547900D01*
X192914546Y-88547900D01*
X192681643Y-88314997D01*
X192767625Y-88332100D01*
X193312375Y-88332100D01*
X193653767Y-88264193D01*
X193943185Y-88070810D01*
X194136568Y-87781392D01*
X194204475Y-87440000D01*
X194136568Y-87098608D01*
X193943185Y-86809190D01*
X193653767Y-86615807D01*
X193312375Y-86547900D01*
X192914546Y-86547900D01*
X192663323Y-86296677D01*
X192609030Y-86260400D01*
X192487453Y-86179165D01*
X192453033Y-86172319D01*
X192280000Y-86137899D01*
X192279995Y-86137900D01*
X190289669Y-86137900D01*
X190205869Y-86080642D01*
X190090000Y-86057178D01*
X188530000Y-86057178D01*
X188421754Y-86077546D01*
X188322337Y-86141519D01*
X188255642Y-86239131D01*
X188232178Y-86355000D01*
X187687822Y-86355000D01*
X187667454Y-86246754D01*
X187603481Y-86147337D01*
X187505869Y-86080642D01*
X187390000Y-86057178D01*
X185830000Y-86057178D01*
X185721754Y-86077546D01*
X185622337Y-86141519D01*
X185555642Y-86239131D01*
X185550829Y-86262900D01*
X185525250Y-86262900D01*
X185438336Y-86175835D01*
X185220793Y-86085503D01*
X184985241Y-86085297D01*
X184767540Y-86175249D01*
X184600835Y-86341664D01*
X184510503Y-86559207D01*
X184510297Y-86794759D01*
X182802916Y-86794759D01*
X182747251Y-86660040D01*
X182580836Y-86493335D01*
X182363293Y-86403003D01*
X182127741Y-86402797D01*
X181910040Y-86492749D01*
X181824741Y-86577900D01*
X181788656Y-86577900D01*
X181759981Y-86533337D01*
X181662369Y-86466642D01*
X181546500Y-86443178D01*
X180403500Y-86443178D01*
X180295254Y-86463546D01*
X180195837Y-86527519D01*
X180129142Y-86625131D01*
X180105678Y-86741000D01*
X177582100Y-86741000D01*
X177582100Y-85471000D01*
X180105678Y-85471000D01*
X180105678Y-85979000D01*
X180126046Y-86087246D01*
X180190019Y-86186663D01*
X180287631Y-86253358D01*
X180403500Y-86276822D01*
X181546500Y-86276822D01*
X181654746Y-86256454D01*
X181754163Y-86192481D01*
X181788587Y-86142100D01*
X181824746Y-86142100D01*
X181909164Y-86226665D01*
X182126707Y-86316997D01*
X182362259Y-86317203D01*
X182579960Y-86227251D01*
X182746665Y-86060836D01*
X182836997Y-85843293D01*
X182837203Y-85607741D01*
X182747251Y-85390040D01*
X182580836Y-85223335D01*
X182363293Y-85133003D01*
X182127741Y-85132797D01*
X181910040Y-85222749D01*
X181824741Y-85307900D01*
X181788656Y-85307900D01*
X181759981Y-85263337D01*
X181662369Y-85196642D01*
X181546500Y-85173178D01*
X180403500Y-85173178D01*
X180295254Y-85193546D01*
X180195837Y-85257519D01*
X180129142Y-85355131D01*
X180105678Y-85471000D01*
X177582100Y-85471000D01*
X177582100Y-84201000D01*
X180105678Y-84201000D01*
X180105678Y-84709000D01*
X180126046Y-84817246D01*
X180190019Y-84916663D01*
X180287631Y-84983358D01*
X180403500Y-85006822D01*
X181546500Y-85006822D01*
X181654746Y-84986454D01*
X181754163Y-84922481D01*
X181788587Y-84872100D01*
X181824746Y-84872100D01*
X181909164Y-84956665D01*
X182126707Y-85046997D01*
X182362259Y-85047203D01*
X182579960Y-84957251D01*
X182746665Y-84790836D01*
X182836997Y-84573293D01*
X182837203Y-84337741D01*
X182747251Y-84120040D01*
X182580836Y-83953335D01*
X182363293Y-83863003D01*
X182127741Y-83862797D01*
X181910040Y-83952749D01*
X181824741Y-84037900D01*
X181788656Y-84037900D01*
X181759981Y-83993337D01*
X181662369Y-83926642D01*
X181546500Y-83903178D01*
X180403500Y-83903178D01*
X180295254Y-83923546D01*
X180195837Y-83987519D01*
X180129142Y-84085131D01*
X180105678Y-84201000D01*
X177582100Y-84201000D01*
X177582100Y-82931000D01*
X180105678Y-82931000D01*
X180105678Y-83439000D01*
X180126046Y-83547246D01*
X180190019Y-83646663D01*
X180287631Y-83713358D01*
X180403500Y-83736822D01*
X181546500Y-83736822D01*
X181654746Y-83716454D01*
X181754163Y-83652481D01*
X181788587Y-83602100D01*
X181824746Y-83602100D01*
X181909164Y-83686665D01*
X182126707Y-83776997D01*
X182362259Y-83777203D01*
X182579960Y-83687251D01*
X182746665Y-83520836D01*
X182836997Y-83303293D01*
X182837203Y-83067741D01*
X182747251Y-82850040D01*
X182580836Y-82683335D01*
X182363293Y-82593003D01*
X182127741Y-82592797D01*
X181910040Y-82682749D01*
X181824741Y-82767900D01*
X181788656Y-82767900D01*
X181759981Y-82723337D01*
X181662369Y-82656642D01*
X181546500Y-82633178D01*
X180403500Y-82633178D01*
X180295254Y-82653546D01*
X180195837Y-82717519D01*
X180129142Y-82815131D01*
X180105678Y-82931000D01*
X177582100Y-82931000D01*
X177582100Y-81661000D01*
X180105678Y-81661000D01*
X180105678Y-82169000D01*
X180126046Y-82277246D01*
X180190019Y-82376663D01*
X180287631Y-82443358D01*
X180403500Y-82466822D01*
X181546500Y-82466822D01*
X181654746Y-82446454D01*
X181754163Y-82382481D01*
X181788587Y-82332100D01*
X181824746Y-82332100D01*
X181909164Y-82416665D01*
X182126707Y-82506997D01*
X182362259Y-82507203D01*
X182579960Y-82417251D01*
X182746665Y-82250836D01*
X182836997Y-82033293D01*
X182837203Y-81797741D01*
X182747251Y-81580040D01*
X182580836Y-81413335D01*
X182363293Y-81323003D01*
X182127741Y-81322797D01*
X181910040Y-81412749D01*
X181824741Y-81497900D01*
X181788656Y-81497900D01*
X181759981Y-81453337D01*
X181662369Y-81386642D01*
X181546500Y-81363178D01*
X180403500Y-81363178D01*
X180295254Y-81383546D01*
X180195837Y-81447519D01*
X180129142Y-81545131D01*
X180105678Y-81661000D01*
X177582100Y-81661000D01*
X177582100Y-80391000D01*
X180105678Y-80391000D01*
X180105678Y-80899000D01*
X180126046Y-81007246D01*
X180190019Y-81106663D01*
X180287631Y-81173358D01*
X180403500Y-81196822D01*
X181546500Y-81196822D01*
X181654746Y-81176454D01*
X181754163Y-81112481D01*
X181788587Y-81062100D01*
X181824746Y-81062100D01*
X181909164Y-81146665D01*
X182126707Y-81236997D01*
X182362259Y-81237203D01*
X182579960Y-81147251D01*
X182746665Y-80980836D01*
X182836997Y-80763293D01*
X182837203Y-80527741D01*
X182747251Y-80310040D01*
X182580836Y-80143335D01*
X182363293Y-80053003D01*
X182127741Y-80052797D01*
X181910040Y-80142749D01*
X181824741Y-80227900D01*
X181788656Y-80227900D01*
X181759981Y-80183337D01*
X181662369Y-80116642D01*
X181546500Y-80093178D01*
X180403500Y-80093178D01*
X180295254Y-80113546D01*
X180195837Y-80177519D01*
X180129142Y-80275131D01*
X180105678Y-80391000D01*
X177582100Y-80391000D01*
X177582100Y-79587725D01*
X180060600Y-79587725D01*
X180060600Y-79697207D01*
X180112803Y-79823237D01*
X180209263Y-79919697D01*
X180335293Y-79971900D01*
X180724175Y-79971900D01*
X180809900Y-79886175D01*
X180809900Y-79502000D01*
X181140100Y-79502000D01*
X181140100Y-79886175D01*
X181225825Y-79971900D01*
X181614707Y-79971900D01*
X181740737Y-79919697D01*
X181837197Y-79823237D01*
X181889400Y-79697207D01*
X181889400Y-79587725D01*
X181803675Y-79502000D01*
X181140100Y-79502000D01*
X180809900Y-79502000D01*
X180146325Y-79502000D01*
X180060600Y-79587725D01*
X177582100Y-79587725D01*
X177582100Y-79052793D01*
X180060600Y-79052793D01*
X180060600Y-79162275D01*
X180146325Y-79248000D01*
X180809900Y-79248000D01*
X180809900Y-78863825D01*
X181140100Y-78863825D01*
X181140100Y-79248000D01*
X181803675Y-79248000D01*
X181889400Y-79162275D01*
X181889400Y-79052793D01*
X181837197Y-78926763D01*
X181740737Y-78830303D01*
X181614707Y-78778100D01*
X181225825Y-78778100D01*
X181140100Y-78863825D01*
X180809900Y-78863825D01*
X180724175Y-78778100D01*
X180335293Y-78778100D01*
X180209263Y-78830303D01*
X180112803Y-78926763D01*
X180060600Y-79052793D01*
X177582100Y-79052793D01*
X177582100Y-78330000D01*
X191892178Y-78330000D01*
X191892178Y-79530000D01*
X191912546Y-79638246D01*
X191976519Y-79737663D01*
X192074131Y-79804358D01*
X192190000Y-79827822D01*
X193890000Y-79827822D01*
X193998246Y-79807454D01*
X194097663Y-79743481D01*
X194164358Y-79645869D01*
X194187822Y-79530000D01*
X194187822Y-78330000D01*
X194167454Y-78221754D01*
X194103481Y-78122337D01*
X194005869Y-78055642D01*
X193890000Y-78032178D01*
X192190000Y-78032178D01*
X192081754Y-78052546D01*
X191982337Y-78116519D01*
X191915642Y-78214131D01*
X191892178Y-78330000D01*
X177582100Y-78330000D01*
X177582100Y-77269759D01*
X184510297Y-77269759D01*
X184600249Y-77487460D01*
X184766664Y-77654165D01*
X184984207Y-77744497D01*
X185219759Y-77744703D01*
X185437460Y-77654751D01*
X185525264Y-77567100D01*
X185549508Y-77567100D01*
X185552546Y-77583246D01*
X185616519Y-77682663D01*
X185714131Y-77749358D01*
X185830000Y-77772822D01*
X187390000Y-77772822D01*
X187498246Y-77752454D01*
X187597663Y-77688481D01*
X187664358Y-77590869D01*
X187687822Y-77475000D01*
X187687822Y-76825000D01*
X188232178Y-76825000D01*
X188232178Y-77475000D01*
X188252546Y-77583246D01*
X188316519Y-77682663D01*
X188414131Y-77749358D01*
X188530000Y-77772822D01*
X190090000Y-77772822D01*
X190198246Y-77752454D01*
X190292039Y-77692100D01*
X192333304Y-77692100D01*
X192426233Y-77754193D01*
X192767625Y-77822100D01*
X193312375Y-77822100D01*
X193653767Y-77754193D01*
X193943185Y-77560810D01*
X194136568Y-77271392D01*
X194204475Y-76930000D01*
X194136568Y-76588608D01*
X193943185Y-76299190D01*
X193653767Y-76105807D01*
X193312375Y-76037900D01*
X192767625Y-76037900D01*
X192426233Y-76105807D01*
X192136815Y-76299190D01*
X191943432Y-76588608D01*
X191939595Y-76607900D01*
X190289669Y-76607900D01*
X190205869Y-76550642D01*
X190090000Y-76527178D01*
X188530000Y-76527178D01*
X188421754Y-76547546D01*
X188322337Y-76611519D01*
X188255642Y-76709131D01*
X188232178Y-76825000D01*
X187687822Y-76825000D01*
X187669944Y-76729990D01*
X187680697Y-76719237D01*
X187732900Y-76593207D01*
X187732900Y-76448225D01*
X187647175Y-76362500D01*
X186775100Y-76362500D01*
X186775100Y-76385100D01*
X186444900Y-76385100D01*
X186444900Y-76362500D01*
X185572825Y-76362500D01*
X185487100Y-76448225D01*
X185487100Y-76593207D01*
X185539303Y-76719237D01*
X185551189Y-76731123D01*
X185550829Y-76732900D01*
X185520258Y-76732900D01*
X185438336Y-76650835D01*
X185220793Y-76560503D01*
X184985241Y-76560297D01*
X184767540Y-76650249D01*
X184600835Y-76816664D01*
X184510503Y-77034207D01*
X184510297Y-77269759D01*
X177582100Y-77269759D01*
X177582100Y-75364759D01*
X184510297Y-75364759D01*
X184600249Y-75582460D01*
X184766664Y-75749165D01*
X184984207Y-75839497D01*
X185219759Y-75839703D01*
X185437460Y-75749751D01*
X185520255Y-75667100D01*
X185549508Y-75667100D01*
X185550056Y-75670010D01*
X185539303Y-75680763D01*
X185487100Y-75806793D01*
X185487100Y-75951775D01*
X185572825Y-76037500D01*
X186444900Y-76037500D01*
X186444900Y-76014900D01*
X186775100Y-76014900D01*
X186775100Y-76037500D01*
X187647175Y-76037500D01*
X187732900Y-75951775D01*
X187732900Y-75806793D01*
X187680697Y-75680763D01*
X187668811Y-75668877D01*
X187687822Y-75575000D01*
X187687822Y-74925000D01*
X188232178Y-74925000D01*
X188232178Y-75575000D01*
X188252546Y-75683246D01*
X188316519Y-75782663D01*
X188414131Y-75849358D01*
X188530000Y-75872822D01*
X190090000Y-75872822D01*
X190198246Y-75852454D01*
X190292039Y-75792100D01*
X192616805Y-75792100D01*
X192767625Y-75822100D01*
X193312375Y-75822100D01*
X193653767Y-75754193D01*
X193943185Y-75560810D01*
X194136568Y-75271392D01*
X194204475Y-74930000D01*
X194136568Y-74588608D01*
X193943185Y-74299190D01*
X193653767Y-74105807D01*
X193312375Y-74037900D01*
X192767625Y-74037900D01*
X192426233Y-74105807D01*
X192136815Y-74299190D01*
X191943432Y-74588608D01*
X191919703Y-74707900D01*
X190289669Y-74707900D01*
X190205869Y-74650642D01*
X190090000Y-74627178D01*
X188530000Y-74627178D01*
X188421754Y-74647546D01*
X188322337Y-74711519D01*
X188255642Y-74809131D01*
X188232178Y-74925000D01*
X187687822Y-74925000D01*
X187667454Y-74816754D01*
X187603481Y-74717337D01*
X187505869Y-74650642D01*
X187390000Y-74627178D01*
X185830000Y-74627178D01*
X185721754Y-74647546D01*
X185622337Y-74711519D01*
X185555642Y-74809131D01*
X185550829Y-74832900D01*
X185525250Y-74832900D01*
X185438336Y-74745835D01*
X185220793Y-74655503D01*
X184985241Y-74655297D01*
X184767540Y-74745249D01*
X184600835Y-74911664D01*
X184510503Y-75129207D01*
X184510297Y-75364759D01*
X177582100Y-75364759D01*
X177582100Y-72189759D01*
X184510297Y-72189759D01*
X184600249Y-72407460D01*
X184766664Y-72574165D01*
X184984207Y-72664497D01*
X185219759Y-72664703D01*
X185437460Y-72574751D01*
X185525264Y-72487100D01*
X185549508Y-72487100D01*
X185552546Y-72503246D01*
X185616519Y-72602663D01*
X185714131Y-72669358D01*
X185830000Y-72692822D01*
X187390000Y-72692822D01*
X187498246Y-72672454D01*
X187597663Y-72608481D01*
X187664358Y-72510869D01*
X187687822Y-72395000D01*
X187687822Y-71745000D01*
X187669944Y-71649990D01*
X187680697Y-71639237D01*
X187732900Y-71513207D01*
X187732900Y-71368225D01*
X187647175Y-71282500D01*
X186775100Y-71282500D01*
X186775100Y-71305100D01*
X186444900Y-71305100D01*
X186444900Y-71282500D01*
X185572825Y-71282500D01*
X185487100Y-71368225D01*
X185487100Y-71513207D01*
X185539303Y-71639237D01*
X185551189Y-71651123D01*
X185550829Y-71652900D01*
X185520258Y-71652900D01*
X185438336Y-71570835D01*
X185220793Y-71480503D01*
X184985241Y-71480297D01*
X184767540Y-71570249D01*
X184600835Y-71736664D01*
X184510503Y-71954207D01*
X184510297Y-72189759D01*
X177582100Y-72189759D01*
X177582100Y-70284759D01*
X184510297Y-70284759D01*
X184600249Y-70502460D01*
X184766664Y-70669165D01*
X184984207Y-70759497D01*
X185219759Y-70759703D01*
X185437460Y-70669751D01*
X185520255Y-70587100D01*
X185549508Y-70587100D01*
X185550056Y-70590010D01*
X185539303Y-70600763D01*
X185487100Y-70726793D01*
X185487100Y-70871775D01*
X185572825Y-70957500D01*
X186444900Y-70957500D01*
X186444900Y-70934900D01*
X186775100Y-70934900D01*
X186775100Y-70957500D01*
X187647175Y-70957500D01*
X187732900Y-70871775D01*
X187732900Y-70726793D01*
X187680697Y-70600763D01*
X187668811Y-70588877D01*
X187687822Y-70495000D01*
X187687822Y-69845000D01*
X188232178Y-69845000D01*
X188232178Y-70495000D01*
X188252546Y-70603246D01*
X188316519Y-70702663D01*
X188414131Y-70769358D01*
X188530000Y-70792822D01*
X190090000Y-70792822D01*
X190198246Y-70772454D01*
X190292039Y-70712100D01*
X191918868Y-70712100D01*
X191875525Y-70930000D01*
X191943432Y-71271392D01*
X192114825Y-71527900D01*
X190289669Y-71527900D01*
X190205869Y-71470642D01*
X190090000Y-71447178D01*
X188530000Y-71447178D01*
X188421754Y-71467546D01*
X188322337Y-71531519D01*
X188255642Y-71629131D01*
X188232178Y-71745000D01*
X188232178Y-72395000D01*
X188252546Y-72503246D01*
X188316519Y-72602663D01*
X188414131Y-72669358D01*
X188530000Y-72692822D01*
X190090000Y-72692822D01*
X190198246Y-72672454D01*
X190292039Y-72612100D01*
X191938759Y-72612100D01*
X191875525Y-72930000D01*
X191943432Y-73271392D01*
X192136815Y-73560810D01*
X192426233Y-73754193D01*
X192767625Y-73822100D01*
X193312375Y-73822100D01*
X193653767Y-73754193D01*
X193943185Y-73560810D01*
X194136568Y-73271392D01*
X194204475Y-72930000D01*
X194136568Y-72588608D01*
X193943185Y-72299190D01*
X193653767Y-72105807D01*
X193312375Y-72037900D01*
X192914546Y-72037900D01*
X192681643Y-71804997D01*
X192767625Y-71822100D01*
X193312375Y-71822100D01*
X193653767Y-71754193D01*
X193943185Y-71560810D01*
X194136568Y-71271392D01*
X194204475Y-70930000D01*
X194136568Y-70588608D01*
X193943185Y-70299190D01*
X193653767Y-70105807D01*
X193312375Y-70037900D01*
X192914546Y-70037900D01*
X192663323Y-69786677D01*
X192609030Y-69750400D01*
X192487453Y-69669165D01*
X192453033Y-69662319D01*
X192280000Y-69627899D01*
X192279995Y-69627900D01*
X190289669Y-69627900D01*
X190205869Y-69570642D01*
X190090000Y-69547178D01*
X188530000Y-69547178D01*
X188421754Y-69567546D01*
X188322337Y-69631519D01*
X188255642Y-69729131D01*
X188232178Y-69845000D01*
X187687822Y-69845000D01*
X187667454Y-69736754D01*
X187603481Y-69637337D01*
X187505869Y-69570642D01*
X187390000Y-69547178D01*
X185830000Y-69547178D01*
X185721754Y-69567546D01*
X185622337Y-69631519D01*
X185555642Y-69729131D01*
X185550829Y-69752900D01*
X185525250Y-69752900D01*
X185438336Y-69665835D01*
X185220793Y-69575503D01*
X184985241Y-69575297D01*
X184767540Y-69665249D01*
X184600835Y-69831664D01*
X184510503Y-70049207D01*
X184510297Y-70284759D01*
X177582100Y-70284759D01*
X177582100Y-70022768D01*
X179364934Y-68239934D01*
X179455350Y-68104617D01*
X179487100Y-67945000D01*
X179487100Y-67720982D01*
X179700810Y-67578185D01*
X179894193Y-67288767D01*
X179962100Y-66947375D01*
X179962100Y-66402625D01*
X179894193Y-66061233D01*
X179797880Y-65917090D01*
X179972222Y-65917090D01*
X180224331Y-66169199D01*
X180177900Y-66402625D01*
X180177900Y-66947375D01*
X180245807Y-67288767D01*
X180439190Y-67578185D01*
X180728608Y-67771568D01*
X181070000Y-67839475D01*
X181411392Y-67771568D01*
X181700810Y-67578185D01*
X181894193Y-67288767D01*
X181962100Y-66947375D01*
X181962100Y-66402625D01*
X181894193Y-66061233D01*
X181700810Y-65771815D01*
X181411392Y-65578432D01*
X181070000Y-65510525D01*
X180799249Y-65564381D01*
X180701947Y-65467079D01*
X181522211Y-65467079D01*
X182172178Y-66117046D01*
X182172178Y-67525000D01*
X182192546Y-67633246D01*
X182256519Y-67732663D01*
X182354131Y-67799358D01*
X182470000Y-67822822D01*
X183670000Y-67822822D01*
X183778246Y-67802454D01*
X183877663Y-67738481D01*
X183944358Y-67640869D01*
X183967822Y-67525000D01*
X183967822Y-65825000D01*
X183947454Y-65716754D01*
X183931252Y-65691574D01*
X191507295Y-65691574D01*
X192037816Y-66975531D01*
X193019302Y-67958732D01*
X194302331Y-68491492D01*
X195691574Y-68492705D01*
X196975531Y-67962184D01*
X197958732Y-66980698D01*
X198491492Y-65697669D01*
X198492705Y-64308426D01*
X197962184Y-63024469D01*
X196980698Y-62041268D01*
X195697669Y-61508508D01*
X194308426Y-61507295D01*
X193024469Y-62037816D01*
X192041268Y-63019302D01*
X191508508Y-64302331D01*
X191507295Y-65691574D01*
X183931252Y-65691574D01*
X183883481Y-65617337D01*
X183785869Y-65550642D01*
X183670000Y-65527178D01*
X182762046Y-65527178D01*
X181989913Y-64755045D01*
X181854596Y-64664629D01*
X181694979Y-64632879D01*
X177136860Y-64632879D01*
X176977243Y-64664629D01*
X176841926Y-64755045D01*
X175781567Y-65815404D01*
X175697254Y-65706099D01*
X175378291Y-65533924D01*
X175235100Y-65583875D01*
X175235100Y-66509900D01*
X175255100Y-66509900D01*
X175255100Y-66840100D01*
X175235100Y-66840100D01*
X175235100Y-66860100D01*
X174904900Y-66860100D01*
X174904900Y-66840100D01*
X174205431Y-66840100D01*
X174118124Y-66989804D01*
X174215381Y-67349138D01*
X174442746Y-67643901D01*
X174761709Y-67816076D01*
X174904898Y-67766126D01*
X174904898Y-67808395D01*
X174550393Y-68162900D01*
X168765268Y-68162900D01*
X168437100Y-67834732D01*
X168437100Y-67822822D01*
X168620000Y-67822822D01*
X168728246Y-67802454D01*
X168827663Y-67738481D01*
X168894358Y-67640869D01*
X168917822Y-67525000D01*
X168917822Y-66360196D01*
X174118124Y-66360196D01*
X174205431Y-66509900D01*
X174904900Y-66509900D01*
X174904900Y-65583875D01*
X174761709Y-65533924D01*
X174442746Y-65706099D01*
X174215381Y-66000862D01*
X174118124Y-66360196D01*
X168917822Y-66360196D01*
X168917822Y-65825000D01*
X168897454Y-65716754D01*
X168833481Y-65617337D01*
X168735869Y-65550642D01*
X168620000Y-65527178D01*
X167420000Y-65527178D01*
X167311754Y-65547546D01*
X167212337Y-65611519D01*
X167145642Y-65709131D01*
X167122178Y-65825000D01*
X167122178Y-67525000D01*
X167127301Y-67552227D01*
X167005000Y-67527900D01*
X166684409Y-67527900D01*
X166844193Y-67288767D01*
X166912100Y-66947375D01*
X166912100Y-66402625D01*
X166844193Y-66061233D01*
X166650810Y-65771815D01*
X166361392Y-65578432D01*
X166020000Y-65510525D01*
X165678608Y-65578432D01*
X165389190Y-65771815D01*
X165195807Y-66061233D01*
X165127900Y-66402625D01*
X165127900Y-66947375D01*
X165195807Y-67288767D01*
X165355591Y-67527900D01*
X164684409Y-67527900D01*
X164844193Y-67288767D01*
X164912100Y-66947375D01*
X164912100Y-66402625D01*
X164844193Y-66061233D01*
X164650810Y-65771815D01*
X164361392Y-65578432D01*
X164020000Y-65510525D01*
X163678608Y-65578432D01*
X163389190Y-65771815D01*
X163195807Y-66061233D01*
X163127900Y-66402625D01*
X163127900Y-66947375D01*
X163195807Y-67288767D01*
X163355591Y-67527900D01*
X163212768Y-67527900D01*
X162865669Y-67180801D01*
X162912100Y-66947375D01*
X162912100Y-66402625D01*
X162844193Y-66061233D01*
X162650810Y-65771815D01*
X162361392Y-65578432D01*
X162020000Y-65510525D01*
X161678608Y-65578432D01*
X161389190Y-65771815D01*
X161195807Y-66061233D01*
X161127900Y-66402625D01*
X161127900Y-66947375D01*
X161195807Y-67288767D01*
X161389190Y-67578185D01*
X161678608Y-67771568D01*
X162020000Y-67839475D01*
X162290751Y-67785619D01*
X162745066Y-68239934D01*
X162880383Y-68330350D01*
X163040000Y-68362100D01*
X166832232Y-68362100D01*
X167795077Y-69324945D01*
X167930393Y-69415361D01*
X167956875Y-69420629D01*
X168090011Y-69447111D01*
X174964989Y-69447111D01*
X175124606Y-69415361D01*
X175259923Y-69324945D01*
X176799249Y-67785619D01*
X177070000Y-67839475D01*
X177411392Y-67771568D01*
X177700810Y-67578185D01*
X177727890Y-67537657D01*
X177727890Y-68060831D01*
X176233655Y-69555066D01*
X176143239Y-69690383D01*
X176111489Y-69850000D01*
X176111489Y-78886143D01*
X176039732Y-78957900D01*
X175438656Y-78957900D01*
X175409981Y-78913337D01*
X175312369Y-78846642D01*
X175196500Y-78823178D01*
X174053500Y-78823178D01*
X173945254Y-78843546D01*
X173845837Y-78907519D01*
X173779142Y-79005131D01*
X173755678Y-79121000D01*
X173755678Y-79629000D01*
X173776046Y-79737246D01*
X173840019Y-79836663D01*
X173937631Y-79903358D01*
X174053500Y-79926822D01*
X175196500Y-79926822D01*
X175304746Y-79906454D01*
X175404163Y-79842481D01*
X175438587Y-79792100D01*
X176212500Y-79792100D01*
X176372117Y-79760350D01*
X176507434Y-79669934D01*
X176747900Y-79429468D01*
X176747900Y-82037529D01*
X175751435Y-81041065D01*
X175616118Y-80950649D01*
X175488984Y-80925360D01*
X175494322Y-80899000D01*
X175494322Y-80391000D01*
X175473954Y-80282754D01*
X175409981Y-80183337D01*
X175312369Y-80116642D01*
X175196500Y-80093178D01*
X174053500Y-80093178D01*
X173945254Y-80113546D01*
X173845837Y-80177519D01*
X173811413Y-80227900D01*
X173775254Y-80227900D01*
X173690836Y-80143335D01*
X173473293Y-80053003D01*
X173237741Y-80052797D01*
X173020040Y-80142749D01*
X172853335Y-80309164D01*
X172763003Y-80526707D01*
X172762797Y-80762259D01*
X172852749Y-80979960D01*
X173019164Y-81146665D01*
X173236707Y-81236997D01*
X173346015Y-81237093D01*
X173343149Y-81241382D01*
X173311399Y-81400999D01*
X173311399Y-82605999D01*
X173343149Y-82765616D01*
X173433565Y-82900933D01*
X173755678Y-83223046D01*
X173755678Y-83439000D01*
X173776046Y-83547246D01*
X173840019Y-83646663D01*
X173937631Y-83713358D01*
X174053500Y-83736822D01*
X175196500Y-83736822D01*
X175304746Y-83716454D01*
X175404163Y-83652481D01*
X175470858Y-83554869D01*
X175494322Y-83439000D01*
X175494322Y-83056690D01*
X175937901Y-83500269D01*
X175937797Y-83619759D01*
X176027749Y-83837460D01*
X176112900Y-83922759D01*
X176112900Y-87575531D01*
X175494322Y-86956954D01*
X175494322Y-86741000D01*
X175473954Y-86632754D01*
X175409981Y-86533337D01*
X175312369Y-86466642D01*
X175196500Y-86443178D01*
X174053500Y-86443178D01*
X173945254Y-86463546D01*
X173845837Y-86527519D01*
X173779142Y-86625131D01*
X173772100Y-86659906D01*
X173772100Y-86532768D01*
X174032333Y-86272536D01*
X174053500Y-86276822D01*
X175196500Y-86276822D01*
X175304746Y-86256454D01*
X175404163Y-86192481D01*
X175470858Y-86094869D01*
X175494322Y-85979000D01*
X175494322Y-85471000D01*
X175473954Y-85362754D01*
X175409981Y-85263337D01*
X175312369Y-85196642D01*
X175196500Y-85173178D01*
X174053500Y-85173178D01*
X173945254Y-85193546D01*
X173845837Y-85257519D01*
X173779142Y-85355131D01*
X173774749Y-85376823D01*
X173695066Y-85430065D01*
X173060066Y-86065066D01*
X172969650Y-86200383D01*
X172937900Y-86360000D01*
X172937900Y-87139731D01*
X172425067Y-87652565D01*
X172425066Y-87652566D01*
X172334650Y-87787883D01*
X172302900Y-87947500D01*
X172302900Y-88582500D01*
X172334650Y-88742117D01*
X172425066Y-88877434D01*
X173060066Y-89512435D01*
X173195383Y-89602850D01*
X173355000Y-89634600D01*
X174452232Y-89634600D01*
X175477900Y-90660268D01*
X175477900Y-111773732D01*
X175355512Y-111896120D01*
X175312369Y-111866642D01*
X175196500Y-111843178D01*
X174053500Y-111843178D01*
X173945254Y-111863546D01*
X173845837Y-111927519D01*
X173779142Y-112025131D01*
X173755678Y-112141000D01*
X173755678Y-112649000D01*
X173776046Y-112757246D01*
X173840019Y-112856663D01*
X173937631Y-112923358D01*
X174053500Y-112946822D01*
X175196500Y-112946822D01*
X175304746Y-112926454D01*
X175404163Y-112862481D01*
X175438587Y-112812100D01*
X175446500Y-112812100D01*
X175606117Y-112780350D01*
X175741434Y-112689934D01*
X176112900Y-112318468D01*
X176112900Y-114127231D01*
X175722232Y-114517900D01*
X175438656Y-114517900D01*
X175409981Y-114473337D01*
X175312369Y-114406642D01*
X175196500Y-114383178D01*
X174053500Y-114383178D01*
X173945254Y-114403546D01*
X173845837Y-114467519D01*
X173779142Y-114565131D01*
X173755678Y-114681000D01*
X173755678Y-114835400D01*
X159240268Y-114835400D01*
X159167100Y-114762232D01*
X159167100Y-113782259D01*
X172762797Y-113782259D01*
X172852749Y-113999960D01*
X173019164Y-114166665D01*
X173236707Y-114256997D01*
X173472259Y-114257203D01*
X173689960Y-114167251D01*
X173775259Y-114082100D01*
X173811344Y-114082100D01*
X173840019Y-114126663D01*
X173937631Y-114193358D01*
X174053500Y-114216822D01*
X175196500Y-114216822D01*
X175304746Y-114196454D01*
X175404163Y-114132481D01*
X175470858Y-114034869D01*
X175494322Y-113919000D01*
X175494322Y-113411000D01*
X175473954Y-113302754D01*
X175409981Y-113203337D01*
X175312369Y-113136642D01*
X175196500Y-113113178D01*
X174053500Y-113113178D01*
X173945254Y-113133546D01*
X173845837Y-113197519D01*
X173811413Y-113247900D01*
X173775254Y-113247900D01*
X173690836Y-113163335D01*
X173473293Y-113073003D01*
X173237741Y-113072797D01*
X173020040Y-113162749D01*
X172853335Y-113329164D01*
X172763003Y-113546707D01*
X172762797Y-113782259D01*
X159167100Y-113782259D01*
X159167100Y-113195012D01*
X159424388Y-113088703D01*
X159760024Y-112753652D01*
X159941893Y-112315664D01*
X159941894Y-112313583D01*
X160097693Y-112313583D01*
X160278797Y-112751888D01*
X160613848Y-113087524D01*
X161051836Y-113269393D01*
X161526083Y-113269807D01*
X161964388Y-113088703D01*
X162300024Y-112753652D01*
X162481893Y-112315664D01*
X162481894Y-112313583D01*
X162637693Y-112313583D01*
X162818797Y-112751888D01*
X163153848Y-113087524D01*
X163591836Y-113269393D01*
X164066083Y-113269807D01*
X164504388Y-113088703D01*
X164840024Y-112753652D01*
X165021893Y-112315664D01*
X165021894Y-112313583D01*
X165177693Y-112313583D01*
X165358797Y-112751888D01*
X165693848Y-113087524D01*
X166131836Y-113269393D01*
X166606083Y-113269807D01*
X167044388Y-113088703D01*
X167380024Y-112753652D01*
X167561893Y-112315664D01*
X167562307Y-111841417D01*
X167381203Y-111403112D01*
X167046152Y-111067476D01*
X166608164Y-110885607D01*
X166133917Y-110885193D01*
X165695612Y-111066297D01*
X165359976Y-111401348D01*
X165178107Y-111839336D01*
X165177693Y-112313583D01*
X165021894Y-112313583D01*
X165022307Y-111841417D01*
X164841203Y-111403112D01*
X164506152Y-111067476D01*
X164068164Y-110885607D01*
X163593917Y-110885193D01*
X163155612Y-111066297D01*
X162819976Y-111401348D01*
X162638107Y-111839336D01*
X162637693Y-112313583D01*
X162481894Y-112313583D01*
X162482307Y-111841417D01*
X162301203Y-111403112D01*
X161966152Y-111067476D01*
X161528164Y-110885607D01*
X161053917Y-110885193D01*
X160615612Y-111066297D01*
X160279976Y-111401348D01*
X160098107Y-111839336D01*
X160097693Y-112313583D01*
X159941894Y-112313583D01*
X159942307Y-111841417D01*
X159761203Y-111403112D01*
X159426152Y-111067476D01*
X158988164Y-110885607D01*
X158513917Y-110885193D01*
X158075612Y-111066297D01*
X157739976Y-111401348D01*
X157558107Y-111839336D01*
X157557693Y-112313583D01*
X157738797Y-112751888D01*
X158073848Y-113087524D01*
X158332900Y-113195092D01*
X158332900Y-114935000D01*
X158364650Y-115094617D01*
X158455066Y-115229934D01*
X158563023Y-115337891D01*
X157202760Y-115337891D01*
X156627100Y-114762232D01*
X156627100Y-113195012D01*
X156884388Y-113088703D01*
X157220024Y-112753652D01*
X157401893Y-112315664D01*
X157402307Y-111841417D01*
X157221203Y-111403112D01*
X156886152Y-111067476D01*
X156448164Y-110885607D01*
X155973917Y-110885193D01*
X155535612Y-111066297D01*
X155199976Y-111401348D01*
X155018107Y-111839336D01*
X155017693Y-112313583D01*
X155198797Y-112751888D01*
X155533848Y-113087524D01*
X155792900Y-113195092D01*
X155792900Y-114883324D01*
X154099475Y-113189899D01*
X154344388Y-113088703D01*
X154680024Y-112753652D01*
X154861893Y-112315664D01*
X154862307Y-111841417D01*
X154681203Y-111403112D01*
X154346152Y-111067476D01*
X153908164Y-110885607D01*
X153433917Y-110885193D01*
X152995612Y-111066297D01*
X152659976Y-111401348D01*
X152478107Y-111839336D01*
X152477693Y-112313583D01*
X152321894Y-112313583D01*
X152322307Y-111841417D01*
X152141203Y-111403112D01*
X151806152Y-111067476D01*
X151368164Y-110885607D01*
X150893917Y-110885193D01*
X150455612Y-111066297D01*
X150119976Y-111401348D01*
X149938107Y-111839336D01*
X149937693Y-112313583D01*
X149781894Y-112313583D01*
X149782307Y-111841417D01*
X149601203Y-111403112D01*
X149266152Y-111067476D01*
X148828164Y-110885607D01*
X148353917Y-110885193D01*
X147915612Y-111066297D01*
X147579976Y-111401348D01*
X147398107Y-111839336D01*
X147397693Y-112313583D01*
X140367100Y-112313583D01*
X140367100Y-89453583D01*
X147397693Y-89453583D01*
X147578797Y-89891888D01*
X147913848Y-90227524D01*
X148351836Y-90409393D01*
X148826083Y-90409807D01*
X149264388Y-90228703D01*
X149331697Y-90161511D01*
X150419476Y-90161511D01*
X150525046Y-90331032D01*
X150997226Y-90477776D01*
X151489619Y-90432653D01*
X151734954Y-90331032D01*
X151840524Y-90161511D01*
X151130000Y-89450987D01*
X150419476Y-90161511D01*
X149331697Y-90161511D01*
X149600024Y-89893652D01*
X149781893Y-89455664D01*
X149782216Y-89084726D01*
X149869724Y-89084726D01*
X149914847Y-89577119D01*
X150016468Y-89822454D01*
X150185989Y-89928024D01*
X150896513Y-89217500D01*
X151363487Y-89217500D01*
X152074011Y-89928024D01*
X152243532Y-89822454D01*
X152358169Y-89453583D01*
X152477693Y-89453583D01*
X152658797Y-89891888D01*
X152993848Y-90227524D01*
X153431836Y-90409393D01*
X153906083Y-90409807D01*
X154344388Y-90228703D01*
X154680024Y-89893652D01*
X154861893Y-89455664D01*
X154861894Y-89453583D01*
X155017693Y-89453583D01*
X155198797Y-89891888D01*
X155533848Y-90227524D01*
X155971836Y-90409393D01*
X156446083Y-90409807D01*
X156884388Y-90228703D01*
X157220024Y-89893652D01*
X157401893Y-89455664D01*
X157401894Y-89453583D01*
X157557693Y-89453583D01*
X157738797Y-89891888D01*
X158073848Y-90227524D01*
X158511836Y-90409393D01*
X158986083Y-90409807D01*
X159424388Y-90228703D01*
X159760024Y-89893652D01*
X159941893Y-89455664D01*
X159941894Y-89453583D01*
X160097693Y-89453583D01*
X160278797Y-89891888D01*
X160613848Y-90227524D01*
X161051836Y-90409393D01*
X161526083Y-90409807D01*
X161964388Y-90228703D01*
X162300024Y-89893652D01*
X162481893Y-89455664D01*
X162481894Y-89453583D01*
X162637693Y-89453583D01*
X162818797Y-89891888D01*
X163153848Y-90227524D01*
X163591836Y-90409393D01*
X164066083Y-90409807D01*
X164504388Y-90228703D01*
X164840024Y-89893652D01*
X165021893Y-89455664D01*
X165021894Y-89453583D01*
X165177693Y-89453583D01*
X165358797Y-89891888D01*
X165693848Y-90227524D01*
X166131836Y-90409393D01*
X166606083Y-90409807D01*
X167044388Y-90228703D01*
X167380024Y-89893652D01*
X167561893Y-89455664D01*
X167562307Y-88981417D01*
X167381203Y-88543112D01*
X167046152Y-88207476D01*
X166608164Y-88025607D01*
X166133917Y-88025193D01*
X165695612Y-88206297D01*
X165359976Y-88541348D01*
X165178107Y-88979336D01*
X165177693Y-89453583D01*
X165021894Y-89453583D01*
X165022307Y-88981417D01*
X164841203Y-88543112D01*
X164506152Y-88207476D01*
X164068164Y-88025607D01*
X163593917Y-88025193D01*
X163155612Y-88206297D01*
X162819976Y-88541348D01*
X162638107Y-88979336D01*
X162637693Y-89453583D01*
X162481894Y-89453583D01*
X162482307Y-88981417D01*
X162301203Y-88543112D01*
X161966152Y-88207476D01*
X161528164Y-88025607D01*
X161053917Y-88025193D01*
X160615612Y-88206297D01*
X160279976Y-88541348D01*
X160098107Y-88979336D01*
X160097693Y-89453583D01*
X159941894Y-89453583D01*
X159942307Y-88981417D01*
X159761203Y-88543112D01*
X159426152Y-88207476D01*
X158988164Y-88025607D01*
X158513917Y-88025193D01*
X158075612Y-88206297D01*
X157739976Y-88541348D01*
X157558107Y-88979336D01*
X157557693Y-89453583D01*
X157401894Y-89453583D01*
X157402307Y-88981417D01*
X157221203Y-88543112D01*
X156886152Y-88207476D01*
X156448164Y-88025607D01*
X155973917Y-88025193D01*
X155535612Y-88206297D01*
X155199976Y-88541348D01*
X155018107Y-88979336D01*
X155017693Y-89453583D01*
X154861894Y-89453583D01*
X154862307Y-88981417D01*
X154681203Y-88543112D01*
X154346152Y-88207476D01*
X153908164Y-88025607D01*
X153433917Y-88025193D01*
X152995612Y-88206297D01*
X152659976Y-88541348D01*
X152478107Y-88979336D01*
X152477693Y-89453583D01*
X152358169Y-89453583D01*
X152390276Y-89350274D01*
X152345153Y-88857881D01*
X152243532Y-88612546D01*
X152074011Y-88506976D01*
X151363487Y-89217500D01*
X150896513Y-89217500D01*
X150185989Y-88506976D01*
X150016468Y-88612546D01*
X149869724Y-89084726D01*
X149782216Y-89084726D01*
X149782307Y-88981417D01*
X149601203Y-88543112D01*
X149332050Y-88273489D01*
X150419476Y-88273489D01*
X151130000Y-88984013D01*
X151840524Y-88273489D01*
X151734954Y-88103968D01*
X151262774Y-87957224D01*
X150770381Y-88002347D01*
X150525046Y-88103968D01*
X150419476Y-88273489D01*
X149332050Y-88273489D01*
X149266152Y-88207476D01*
X148828164Y-88025607D01*
X148353917Y-88025193D01*
X147915612Y-88206297D01*
X147579976Y-88541348D01*
X147398107Y-88979336D01*
X147397693Y-89453583D01*
X140367100Y-89453583D01*
X140367100Y-84240000D01*
X149982178Y-84240000D01*
X149982178Y-85940000D01*
X150002546Y-86048246D01*
X150066519Y-86147663D01*
X150164131Y-86214358D01*
X150280000Y-86237822D01*
X151980000Y-86237822D01*
X152088246Y-86217454D01*
X152187663Y-86153481D01*
X152254358Y-86055869D01*
X152277822Y-85940000D01*
X152277822Y-84667725D01*
X173710600Y-84667725D01*
X173710600Y-84777207D01*
X173762803Y-84903237D01*
X173859263Y-84999697D01*
X173985293Y-85051900D01*
X174374175Y-85051900D01*
X174459900Y-84966175D01*
X174459900Y-84582000D01*
X174790100Y-84582000D01*
X174790100Y-84966175D01*
X174875825Y-85051900D01*
X175264707Y-85051900D01*
X175390737Y-84999697D01*
X175487197Y-84903237D01*
X175539400Y-84777207D01*
X175539400Y-84667725D01*
X175453675Y-84582000D01*
X174790100Y-84582000D01*
X174459900Y-84582000D01*
X173796325Y-84582000D01*
X173710600Y-84667725D01*
X152277822Y-84667725D01*
X152277822Y-84240000D01*
X152257650Y-84132793D01*
X173710600Y-84132793D01*
X173710600Y-84242275D01*
X173796325Y-84328000D01*
X174459900Y-84328000D01*
X174459900Y-83943825D01*
X174790100Y-83943825D01*
X174790100Y-84328000D01*
X175453675Y-84328000D01*
X175539400Y-84242275D01*
X175539400Y-84132793D01*
X175487197Y-84006763D01*
X175390737Y-83910303D01*
X175264707Y-83858100D01*
X174875825Y-83858100D01*
X174790100Y-83943825D01*
X174459900Y-83943825D01*
X174374175Y-83858100D01*
X173985293Y-83858100D01*
X173859263Y-83910303D01*
X173762803Y-84006763D01*
X173710600Y-84132793D01*
X152257650Y-84132793D01*
X152257454Y-84131754D01*
X152193481Y-84032337D01*
X152095869Y-83965642D01*
X151980000Y-83942178D01*
X150280000Y-83942178D01*
X150171754Y-83962546D01*
X150072337Y-84026519D01*
X150005642Y-84124131D01*
X149982178Y-84240000D01*
X140367100Y-84240000D01*
X140367100Y-82550000D01*
X149965525Y-82550000D01*
X150052462Y-82987063D01*
X150300038Y-83357587D01*
X150670562Y-83605163D01*
X151107625Y-83692100D01*
X151152375Y-83692100D01*
X151589438Y-83605163D01*
X151959962Y-83357587D01*
X152207538Y-82987063D01*
X152294475Y-82550000D01*
X152207538Y-82112937D01*
X151959962Y-81742413D01*
X151589438Y-81494837D01*
X151152375Y-81407900D01*
X151107625Y-81407900D01*
X150670562Y-81494837D01*
X150300038Y-81742413D01*
X150052462Y-82112937D01*
X149965525Y-82550000D01*
X140367100Y-82550000D01*
X140367100Y-65691574D01*
X141507295Y-65691574D01*
X142037816Y-66975531D01*
X143019302Y-67958732D01*
X144302331Y-68491492D01*
X145691574Y-68492705D01*
X146975531Y-67962184D01*
X147949610Y-66989804D01*
X159068124Y-66989804D01*
X159165381Y-67349138D01*
X159392746Y-67643901D01*
X159711709Y-67816076D01*
X159854900Y-67766125D01*
X159854900Y-66840100D01*
X160185100Y-66840100D01*
X160185100Y-67766125D01*
X160328291Y-67816076D01*
X160647254Y-67643901D01*
X160874619Y-67349138D01*
X160971876Y-66989804D01*
X160884569Y-66840100D01*
X160185100Y-66840100D01*
X159854900Y-66840100D01*
X159155431Y-66840100D01*
X159068124Y-66989804D01*
X147949610Y-66989804D01*
X147958732Y-66980698D01*
X148216386Y-66360196D01*
X159068124Y-66360196D01*
X159155431Y-66509900D01*
X159854900Y-66509900D01*
X159854900Y-65583875D01*
X160185100Y-65583875D01*
X160185100Y-66509900D01*
X160884569Y-66509900D01*
X160971876Y-66360196D01*
X160874619Y-66000862D01*
X160647254Y-65706099D01*
X160328291Y-65533924D01*
X160185100Y-65583875D01*
X159854900Y-65583875D01*
X159711709Y-65533924D01*
X159392746Y-65706099D01*
X159165381Y-66000862D01*
X159068124Y-66360196D01*
X148216386Y-66360196D01*
X148491492Y-65697669D01*
X148492705Y-64308426D01*
X147962184Y-63024469D01*
X146980698Y-62041268D01*
X145697669Y-61508508D01*
X144308426Y-61507295D01*
X143024469Y-62037816D01*
X142041268Y-63019302D01*
X141508508Y-64302331D01*
X141507295Y-65691574D01*
X140367100Y-65691574D01*
X140367100Y-65036155D01*
X140726403Y-63229818D01*
X141729131Y-61729130D01*
X143229818Y-60726403D01*
X145036155Y-60367100D01*
X194963845Y-60367100D01*
X196770182Y-60726403D01*
M02*
