M48
INCH,TZ
T1C0.016
T2C0.028
T3C0.030
T4C0.031
T5C0.039
T6C0.040
T7C0.126
%
G90
G05
T1
X68250Y-31750
X68250Y-34750
X68250Y-44750
X68250Y-47750
X69250Y-35250
X69500Y-32875
X71750Y-31750
X71750Y-32250
X71750Y-32750
X71750Y-33250
X71750Y-33750
X71750Y-34250
X71750Y-34750
X71750Y-44750
X71750Y-45250
X71750Y-45750
X71750Y-46250
X71750Y-46750
X71750Y-47250
X71750Y-47750
X71750Y-48250
X72875Y-27625
X72875Y-28375
X72875Y-29625
X72875Y-30375
X72875Y-34125
X72875Y-34875
X72875Y-36875
X72875Y-40625
X72875Y-41375
X72875Y-42625
X72875Y-43375
X72875Y-47125
X72875Y-47875
X72875Y-49875
X72924Y-36076
X72924Y-49076
T2
X63000Y-26250
X63787Y-26250
X64575Y-26250
X65362Y-26250
X66150Y-26250
X68925Y-26250
X69713Y-26250
X70500Y-26250
X71287Y-26250
X72075Y-26250
X76000Y-27925
X76000Y-28713
X76000Y-29500
X76000Y-30287
X76000Y-31075
X76000Y-34425
X76000Y-35213
X76000Y-36000
X76000Y-36787
X76000Y-37575
X76000Y-40850
X76000Y-41638
X76000Y-42425
X76000Y-43213
X76000Y-44000
X76000Y-47425
X76000Y-48213
X76000Y-49000
X76000Y-49787
X76000Y-50575
T3
X72016Y-53750
X73984Y-53750
T4
X71000Y-50000
X71000Y-50984
T5
X59500Y-32500
X59500Y-33500
T6
X58500Y-35125
X58500Y-44125
X59500Y-35125
X59500Y-44125
X60500Y-35125
X60500Y-44125
X61500Y-35125
X61500Y-44125
X62500Y-35125
X62500Y-44125
X63500Y-35125
X63500Y-44125
X64500Y-35125
X64500Y-44125
X65500Y-35125
X65500Y-44125
T7
X57087Y-25591
X57087Y-53150
X76772Y-25591
X76772Y-53150
T0
M30
