G04 #@! TF.FileFunction,Soldermask,Top*
%FSLAX46Y46*%
G04 Gerber Fmt 4.6, Leading zero omitted, Abs format (unit mm)*
G04 Created by KiCad (PCBNEW 4.0.5) date Sunday, 26 February 2017 'PMt' 14:45:35*
%MOMM*%
%LPD*%
G01*
G04 APERTURE LIST*
%ADD10C,0.100000*%
%ADD11C,6.800000*%
%ADD12C,2.200000*%
%ADD13R,2.000000X2.000000*%
%ADD14C,2.000000*%
%ADD15R,1.543000X0.908000*%
%ADD16R,1.960000X1.050000*%
%ADD17R,2.100000X1.600000*%
%ADD18O,2.100000X1.600000*%
%ADD19R,1.600000X2.100000*%
%ADD20O,1.600000X2.100000*%
%ADD21R,2.100000X2.100000*%
%ADD22O,2.100000X2.100000*%
%ADD23C,1.924000*%
G04 APERTURE END LIST*
D10*
D11*
X145000000Y-65000000D03*
X195000000Y-65000000D03*
X195000000Y-135000000D03*
D12*
X166370000Y-89217500D03*
X163830000Y-89217500D03*
X161290000Y-89217500D03*
X158750000Y-89217500D03*
X156210000Y-89217500D03*
X153670000Y-89217500D03*
X151130000Y-89217500D03*
X148590000Y-89217500D03*
X148590000Y-112077500D03*
X151130000Y-112077500D03*
X153670000Y-112077500D03*
X156210000Y-112077500D03*
X158750000Y-112077500D03*
X161290000Y-112077500D03*
X163830000Y-112077500D03*
X166370000Y-112077500D03*
D13*
X180340000Y-127000000D03*
D14*
X180340000Y-129500000D03*
D15*
X174625000Y-121285000D03*
X174625000Y-118745000D03*
X174625000Y-117475000D03*
X174625000Y-116205000D03*
X174625000Y-114935000D03*
X174625000Y-113665000D03*
X174625000Y-112395000D03*
X180975000Y-112395000D03*
X180975000Y-113665000D03*
X180975000Y-114935000D03*
X180975000Y-116205000D03*
X180975000Y-117475000D03*
X180975000Y-118745000D03*
X180975000Y-120015000D03*
X180975000Y-121285000D03*
X174625000Y-120015000D03*
X174625000Y-88265000D03*
X174625000Y-85725000D03*
X174625000Y-84455000D03*
X174625000Y-83185000D03*
X174625000Y-81915000D03*
X174625000Y-80645000D03*
X174625000Y-79375000D03*
X180975000Y-79375000D03*
X180975000Y-80645000D03*
X180975000Y-81915000D03*
X180975000Y-83185000D03*
X180975000Y-84455000D03*
X180975000Y-85725000D03*
X180975000Y-86995000D03*
X180975000Y-88265000D03*
X174625000Y-86995000D03*
D16*
X186530000Y-124780000D03*
X186530000Y-125730000D03*
X186530000Y-126680000D03*
X189230000Y-126680000D03*
X189230000Y-124780000D03*
X186610000Y-119700000D03*
X186610000Y-120650000D03*
X186610000Y-121600000D03*
X189310000Y-121600000D03*
X189310000Y-119700000D03*
X186610000Y-108270000D03*
X186610000Y-109220000D03*
X186610000Y-110170000D03*
X189310000Y-110170000D03*
X189310000Y-108270000D03*
X186610000Y-103190000D03*
X186610000Y-104140000D03*
X186610000Y-105090000D03*
X189310000Y-105090000D03*
X189310000Y-103190000D03*
X186610000Y-91760000D03*
X186610000Y-92710000D03*
X186610000Y-93660000D03*
X189310000Y-93660000D03*
X189310000Y-91760000D03*
X186610000Y-86680000D03*
X186610000Y-87630000D03*
X186610000Y-88580000D03*
X189310000Y-88580000D03*
X189310000Y-86680000D03*
X186610000Y-75250000D03*
X186610000Y-76200000D03*
X186610000Y-77150000D03*
X189310000Y-77150000D03*
X189310000Y-75250000D03*
X186610000Y-70170000D03*
X186610000Y-71120000D03*
X186610000Y-72070000D03*
X189310000Y-72070000D03*
X189310000Y-70170000D03*
D17*
X193040000Y-128460000D03*
D18*
X193040000Y-126460000D03*
X193040000Y-124460000D03*
X193040000Y-122460000D03*
X193040000Y-120460000D03*
D17*
X193040000Y-111760000D03*
D18*
X193040000Y-109760000D03*
X193040000Y-107760000D03*
X193040000Y-105760000D03*
X193040000Y-103760000D03*
D17*
X193040000Y-95440000D03*
D18*
X193040000Y-93440000D03*
X193040000Y-91440000D03*
X193040000Y-89440000D03*
X193040000Y-87440000D03*
D17*
X193040000Y-78930000D03*
D18*
X193040000Y-76930000D03*
X193040000Y-74930000D03*
X193040000Y-72930000D03*
X193040000Y-70930000D03*
D19*
X168020000Y-66675000D03*
D20*
X166020000Y-66675000D03*
X164020000Y-66675000D03*
X162020000Y-66675000D03*
X160020000Y-66675000D03*
D19*
X183070000Y-66675000D03*
D20*
X181070000Y-66675000D03*
X179070000Y-66675000D03*
X177070000Y-66675000D03*
X175070000Y-66675000D03*
D21*
X151130000Y-85090000D03*
D22*
X151130000Y-82550000D03*
D23*
X187920000Y-136525000D03*
X182920000Y-136525000D03*
D11*
X145000000Y-135000000D03*
M02*
