G04 #@! TF.FileFunction,Legend,Top*
%FSLAX46Y46*%
G04 Gerber Fmt 4.6, Leading zero omitted, Abs format (unit mm)*
G04 Created by KiCad (PCBNEW 4.0.5) date Sunday, 26 February 2017 'PMt' 14:45:35*
%MOMM*%
%LPD*%
G01*
G04 APERTURE LIST*
%ADD10C,0.100000*%
%ADD11C,0.200000*%
%ADD12C,0.300000*%
%ADD13C,0.500000*%
%ADD14C,0.120000*%
%ADD15C,0.150000*%
G04 APERTURE END LIST*
D10*
D11*
X163830000Y-81915000D02*
X163830000Y-86995000D01*
X163830000Y-75565000D02*
X163830000Y-71120000D01*
X173355000Y-76200000D02*
X154305000Y-76200000D01*
X173355000Y-81280000D02*
X173355000Y-76200000D01*
X154305000Y-81280000D02*
X173355000Y-81280000D01*
X154305000Y-76200000D02*
X154305000Y-81280000D01*
D10*
X167640000Y-131445000D02*
X177165000Y-131445000D01*
X167640000Y-125095000D02*
X167640000Y-131445000D01*
X177165000Y-125095000D02*
X167640000Y-125095000D01*
D12*
X150357143Y-133128571D02*
X150357143Y-132128571D01*
X150357143Y-132271429D02*
X150428571Y-132200000D01*
X150571429Y-132128571D01*
X150785714Y-132128571D01*
X150928571Y-132200000D01*
X151000000Y-132342857D01*
X151000000Y-133128571D01*
X151000000Y-132342857D02*
X151071429Y-132200000D01*
X151214286Y-132128571D01*
X151428571Y-132128571D01*
X151571429Y-132200000D01*
X151642857Y-132342857D01*
X151642857Y-133128571D01*
X153000000Y-133128571D02*
X153000000Y-132342857D01*
X152928571Y-132200000D01*
X152785714Y-132128571D01*
X152500000Y-132128571D01*
X152357143Y-132200000D01*
X153000000Y-133057143D02*
X152857143Y-133128571D01*
X152500000Y-133128571D01*
X152357143Y-133057143D01*
X152285714Y-132914286D01*
X152285714Y-132771429D01*
X152357143Y-132628571D01*
X152500000Y-132557143D01*
X152857143Y-132557143D01*
X153000000Y-132485714D01*
X153571429Y-133128571D02*
X154357143Y-132128571D01*
X153571429Y-132128571D02*
X154357143Y-133128571D01*
X156857143Y-133128571D02*
X156000000Y-133128571D01*
X156428572Y-133128571D02*
X156428572Y-131628571D01*
X156285715Y-131842857D01*
X156142857Y-131985714D01*
X156000000Y-132057143D01*
X157428571Y-131771429D02*
X157500000Y-131700000D01*
X157642857Y-131628571D01*
X158000000Y-131628571D01*
X158142857Y-131700000D01*
X158214286Y-131771429D01*
X158285714Y-131914286D01*
X158285714Y-132057143D01*
X158214286Y-132271429D01*
X157357143Y-133128571D01*
X158285714Y-133128571D01*
X158714285Y-131628571D02*
X159214285Y-133128571D01*
X159714285Y-131628571D01*
X150357143Y-135678571D02*
X150357143Y-134678571D01*
X150357143Y-134821429D02*
X150428571Y-134750000D01*
X150571429Y-134678571D01*
X150785714Y-134678571D01*
X150928571Y-134750000D01*
X151000000Y-134892857D01*
X151000000Y-135678571D01*
X151000000Y-134892857D02*
X151071429Y-134750000D01*
X151214286Y-134678571D01*
X151428571Y-134678571D01*
X151571429Y-134750000D01*
X151642857Y-134892857D01*
X151642857Y-135678571D01*
X153000000Y-135678571D02*
X153000000Y-134892857D01*
X152928571Y-134750000D01*
X152785714Y-134678571D01*
X152500000Y-134678571D01*
X152357143Y-134750000D01*
X153000000Y-135607143D02*
X152857143Y-135678571D01*
X152500000Y-135678571D01*
X152357143Y-135607143D01*
X152285714Y-135464286D01*
X152285714Y-135321429D01*
X152357143Y-135178571D01*
X152500000Y-135107143D01*
X152857143Y-135107143D01*
X153000000Y-135035714D01*
X153571429Y-135678571D02*
X154357143Y-134678571D01*
X153571429Y-134678571D02*
X154357143Y-135678571D01*
X156000000Y-134321429D02*
X156071429Y-134250000D01*
X156214286Y-134178571D01*
X156571429Y-134178571D01*
X156714286Y-134250000D01*
X156785715Y-134321429D01*
X156857143Y-134464286D01*
X156857143Y-134607143D01*
X156785715Y-134821429D01*
X155928572Y-135678571D01*
X156857143Y-135678571D01*
X157428571Y-135250000D02*
X158142857Y-135250000D01*
X157285714Y-135678571D02*
X157785714Y-134178571D01*
X158285714Y-135678571D01*
X159928571Y-134678571D02*
X159928571Y-136178571D01*
X159928571Y-134750000D02*
X160071428Y-134678571D01*
X160357142Y-134678571D01*
X160499999Y-134750000D01*
X160571428Y-134821429D01*
X160642857Y-134964286D01*
X160642857Y-135392857D01*
X160571428Y-135535714D01*
X160499999Y-135607143D01*
X160357142Y-135678571D01*
X160071428Y-135678571D01*
X159928571Y-135607143D01*
X161857142Y-135607143D02*
X161714285Y-135678571D01*
X161428571Y-135678571D01*
X161285714Y-135607143D01*
X161214285Y-135464286D01*
X161214285Y-134892857D01*
X161285714Y-134750000D01*
X161428571Y-134678571D01*
X161714285Y-134678571D01*
X161857142Y-134750000D01*
X161928571Y-134892857D01*
X161928571Y-135035714D01*
X161214285Y-135178571D01*
X162571428Y-135678571D02*
X162571428Y-134678571D01*
X162571428Y-134964286D02*
X162642856Y-134821429D01*
X162714285Y-134750000D01*
X162857142Y-134678571D01*
X162999999Y-134678571D01*
X165499999Y-135535714D02*
X165428570Y-135607143D01*
X165214284Y-135678571D01*
X165071427Y-135678571D01*
X164857142Y-135607143D01*
X164714284Y-135464286D01*
X164642856Y-135321429D01*
X164571427Y-135035714D01*
X164571427Y-134821429D01*
X164642856Y-134535714D01*
X164714284Y-134392857D01*
X164857142Y-134250000D01*
X165071427Y-134178571D01*
X165214284Y-134178571D01*
X165428570Y-134250000D01*
X165499999Y-134321429D01*
X166142856Y-135678571D02*
X166142856Y-134178571D01*
X166785713Y-135678571D02*
X166785713Y-134892857D01*
X166714284Y-134750000D01*
X166571427Y-134678571D01*
X166357142Y-134678571D01*
X166214284Y-134750000D01*
X166142856Y-134821429D01*
X168142856Y-135678571D02*
X168142856Y-134892857D01*
X168071427Y-134750000D01*
X167928570Y-134678571D01*
X167642856Y-134678571D01*
X167499999Y-134750000D01*
X168142856Y-135607143D02*
X167999999Y-135678571D01*
X167642856Y-135678571D01*
X167499999Y-135607143D01*
X167428570Y-135464286D01*
X167428570Y-135321429D01*
X167499999Y-135178571D01*
X167642856Y-135107143D01*
X167999999Y-135107143D01*
X168142856Y-135035714D01*
X168857142Y-134678571D02*
X168857142Y-135678571D01*
X168857142Y-134821429D02*
X168928570Y-134750000D01*
X169071428Y-134678571D01*
X169285713Y-134678571D01*
X169428570Y-134750000D01*
X169499999Y-134892857D01*
X169499999Y-135678571D01*
X170214285Y-134678571D02*
X170214285Y-135678571D01*
X170214285Y-134821429D02*
X170285713Y-134750000D01*
X170428571Y-134678571D01*
X170642856Y-134678571D01*
X170785713Y-134750000D01*
X170857142Y-134892857D01*
X170857142Y-135678571D01*
X172142856Y-135607143D02*
X171999999Y-135678571D01*
X171714285Y-135678571D01*
X171571428Y-135607143D01*
X171499999Y-135464286D01*
X171499999Y-134892857D01*
X171571428Y-134750000D01*
X171714285Y-134678571D01*
X171999999Y-134678571D01*
X172142856Y-134750000D01*
X172214285Y-134892857D01*
X172214285Y-135035714D01*
X171499999Y-135178571D01*
X173071428Y-135678571D02*
X172928570Y-135607143D01*
X172857142Y-135464286D01*
X172857142Y-134178571D01*
X150357143Y-138228571D02*
X150357143Y-137228571D01*
X150357143Y-137371429D02*
X150428571Y-137300000D01*
X150571429Y-137228571D01*
X150785714Y-137228571D01*
X150928571Y-137300000D01*
X151000000Y-137442857D01*
X151000000Y-138228571D01*
X151000000Y-137442857D02*
X151071429Y-137300000D01*
X151214286Y-137228571D01*
X151428571Y-137228571D01*
X151571429Y-137300000D01*
X151642857Y-137442857D01*
X151642857Y-138228571D01*
X153000000Y-138228571D02*
X153000000Y-137442857D01*
X152928571Y-137300000D01*
X152785714Y-137228571D01*
X152500000Y-137228571D01*
X152357143Y-137300000D01*
X153000000Y-138157143D02*
X152857143Y-138228571D01*
X152500000Y-138228571D01*
X152357143Y-138157143D01*
X152285714Y-138014286D01*
X152285714Y-137871429D01*
X152357143Y-137728571D01*
X152500000Y-137657143D01*
X152857143Y-137657143D01*
X153000000Y-137585714D01*
X153571429Y-138228571D02*
X154357143Y-137228571D01*
X153571429Y-137228571D02*
X154357143Y-138228571D01*
X156857143Y-138228571D02*
X156000000Y-138228571D01*
X156428572Y-138228571D02*
X156428572Y-136728571D01*
X156285715Y-136942857D01*
X156142857Y-137085714D01*
X156000000Y-137157143D01*
X157785714Y-136728571D02*
X157928571Y-136728571D01*
X158071428Y-136800000D01*
X158142857Y-136871429D01*
X158214286Y-137014286D01*
X158285714Y-137300000D01*
X158285714Y-137657143D01*
X158214286Y-137942857D01*
X158142857Y-138085714D01*
X158071428Y-138157143D01*
X157928571Y-138228571D01*
X157785714Y-138228571D01*
X157642857Y-138157143D01*
X157571428Y-138085714D01*
X157500000Y-137942857D01*
X157428571Y-137657143D01*
X157428571Y-137300000D01*
X157500000Y-137014286D01*
X157571428Y-136871429D01*
X157642857Y-136800000D01*
X157785714Y-136728571D01*
X158857142Y-137800000D02*
X159571428Y-137800000D01*
X158714285Y-138228571D02*
X159214285Y-136728571D01*
X159714285Y-138228571D01*
X161142856Y-137228571D02*
X161714285Y-137228571D01*
X161357142Y-136728571D02*
X161357142Y-138014286D01*
X161428570Y-138157143D01*
X161571428Y-138228571D01*
X161714285Y-138228571D01*
X162428571Y-138228571D02*
X162285713Y-138157143D01*
X162214285Y-138085714D01*
X162142856Y-137942857D01*
X162142856Y-137514286D01*
X162214285Y-137371429D01*
X162285713Y-137300000D01*
X162428571Y-137228571D01*
X162642856Y-137228571D01*
X162785713Y-137300000D01*
X162857142Y-137371429D01*
X162928571Y-137514286D01*
X162928571Y-137942857D01*
X162857142Y-138085714D01*
X162785713Y-138157143D01*
X162642856Y-138228571D01*
X162428571Y-138228571D01*
X163357142Y-137228571D02*
X163928571Y-137228571D01*
X163571428Y-136728571D02*
X163571428Y-138014286D01*
X163642856Y-138157143D01*
X163785714Y-138228571D01*
X163928571Y-138228571D01*
X165071428Y-138228571D02*
X165071428Y-137442857D01*
X164999999Y-137300000D01*
X164857142Y-137228571D01*
X164571428Y-137228571D01*
X164428571Y-137300000D01*
X165071428Y-138157143D02*
X164928571Y-138228571D01*
X164571428Y-138228571D01*
X164428571Y-138157143D01*
X164357142Y-138014286D01*
X164357142Y-137871429D01*
X164428571Y-137728571D01*
X164571428Y-137657143D01*
X164928571Y-137657143D01*
X165071428Y-137585714D01*
X166000000Y-138228571D02*
X165857142Y-138157143D01*
X165785714Y-138014286D01*
X165785714Y-136728571D01*
X176264286Y-137608571D02*
X176764286Y-139108571D01*
X177264286Y-137608571D01*
X177764286Y-139108571D02*
X177764286Y-138108571D01*
X177764286Y-137608571D02*
X177692857Y-137680000D01*
X177764286Y-137751429D01*
X177835714Y-137680000D01*
X177764286Y-137608571D01*
X177764286Y-137751429D01*
X178478572Y-138108571D02*
X178478572Y-139108571D01*
X178478572Y-138251429D02*
X178550000Y-138180000D01*
X178692858Y-138108571D01*
X178907143Y-138108571D01*
X179050000Y-138180000D01*
X179121429Y-138322857D01*
X179121429Y-139108571D01*
X166271429Y-69957143D02*
X167414286Y-69957143D01*
X169271429Y-70528571D02*
X169271429Y-69028571D01*
X169628572Y-69028571D01*
X169842857Y-69100000D01*
X169985715Y-69242857D01*
X170057143Y-69385714D01*
X170128572Y-69671429D01*
X170128572Y-69885714D01*
X170057143Y-70171429D01*
X169985715Y-70314286D01*
X169842857Y-70457143D01*
X169628572Y-70528571D01*
X169271429Y-70528571D01*
X171414286Y-70528571D02*
X171414286Y-69742857D01*
X171342857Y-69600000D01*
X171200000Y-69528571D01*
X170914286Y-69528571D01*
X170771429Y-69600000D01*
X171414286Y-70457143D02*
X171271429Y-70528571D01*
X170914286Y-70528571D01*
X170771429Y-70457143D01*
X170700000Y-70314286D01*
X170700000Y-70171429D01*
X170771429Y-70028571D01*
X170914286Y-69957143D01*
X171271429Y-69957143D01*
X171414286Y-69885714D01*
X171914286Y-69528571D02*
X172485715Y-69528571D01*
X172128572Y-69028571D02*
X172128572Y-70314286D01*
X172200000Y-70457143D01*
X172342858Y-70528571D01*
X172485715Y-70528571D01*
X173628572Y-70528571D02*
X173628572Y-69742857D01*
X173557143Y-69600000D01*
X173414286Y-69528571D01*
X173128572Y-69528571D01*
X172985715Y-69600000D01*
X173628572Y-70457143D02*
X173485715Y-70528571D01*
X173128572Y-70528571D01*
X172985715Y-70457143D01*
X172914286Y-70314286D01*
X172914286Y-70171429D01*
X172985715Y-70028571D01*
X173128572Y-69957143D01*
X173485715Y-69957143D01*
X173628572Y-69885714D01*
X175485715Y-69957143D02*
X176628572Y-69957143D01*
X151979286Y-99508571D02*
X152336429Y-101008571D01*
X152622143Y-99937143D01*
X152907857Y-101008571D01*
X153265000Y-99508571D01*
X154407857Y-100937143D02*
X154265000Y-101008571D01*
X153979286Y-101008571D01*
X153836429Y-100937143D01*
X153765000Y-100794286D01*
X153765000Y-100222857D01*
X153836429Y-100080000D01*
X153979286Y-100008571D01*
X154265000Y-100008571D01*
X154407857Y-100080000D01*
X154479286Y-100222857D01*
X154479286Y-100365714D01*
X153765000Y-100508571D01*
X155122143Y-101008571D02*
X155122143Y-99508571D01*
X155622143Y-100580000D01*
X156122143Y-99508571D01*
X156122143Y-101008571D01*
X157050715Y-101008571D02*
X156907857Y-100937143D01*
X156836429Y-100865714D01*
X156765000Y-100722857D01*
X156765000Y-100294286D01*
X156836429Y-100151429D01*
X156907857Y-100080000D01*
X157050715Y-100008571D01*
X157265000Y-100008571D01*
X157407857Y-100080000D01*
X157479286Y-100151429D01*
X157550715Y-100294286D01*
X157550715Y-100722857D01*
X157479286Y-100865714D01*
X157407857Y-100937143D01*
X157265000Y-101008571D01*
X157050715Y-101008571D01*
X158122143Y-100937143D02*
X158265000Y-101008571D01*
X158550715Y-101008571D01*
X158693572Y-100937143D01*
X158765000Y-100794286D01*
X158765000Y-100722857D01*
X158693572Y-100580000D01*
X158550715Y-100508571D01*
X158336429Y-100508571D01*
X158193572Y-100437143D01*
X158122143Y-100294286D01*
X158122143Y-100222857D01*
X158193572Y-100080000D01*
X158336429Y-100008571D01*
X158550715Y-100008571D01*
X158693572Y-100080000D01*
X160550715Y-101008571D02*
X160550715Y-99508571D01*
X160907858Y-99508571D01*
X161122143Y-99580000D01*
X161265001Y-99722857D01*
X161336429Y-99865714D01*
X161407858Y-100151429D01*
X161407858Y-100365714D01*
X161336429Y-100651429D01*
X161265001Y-100794286D01*
X161122143Y-100937143D01*
X160907858Y-101008571D01*
X160550715Y-101008571D01*
X162836429Y-101008571D02*
X161979286Y-101008571D01*
X162407858Y-101008571D02*
X162407858Y-99508571D01*
X162265001Y-99722857D01*
X162122143Y-99865714D01*
X161979286Y-99937143D01*
X164622143Y-101008571D02*
X164622143Y-99508571D01*
X165122143Y-100580000D01*
X165622143Y-99508571D01*
X165622143Y-101008571D01*
X166336429Y-101008571D02*
X166336429Y-100008571D01*
X166336429Y-99508571D02*
X166265000Y-99580000D01*
X166336429Y-99651429D01*
X166407857Y-99580000D01*
X166336429Y-99508571D01*
X166336429Y-99651429D01*
X167050715Y-100008571D02*
X167050715Y-101008571D01*
X167050715Y-100151429D02*
X167122143Y-100080000D01*
X167265001Y-100008571D01*
X167479286Y-100008571D01*
X167622143Y-100080000D01*
X167693572Y-100222857D01*
X167693572Y-101008571D01*
X168407858Y-101008571D02*
X168407858Y-100008571D01*
X168407858Y-99508571D02*
X168336429Y-99580000D01*
X168407858Y-99651429D01*
X168479286Y-99580000D01*
X168407858Y-99508571D01*
X168407858Y-99651429D01*
X142217143Y-126853571D02*
X142217143Y-125853571D01*
X142217143Y-126139286D02*
X142288571Y-125996429D01*
X142360000Y-125925000D01*
X142502857Y-125853571D01*
X142645714Y-125853571D01*
X143717142Y-126782143D02*
X143574285Y-126853571D01*
X143288571Y-126853571D01*
X143145714Y-126782143D01*
X143074285Y-126639286D01*
X143074285Y-126067857D01*
X143145714Y-125925000D01*
X143288571Y-125853571D01*
X143574285Y-125853571D01*
X143717142Y-125925000D01*
X143788571Y-126067857D01*
X143788571Y-126210714D01*
X143074285Y-126353571D01*
X144288571Y-125853571D02*
X144645714Y-126853571D01*
X145002856Y-125853571D01*
X147502856Y-126853571D02*
X146645713Y-126853571D01*
X147074285Y-126853571D02*
X147074285Y-125353571D01*
X146931428Y-125567857D01*
X146788570Y-125710714D01*
X146645713Y-125782143D01*
X150359998Y-125496429D02*
X150431427Y-125425000D01*
X150574284Y-125353571D01*
X150931427Y-125353571D01*
X151074284Y-125425000D01*
X151145713Y-125496429D01*
X151217141Y-125639286D01*
X151217141Y-125782143D01*
X151145713Y-125996429D01*
X150288570Y-126853571D01*
X151217141Y-126853571D01*
X152145712Y-125353571D02*
X152288569Y-125353571D01*
X152431426Y-125425000D01*
X152502855Y-125496429D01*
X152574284Y-125639286D01*
X152645712Y-125925000D01*
X152645712Y-126282143D01*
X152574284Y-126567857D01*
X152502855Y-126710714D01*
X152431426Y-126782143D01*
X152288569Y-126853571D01*
X152145712Y-126853571D01*
X152002855Y-126782143D01*
X151931426Y-126710714D01*
X151859998Y-126567857D01*
X151788569Y-126282143D01*
X151788569Y-125925000D01*
X151859998Y-125639286D01*
X151931426Y-125496429D01*
X152002855Y-125425000D01*
X152145712Y-125353571D01*
X154074283Y-126853571D02*
X153217140Y-126853571D01*
X153645712Y-126853571D02*
X153645712Y-125353571D01*
X153502855Y-125567857D01*
X153359997Y-125710714D01*
X153217140Y-125782143D01*
X154574283Y-125353571D02*
X155574283Y-125353571D01*
X154931426Y-126853571D01*
X157217139Y-125282143D02*
X155931425Y-127210714D01*
X158002854Y-125353571D02*
X158145711Y-125353571D01*
X158288568Y-125425000D01*
X158359997Y-125496429D01*
X158431426Y-125639286D01*
X158502854Y-125925000D01*
X158502854Y-126282143D01*
X158431426Y-126567857D01*
X158359997Y-126710714D01*
X158288568Y-126782143D01*
X158145711Y-126853571D01*
X158002854Y-126853571D01*
X157859997Y-126782143D01*
X157788568Y-126710714D01*
X157717140Y-126567857D01*
X157645711Y-126282143D01*
X157645711Y-125925000D01*
X157717140Y-125639286D01*
X157788568Y-125496429D01*
X157859997Y-125425000D01*
X158002854Y-125353571D01*
X159002854Y-125353571D02*
X159931425Y-125353571D01*
X159431425Y-125925000D01*
X159645711Y-125925000D01*
X159788568Y-125996429D01*
X159859997Y-126067857D01*
X159931425Y-126210714D01*
X159931425Y-126567857D01*
X159859997Y-126710714D01*
X159788568Y-126782143D01*
X159645711Y-126853571D01*
X159217139Y-126853571D01*
X159074282Y-126782143D01*
X159002854Y-126710714D01*
X141255714Y-78072143D02*
X141470000Y-78143571D01*
X141827143Y-78143571D01*
X141970000Y-78072143D01*
X142041429Y-78000714D01*
X142112857Y-77857857D01*
X142112857Y-77715000D01*
X142041429Y-77572143D01*
X141970000Y-77500714D01*
X141827143Y-77429286D01*
X141541429Y-77357857D01*
X141398571Y-77286429D01*
X141327143Y-77215000D01*
X141255714Y-77072143D01*
X141255714Y-76929286D01*
X141327143Y-76786429D01*
X141398571Y-76715000D01*
X141541429Y-76643571D01*
X141898571Y-76643571D01*
X142112857Y-76715000D01*
X142755714Y-78143571D02*
X142755714Y-76643571D01*
X143398571Y-78143571D02*
X143398571Y-77357857D01*
X143327142Y-77215000D01*
X143184285Y-77143571D01*
X142970000Y-77143571D01*
X142827142Y-77215000D01*
X142755714Y-77286429D01*
X144327143Y-78143571D02*
X144184285Y-78072143D01*
X144112857Y-78000714D01*
X144041428Y-77857857D01*
X144041428Y-77429286D01*
X144112857Y-77286429D01*
X144184285Y-77215000D01*
X144327143Y-77143571D01*
X144541428Y-77143571D01*
X144684285Y-77215000D01*
X144755714Y-77286429D01*
X144827143Y-77429286D01*
X144827143Y-77857857D01*
X144755714Y-78000714D01*
X144684285Y-78072143D01*
X144541428Y-78143571D01*
X144327143Y-78143571D01*
X145470000Y-78143571D02*
X145470000Y-77143571D01*
X145470000Y-77429286D02*
X145541428Y-77286429D01*
X145612857Y-77215000D01*
X145755714Y-77143571D01*
X145898571Y-77143571D01*
X146184285Y-77143571D02*
X146755714Y-77143571D01*
X146398571Y-76643571D02*
X146398571Y-77929286D01*
X146469999Y-78072143D01*
X146612857Y-78143571D01*
X146755714Y-78143571D01*
X148184285Y-76643571D02*
X148684285Y-78143571D01*
X149184285Y-76643571D01*
X149684285Y-78143571D02*
X149684285Y-77143571D01*
X149684285Y-76643571D02*
X149612856Y-76715000D01*
X149684285Y-76786429D01*
X149755713Y-76715000D01*
X149684285Y-76643571D01*
X149684285Y-76786429D01*
X150398571Y-77143571D02*
X150398571Y-78143571D01*
X150398571Y-77286429D02*
X150469999Y-77215000D01*
X150612857Y-77143571D01*
X150827142Y-77143571D01*
X150969999Y-77215000D01*
X151041428Y-77357857D01*
X151041428Y-78143571D01*
X141112857Y-79693571D02*
X141684286Y-79693571D01*
X141327143Y-79193571D02*
X141327143Y-80479286D01*
X141398571Y-80622143D01*
X141541429Y-80693571D01*
X141684286Y-80693571D01*
X142398572Y-80693571D02*
X142255714Y-80622143D01*
X142184286Y-80550714D01*
X142112857Y-80407857D01*
X142112857Y-79979286D01*
X142184286Y-79836429D01*
X142255714Y-79765000D01*
X142398572Y-79693571D01*
X142612857Y-79693571D01*
X142755714Y-79765000D01*
X142827143Y-79836429D01*
X142898572Y-79979286D01*
X142898572Y-80407857D01*
X142827143Y-80550714D01*
X142755714Y-80622143D01*
X142612857Y-80693571D01*
X142398572Y-80693571D01*
X144470000Y-79193571D02*
X144970000Y-80693571D01*
X145470000Y-79193571D01*
X146612857Y-79693571D02*
X146612857Y-80693571D01*
X145970000Y-79693571D02*
X145970000Y-80479286D01*
X146041428Y-80622143D01*
X146184286Y-80693571D01*
X146398571Y-80693571D01*
X146541428Y-80622143D01*
X146612857Y-80550714D01*
X147255714Y-80622143D02*
X147398571Y-80693571D01*
X147684286Y-80693571D01*
X147827143Y-80622143D01*
X147898571Y-80479286D01*
X147898571Y-80407857D01*
X147827143Y-80265000D01*
X147684286Y-80193571D01*
X147470000Y-80193571D01*
X147327143Y-80122143D01*
X147255714Y-79979286D01*
X147255714Y-79907857D01*
X147327143Y-79765000D01*
X147470000Y-79693571D01*
X147684286Y-79693571D01*
X147827143Y-79765000D01*
X148541429Y-80693571D02*
X148541429Y-79193571D01*
X148541429Y-79765000D02*
X148684286Y-79693571D01*
X148970000Y-79693571D01*
X149112857Y-79765000D01*
X149184286Y-79836429D01*
X149255715Y-79979286D01*
X149255715Y-80407857D01*
X149184286Y-80550714D01*
X149112857Y-80622143D01*
X148970000Y-80693571D01*
X148684286Y-80693571D01*
X148541429Y-80622143D01*
D13*
X142336190Y-119981905D02*
X142693333Y-120100952D01*
X143288571Y-120100952D01*
X143526667Y-119981905D01*
X143645714Y-119862857D01*
X143764762Y-119624762D01*
X143764762Y-119386667D01*
X143645714Y-119148571D01*
X143526667Y-119029524D01*
X143288571Y-118910476D01*
X142812381Y-118791429D01*
X142574286Y-118672381D01*
X142455238Y-118553333D01*
X142336190Y-118315238D01*
X142336190Y-118077143D01*
X142455238Y-117839048D01*
X142574286Y-117720000D01*
X142812381Y-117600952D01*
X143407619Y-117600952D01*
X143764762Y-117720000D01*
X144479047Y-118434286D02*
X145431428Y-118434286D01*
X144836190Y-117600952D02*
X144836190Y-119743810D01*
X144955238Y-119981905D01*
X145193333Y-120100952D01*
X145431428Y-120100952D01*
X147336190Y-120100952D02*
X147336190Y-118791429D01*
X147217142Y-118553333D01*
X146979047Y-118434286D01*
X146502856Y-118434286D01*
X146264761Y-118553333D01*
X147336190Y-119981905D02*
X147098094Y-120100952D01*
X146502856Y-120100952D01*
X146264761Y-119981905D01*
X146145713Y-119743810D01*
X146145713Y-119505714D01*
X146264761Y-119267619D01*
X146502856Y-119148571D01*
X147098094Y-119148571D01*
X147336190Y-119029524D01*
X149598095Y-119981905D02*
X149359999Y-120100952D01*
X148883809Y-120100952D01*
X148645714Y-119981905D01*
X148526666Y-119862857D01*
X148407618Y-119624762D01*
X148407618Y-118910476D01*
X148526666Y-118672381D01*
X148645714Y-118553333D01*
X148883809Y-118434286D01*
X149359999Y-118434286D01*
X149598095Y-118553333D01*
X150669523Y-120100952D02*
X150669523Y-117600952D01*
X150907618Y-119148571D02*
X151621904Y-120100952D01*
X151621904Y-118434286D02*
X150669523Y-119386667D01*
X153764762Y-120100952D02*
X153764762Y-118791429D01*
X153645714Y-118553333D01*
X153407619Y-118434286D01*
X152931428Y-118434286D01*
X152693333Y-118553333D01*
X153764762Y-119981905D02*
X153526666Y-120100952D01*
X152931428Y-120100952D01*
X152693333Y-119981905D01*
X152574285Y-119743810D01*
X152574285Y-119505714D01*
X152693333Y-119267619D01*
X152931428Y-119148571D01*
X153526666Y-119148571D01*
X153764762Y-119029524D01*
X154955238Y-120100952D02*
X154955238Y-117600952D01*
X154955238Y-118553333D02*
X155193333Y-118434286D01*
X155669524Y-118434286D01*
X155907619Y-118553333D01*
X156026667Y-118672381D01*
X156145714Y-118910476D01*
X156145714Y-119624762D01*
X156026667Y-119862857D01*
X155907619Y-119981905D01*
X155669524Y-120100952D01*
X155193333Y-120100952D01*
X154955238Y-119981905D01*
X157574286Y-120100952D02*
X157336191Y-119981905D01*
X157217143Y-119743810D01*
X157217143Y-117600952D01*
X159479048Y-119981905D02*
X159240953Y-120100952D01*
X158764762Y-120100952D01*
X158526667Y-119981905D01*
X158407619Y-119743810D01*
X158407619Y-118791429D01*
X158526667Y-118553333D01*
X158764762Y-118434286D01*
X159240953Y-118434286D01*
X159479048Y-118553333D01*
X159598096Y-118791429D01*
X159598096Y-119029524D01*
X158407619Y-119267619D01*
X142217143Y-121850952D02*
X142812381Y-124350952D01*
X143288571Y-122565238D01*
X143764762Y-124350952D01*
X144360000Y-121850952D01*
X145312381Y-124350952D02*
X145312381Y-122684286D01*
X145312381Y-121850952D02*
X145193333Y-121970000D01*
X145312381Y-122089048D01*
X145431429Y-121970000D01*
X145312381Y-121850952D01*
X145312381Y-122089048D01*
X147336190Y-123041429D02*
X146502857Y-123041429D01*
X146502857Y-124350952D02*
X146502857Y-121850952D01*
X147693333Y-121850952D01*
X148645714Y-124350952D02*
X148645714Y-122684286D01*
X148645714Y-121850952D02*
X148526666Y-121970000D01*
X148645714Y-122089048D01*
X148764762Y-121970000D01*
X148645714Y-121850952D01*
X148645714Y-122089048D01*
X149836190Y-123398571D02*
X151740952Y-123398571D01*
X152812380Y-124231905D02*
X153169523Y-124350952D01*
X153764761Y-124350952D01*
X154002857Y-124231905D01*
X154121904Y-124112857D01*
X154240952Y-123874762D01*
X154240952Y-123636667D01*
X154121904Y-123398571D01*
X154002857Y-123279524D01*
X153764761Y-123160476D01*
X153288571Y-123041429D01*
X153050476Y-122922381D01*
X152931428Y-122803333D01*
X152812380Y-122565238D01*
X152812380Y-122327143D01*
X152931428Y-122089048D01*
X153050476Y-121970000D01*
X153288571Y-121850952D01*
X153883809Y-121850952D01*
X154240952Y-121970000D01*
X155312380Y-124350952D02*
X155312380Y-121850952D01*
X156383809Y-124350952D02*
X156383809Y-123041429D01*
X156264761Y-122803333D01*
X156026666Y-122684286D01*
X155669523Y-122684286D01*
X155431428Y-122803333D01*
X155312380Y-122922381D01*
X157574285Y-124350952D02*
X157574285Y-122684286D01*
X157574285Y-121850952D02*
X157455237Y-121970000D01*
X157574285Y-122089048D01*
X157693333Y-121970000D01*
X157574285Y-121850952D01*
X157574285Y-122089048D01*
X158407618Y-122684286D02*
X159359999Y-122684286D01*
X158764761Y-124350952D02*
X158764761Y-122208095D01*
X158883809Y-121970000D01*
X159121904Y-121850952D01*
X159359999Y-121850952D01*
X159836189Y-122684286D02*
X160788570Y-122684286D01*
X160193332Y-121850952D02*
X160193332Y-123993810D01*
X160312380Y-124231905D01*
X160550475Y-124350952D01*
X160788570Y-124350952D01*
X162574284Y-124231905D02*
X162336189Y-124350952D01*
X161859998Y-124350952D01*
X161621903Y-124231905D01*
X161502855Y-123993810D01*
X161502855Y-123041429D01*
X161621903Y-122803333D01*
X161859998Y-122684286D01*
X162336189Y-122684286D01*
X162574284Y-122803333D01*
X162693332Y-123041429D01*
X162693332Y-123279524D01*
X161502855Y-123517619D01*
X163764760Y-124350952D02*
X163764760Y-122684286D01*
X163764760Y-123160476D02*
X163883808Y-122922381D01*
X164002855Y-122803333D01*
X164240951Y-122684286D01*
X164479046Y-122684286D01*
D12*
X155080000Y-78143571D02*
X155080000Y-76643571D01*
X155437143Y-76643571D01*
X155651428Y-76715000D01*
X155794286Y-76857857D01*
X155865714Y-77000714D01*
X155937143Y-77286429D01*
X155937143Y-77500714D01*
X155865714Y-77786429D01*
X155794286Y-77929286D01*
X155651428Y-78072143D01*
X155437143Y-78143571D01*
X155080000Y-78143571D01*
X156794286Y-78143571D02*
X156651428Y-78072143D01*
X156580000Y-78000714D01*
X156508571Y-77857857D01*
X156508571Y-77429286D01*
X156580000Y-77286429D01*
X156651428Y-77215000D01*
X156794286Y-77143571D01*
X157008571Y-77143571D01*
X157151428Y-77215000D01*
X157222857Y-77286429D01*
X157294286Y-77429286D01*
X157294286Y-77857857D01*
X157222857Y-78000714D01*
X157151428Y-78072143D01*
X157008571Y-78143571D01*
X156794286Y-78143571D01*
X159080000Y-78143571D02*
X159080000Y-76643571D01*
X159937143Y-78143571D01*
X159937143Y-76643571D01*
X160937143Y-76643571D02*
X161222857Y-76643571D01*
X161365715Y-76715000D01*
X161508572Y-76857857D01*
X161580000Y-77143571D01*
X161580000Y-77643571D01*
X161508572Y-77929286D01*
X161365715Y-78072143D01*
X161222857Y-78143571D01*
X160937143Y-78143571D01*
X160794286Y-78072143D01*
X160651429Y-77929286D01*
X160580000Y-77643571D01*
X160580000Y-77143571D01*
X160651429Y-76857857D01*
X160794286Y-76715000D01*
X160937143Y-76643571D01*
X162008572Y-76643571D02*
X162865715Y-76643571D01*
X162437144Y-78143571D02*
X162437144Y-76643571D01*
X165151429Y-78072143D02*
X165008572Y-78143571D01*
X164722858Y-78143571D01*
X164580000Y-78072143D01*
X164508572Y-78000714D01*
X164437143Y-77857857D01*
X164437143Y-77429286D01*
X164508572Y-77286429D01*
X164580000Y-77215000D01*
X164722858Y-77143571D01*
X165008572Y-77143571D01*
X165151429Y-77215000D01*
X166008572Y-78143571D02*
X165865714Y-78072143D01*
X165794286Y-78000714D01*
X165722857Y-77857857D01*
X165722857Y-77429286D01*
X165794286Y-77286429D01*
X165865714Y-77215000D01*
X166008572Y-77143571D01*
X166222857Y-77143571D01*
X166365714Y-77215000D01*
X166437143Y-77286429D01*
X166508572Y-77429286D01*
X166508572Y-77857857D01*
X166437143Y-78000714D01*
X166365714Y-78072143D01*
X166222857Y-78143571D01*
X166008572Y-78143571D01*
X167151429Y-77143571D02*
X167151429Y-78143571D01*
X167151429Y-77286429D02*
X167222857Y-77215000D01*
X167365715Y-77143571D01*
X167580000Y-77143571D01*
X167722857Y-77215000D01*
X167794286Y-77357857D01*
X167794286Y-78143571D01*
X168508572Y-77143571D02*
X168508572Y-78143571D01*
X168508572Y-77286429D02*
X168580000Y-77215000D01*
X168722858Y-77143571D01*
X168937143Y-77143571D01*
X169080000Y-77215000D01*
X169151429Y-77357857D01*
X169151429Y-78143571D01*
X170437143Y-78072143D02*
X170294286Y-78143571D01*
X170008572Y-78143571D01*
X169865715Y-78072143D01*
X169794286Y-77929286D01*
X169794286Y-77357857D01*
X169865715Y-77215000D01*
X170008572Y-77143571D01*
X170294286Y-77143571D01*
X170437143Y-77215000D01*
X170508572Y-77357857D01*
X170508572Y-77500714D01*
X169794286Y-77643571D01*
X171794286Y-78072143D02*
X171651429Y-78143571D01*
X171365715Y-78143571D01*
X171222857Y-78072143D01*
X171151429Y-78000714D01*
X171080000Y-77857857D01*
X171080000Y-77429286D01*
X171151429Y-77286429D01*
X171222857Y-77215000D01*
X171365715Y-77143571D01*
X171651429Y-77143571D01*
X171794286Y-77215000D01*
X172222857Y-77143571D02*
X172794286Y-77143571D01*
X172437143Y-76643571D02*
X172437143Y-77929286D01*
X172508571Y-78072143D01*
X172651429Y-78143571D01*
X172794286Y-78143571D01*
X155937143Y-79193571D02*
X156294286Y-80693571D01*
X156580000Y-79622143D01*
X156865714Y-80693571D01*
X157222857Y-79193571D01*
X158365714Y-80622143D02*
X158222857Y-80693571D01*
X157937143Y-80693571D01*
X157794286Y-80622143D01*
X157722857Y-80479286D01*
X157722857Y-79907857D01*
X157794286Y-79765000D01*
X157937143Y-79693571D01*
X158222857Y-79693571D01*
X158365714Y-79765000D01*
X158437143Y-79907857D01*
X158437143Y-80050714D01*
X157722857Y-80193571D01*
X159080000Y-80693571D02*
X159080000Y-79193571D01*
X159580000Y-80265000D01*
X160080000Y-79193571D01*
X160080000Y-80693571D01*
X161008572Y-80693571D02*
X160865714Y-80622143D01*
X160794286Y-80550714D01*
X160722857Y-80407857D01*
X160722857Y-79979286D01*
X160794286Y-79836429D01*
X160865714Y-79765000D01*
X161008572Y-79693571D01*
X161222857Y-79693571D01*
X161365714Y-79765000D01*
X161437143Y-79836429D01*
X161508572Y-79979286D01*
X161508572Y-80407857D01*
X161437143Y-80550714D01*
X161365714Y-80622143D01*
X161222857Y-80693571D01*
X161008572Y-80693571D01*
X162080000Y-80622143D02*
X162222857Y-80693571D01*
X162508572Y-80693571D01*
X162651429Y-80622143D01*
X162722857Y-80479286D01*
X162722857Y-80407857D01*
X162651429Y-80265000D01*
X162508572Y-80193571D01*
X162294286Y-80193571D01*
X162151429Y-80122143D01*
X162080000Y-79979286D01*
X162080000Y-79907857D01*
X162151429Y-79765000D01*
X162294286Y-79693571D01*
X162508572Y-79693571D01*
X162651429Y-79765000D01*
X164437143Y-80265000D02*
X165151429Y-80265000D01*
X164294286Y-80693571D02*
X164794286Y-79193571D01*
X165294286Y-80693571D01*
X165794286Y-80693571D02*
X165794286Y-79193571D01*
X166651429Y-80693571D01*
X166651429Y-79193571D01*
X167365715Y-80693571D02*
X167365715Y-79193571D01*
X167722858Y-79193571D01*
X167937143Y-79265000D01*
X168080001Y-79407857D01*
X168151429Y-79550714D01*
X168222858Y-79836429D01*
X168222858Y-80050714D01*
X168151429Y-80336429D01*
X168080001Y-80479286D01*
X167937143Y-80622143D01*
X167722858Y-80693571D01*
X167365715Y-80693571D01*
X170008572Y-80693571D02*
X170008572Y-79193571D01*
X170722858Y-80693571D02*
X170722858Y-79193571D01*
X171580001Y-80693571D01*
X171580001Y-79193571D01*
X198183572Y-82339643D02*
X199326429Y-82339643D01*
X198755000Y-82911071D02*
X198755000Y-81768214D01*
X198183572Y-98849643D02*
X199326429Y-98849643D01*
X198755000Y-99421071D02*
X198755000Y-98278214D01*
X198183572Y-115359643D02*
X199326429Y-115359643D01*
X198755000Y-115931071D02*
X198755000Y-114788214D01*
X198183572Y-131869643D02*
X199326429Y-131869643D01*
X198755000Y-132441071D02*
X198755000Y-131298214D01*
X163044286Y-70528571D02*
X163044286Y-69028571D01*
X163758572Y-70528571D02*
X163758572Y-69028571D01*
X164615715Y-70528571D01*
X164615715Y-69028571D01*
X177570000Y-69028571D02*
X177855714Y-69028571D01*
X177998572Y-69100000D01*
X178141429Y-69242857D01*
X178212857Y-69528571D01*
X178212857Y-70028571D01*
X178141429Y-70314286D01*
X177998572Y-70457143D01*
X177855714Y-70528571D01*
X177570000Y-70528571D01*
X177427143Y-70457143D01*
X177284286Y-70314286D01*
X177212857Y-70028571D01*
X177212857Y-69528571D01*
X177284286Y-69242857D01*
X177427143Y-69100000D01*
X177570000Y-69028571D01*
X178855715Y-69028571D02*
X178855715Y-70242857D01*
X178927143Y-70385714D01*
X178998572Y-70457143D01*
X179141429Y-70528571D01*
X179427143Y-70528571D01*
X179570001Y-70457143D01*
X179641429Y-70385714D01*
X179712858Y-70242857D01*
X179712858Y-69028571D01*
X180212858Y-69028571D02*
X181070001Y-69028571D01*
X180641430Y-70528571D02*
X180641430Y-69028571D01*
D10*
X139932772Y-111464972D02*
X139932772Y-105653680D01*
X139932772Y-105653680D02*
X141216205Y-105627349D01*
X141216205Y-105627349D02*
X141209517Y-96796127D01*
X141209517Y-96796127D02*
X140007264Y-96798103D01*
X140007264Y-96798103D02*
X140033342Y-87717307D01*
X140033342Y-87717307D02*
X171203493Y-87731305D01*
X171203493Y-87731305D02*
X171806286Y-87964116D01*
X171806286Y-87964116D02*
X172351167Y-88247599D01*
X172351167Y-88247599D02*
X172837577Y-88582247D01*
X172837577Y-88582247D02*
X173264952Y-88968547D01*
X173264952Y-88968547D02*
X173632741Y-89406988D01*
X173632741Y-89406988D02*
X173940377Y-89898060D01*
X173940377Y-89898060D02*
X174187310Y-90442250D01*
X174187310Y-90442250D02*
X174372976Y-91040047D01*
X174372976Y-91040047D02*
X174401734Y-110077960D01*
X174401734Y-110077960D02*
X174167741Y-110697324D01*
X174167741Y-110697324D02*
X173883258Y-111285518D01*
X173883258Y-111285518D02*
X173533743Y-111828945D01*
X173533743Y-111828945D02*
X173104658Y-112314003D01*
X173104658Y-112314003D02*
X172581460Y-112727095D01*
X172581460Y-112727095D02*
X171949613Y-113054622D01*
X171949613Y-113054622D02*
X171194575Y-113282982D01*
X171194575Y-113282982D02*
X170301807Y-113398578D01*
X170301807Y-113398578D02*
X147746715Y-113423526D01*
X147746715Y-113423526D02*
X146785819Y-111479980D01*
X146785819Y-111479980D02*
X139977476Y-111450186D01*
X146158549Y-97467850D02*
X146158549Y-104607431D01*
X146158549Y-104607431D02*
X140344812Y-104607431D01*
X140344812Y-104607431D02*
X140344812Y-97467850D01*
X140344812Y-97467850D02*
X146158549Y-97467850D01*
X146807651Y-111391100D02*
X146807651Y-109838878D01*
X146807651Y-109838878D02*
X146278485Y-109309711D01*
X146278485Y-109309711D02*
X146278485Y-108057350D01*
X146278485Y-108057350D02*
X141216124Y-108057350D01*
X141216124Y-108057350D02*
X141216124Y-109344989D01*
X141216124Y-109344989D02*
X140722235Y-109874156D01*
X140722235Y-109874156D02*
X140722235Y-111444017D01*
X140722235Y-111444017D02*
X146807651Y-111391100D01*
X144726262Y-111426378D02*
X144726262Y-112079017D01*
X144726262Y-112079017D02*
X142733068Y-112079017D01*
X142733068Y-112079017D02*
X142733068Y-111461656D01*
D14*
X181320943Y-131180162D02*
G75*
G03X181320000Y-125319522I-980943J2930162D01*
G01*
X179359057Y-131180162D02*
G75*
G02X179360000Y-125319522I980943J2930162D01*
G01*
X179359057Y-131180162D02*
G75*
G03X181320000Y-131180478I980943J2930162D01*
G01*
X180340000Y-124800000D02*
X180340000Y-126000000D01*
X180990000Y-125400000D02*
X179690000Y-125400000D01*
D15*
X177038000Y-122428000D02*
X177038000Y-121666000D01*
X177038000Y-121666000D02*
X178562000Y-121666000D01*
X178562000Y-121666000D02*
X178562000Y-122428000D01*
X175514000Y-111252000D02*
X180086000Y-111252000D01*
X180086000Y-111252000D02*
X180086000Y-122428000D01*
X180086000Y-122428000D02*
X175514000Y-122428000D01*
X175514000Y-122428000D02*
X175514000Y-111252000D01*
X177038000Y-89408000D02*
X177038000Y-88646000D01*
X177038000Y-88646000D02*
X178562000Y-88646000D01*
X178562000Y-88646000D02*
X178562000Y-89408000D01*
X175514000Y-78232000D02*
X180086000Y-78232000D01*
X180086000Y-78232000D02*
X180086000Y-89408000D01*
X180086000Y-89408000D02*
X175514000Y-89408000D01*
X175514000Y-89408000D02*
X175514000Y-78232000D01*
D14*
X186980000Y-127340000D02*
X188780000Y-127340000D01*
X188780000Y-124120000D02*
X186330000Y-124120000D01*
X187060000Y-122260000D02*
X188860000Y-122260000D01*
X188860000Y-119040000D02*
X186410000Y-119040000D01*
X187060000Y-110830000D02*
X188860000Y-110830000D01*
X188860000Y-107610000D02*
X186410000Y-107610000D01*
X187060000Y-105750000D02*
X188860000Y-105750000D01*
X188860000Y-102530000D02*
X186410000Y-102530000D01*
X187060000Y-94320000D02*
X188860000Y-94320000D01*
X188860000Y-91100000D02*
X186410000Y-91100000D01*
X187060000Y-89240000D02*
X188860000Y-89240000D01*
X188860000Y-86020000D02*
X186410000Y-86020000D01*
X187060000Y-77810000D02*
X188860000Y-77810000D01*
X188860000Y-74590000D02*
X186410000Y-74590000D01*
X187060000Y-72730000D02*
X188860000Y-72730000D01*
X188860000Y-69510000D02*
X186410000Y-69510000D01*
X199390000Y-127960000D02*
X195040000Y-127960000D01*
X195040000Y-127960000D02*
X195040000Y-120960000D01*
X195040000Y-120960000D02*
X199390000Y-120960000D01*
X193190000Y-129260000D02*
X193190000Y-129610000D01*
X193190000Y-129610000D02*
X191590000Y-129610000D01*
X191590000Y-129610000D02*
X191590000Y-130510000D01*
X191590000Y-130510000D02*
X199390000Y-130510000D01*
X199390000Y-130510000D02*
X199390000Y-118410000D01*
X199390000Y-118410000D02*
X191590000Y-118410000D01*
X191590000Y-118410000D02*
X191590000Y-119310000D01*
X191590000Y-119310000D02*
X193190000Y-119310000D01*
X193190000Y-119310000D02*
X193190000Y-119660000D01*
X193190000Y-130510000D02*
X193190000Y-129610000D01*
X193190000Y-118410000D02*
X193190000Y-119310000D01*
X195540000Y-129760000D02*
X197140000Y-129760000D01*
X197140000Y-129760000D02*
X197140000Y-128760000D01*
X197140000Y-128760000D02*
X195540000Y-128760000D01*
X195540000Y-128760000D02*
X195540000Y-129760000D01*
X195540000Y-119160000D02*
X197140000Y-119160000D01*
X197140000Y-119160000D02*
X197140000Y-120160000D01*
X197140000Y-120160000D02*
X195540000Y-120160000D01*
X195540000Y-120160000D02*
X195540000Y-119160000D01*
X197140000Y-128760000D02*
X199390000Y-128760000D01*
X197140000Y-129260000D02*
X199390000Y-129260000D01*
X193190000Y-129260000D02*
X191990000Y-129260000D01*
X199390000Y-111260000D02*
X195040000Y-111260000D01*
X195040000Y-111260000D02*
X195040000Y-104260000D01*
X195040000Y-104260000D02*
X199390000Y-104260000D01*
X193190000Y-112560000D02*
X193190000Y-112910000D01*
X193190000Y-112910000D02*
X191590000Y-112910000D01*
X191590000Y-112910000D02*
X191590000Y-113810000D01*
X191590000Y-113810000D02*
X199390000Y-113810000D01*
X199390000Y-113810000D02*
X199390000Y-101710000D01*
X199390000Y-101710000D02*
X191590000Y-101710000D01*
X191590000Y-101710000D02*
X191590000Y-102610000D01*
X191590000Y-102610000D02*
X193190000Y-102610000D01*
X193190000Y-102610000D02*
X193190000Y-102960000D01*
X193190000Y-113810000D02*
X193190000Y-112910000D01*
X193190000Y-101710000D02*
X193190000Y-102610000D01*
X195540000Y-113060000D02*
X197140000Y-113060000D01*
X197140000Y-113060000D02*
X197140000Y-112060000D01*
X197140000Y-112060000D02*
X195540000Y-112060000D01*
X195540000Y-112060000D02*
X195540000Y-113060000D01*
X195540000Y-102460000D02*
X197140000Y-102460000D01*
X197140000Y-102460000D02*
X197140000Y-103460000D01*
X197140000Y-103460000D02*
X195540000Y-103460000D01*
X195540000Y-103460000D02*
X195540000Y-102460000D01*
X197140000Y-112060000D02*
X199390000Y-112060000D01*
X197140000Y-112560000D02*
X199390000Y-112560000D01*
X193190000Y-112560000D02*
X191990000Y-112560000D01*
X199390000Y-94940000D02*
X195040000Y-94940000D01*
X195040000Y-94940000D02*
X195040000Y-87940000D01*
X195040000Y-87940000D02*
X199390000Y-87940000D01*
X193190000Y-96240000D02*
X193190000Y-96590000D01*
X193190000Y-96590000D02*
X191590000Y-96590000D01*
X191590000Y-96590000D02*
X191590000Y-97490000D01*
X191590000Y-97490000D02*
X199390000Y-97490000D01*
X199390000Y-97490000D02*
X199390000Y-85390000D01*
X199390000Y-85390000D02*
X191590000Y-85390000D01*
X191590000Y-85390000D02*
X191590000Y-86290000D01*
X191590000Y-86290000D02*
X193190000Y-86290000D01*
X193190000Y-86290000D02*
X193190000Y-86640000D01*
X193190000Y-97490000D02*
X193190000Y-96590000D01*
X193190000Y-85390000D02*
X193190000Y-86290000D01*
X195540000Y-96740000D02*
X197140000Y-96740000D01*
X197140000Y-96740000D02*
X197140000Y-95740000D01*
X197140000Y-95740000D02*
X195540000Y-95740000D01*
X195540000Y-95740000D02*
X195540000Y-96740000D01*
X195540000Y-86140000D02*
X197140000Y-86140000D01*
X197140000Y-86140000D02*
X197140000Y-87140000D01*
X197140000Y-87140000D02*
X195540000Y-87140000D01*
X195540000Y-87140000D02*
X195540000Y-86140000D01*
X197140000Y-95740000D02*
X199390000Y-95740000D01*
X197140000Y-96240000D02*
X199390000Y-96240000D01*
X193190000Y-96240000D02*
X191990000Y-96240000D01*
X199390000Y-78430000D02*
X195040000Y-78430000D01*
X195040000Y-78430000D02*
X195040000Y-71430000D01*
X195040000Y-71430000D02*
X199390000Y-71430000D01*
X193190000Y-79730000D02*
X193190000Y-80080000D01*
X193190000Y-80080000D02*
X191590000Y-80080000D01*
X191590000Y-80080000D02*
X191590000Y-80980000D01*
X191590000Y-80980000D02*
X199390000Y-80980000D01*
X199390000Y-80980000D02*
X199390000Y-68880000D01*
X199390000Y-68880000D02*
X191590000Y-68880000D01*
X191590000Y-68880000D02*
X191590000Y-69780000D01*
X191590000Y-69780000D02*
X193190000Y-69780000D01*
X193190000Y-69780000D02*
X193190000Y-70130000D01*
X193190000Y-80980000D02*
X193190000Y-80080000D01*
X193190000Y-68880000D02*
X193190000Y-69780000D01*
X195540000Y-80230000D02*
X197140000Y-80230000D01*
X197140000Y-80230000D02*
X197140000Y-79230000D01*
X197140000Y-79230000D02*
X195540000Y-79230000D01*
X195540000Y-79230000D02*
X195540000Y-80230000D01*
X195540000Y-69630000D02*
X197140000Y-69630000D01*
X197140000Y-69630000D02*
X197140000Y-70630000D01*
X197140000Y-70630000D02*
X195540000Y-70630000D01*
X195540000Y-70630000D02*
X195540000Y-69630000D01*
X197140000Y-79230000D02*
X199390000Y-79230000D01*
X197140000Y-79730000D02*
X199390000Y-79730000D01*
X193190000Y-79730000D02*
X191990000Y-79730000D01*
X167520000Y-60325000D02*
X167520000Y-64675000D01*
X167520000Y-64675000D02*
X160520000Y-64675000D01*
X160520000Y-64675000D02*
X160520000Y-60325000D01*
X168820000Y-66525000D02*
X169170000Y-66525000D01*
X169170000Y-66525000D02*
X169170000Y-68125000D01*
X169170000Y-68125000D02*
X170070000Y-68125000D01*
X170070000Y-68125000D02*
X170070000Y-60325000D01*
X170070000Y-60325000D02*
X157970000Y-60325000D01*
X157970000Y-60325000D02*
X157970000Y-68125000D01*
X157970000Y-68125000D02*
X158870000Y-68125000D01*
X158870000Y-68125000D02*
X158870000Y-66525000D01*
X158870000Y-66525000D02*
X159220000Y-66525000D01*
X170070000Y-66525000D02*
X169170000Y-66525000D01*
X157970000Y-66525000D02*
X158870000Y-66525000D01*
X169320000Y-64175000D02*
X169320000Y-62575000D01*
X169320000Y-62575000D02*
X168320000Y-62575000D01*
X168320000Y-62575000D02*
X168320000Y-64175000D01*
X168320000Y-64175000D02*
X169320000Y-64175000D01*
X158720000Y-64175000D02*
X158720000Y-62575000D01*
X158720000Y-62575000D02*
X159720000Y-62575000D01*
X159720000Y-62575000D02*
X159720000Y-64175000D01*
X159720000Y-64175000D02*
X158720000Y-64175000D01*
X168320000Y-62575000D02*
X168320000Y-60325000D01*
X168820000Y-62575000D02*
X168820000Y-60325000D01*
X168820000Y-66525000D02*
X168820000Y-67725000D01*
X182570000Y-60325000D02*
X182570000Y-64675000D01*
X182570000Y-64675000D02*
X175570000Y-64675000D01*
X175570000Y-64675000D02*
X175570000Y-60325000D01*
X183870000Y-66525000D02*
X184220000Y-66525000D01*
X184220000Y-66525000D02*
X184220000Y-68125000D01*
X184220000Y-68125000D02*
X185120000Y-68125000D01*
X185120000Y-68125000D02*
X185120000Y-60325000D01*
X185120000Y-60325000D02*
X173020000Y-60325000D01*
X173020000Y-60325000D02*
X173020000Y-68125000D01*
X173020000Y-68125000D02*
X173920000Y-68125000D01*
X173920000Y-68125000D02*
X173920000Y-66525000D01*
X173920000Y-66525000D02*
X174270000Y-66525000D01*
X185120000Y-66525000D02*
X184220000Y-66525000D01*
X173020000Y-66525000D02*
X173920000Y-66525000D01*
X184370000Y-64175000D02*
X184370000Y-62575000D01*
X184370000Y-62575000D02*
X183370000Y-62575000D01*
X183370000Y-62575000D02*
X183370000Y-64175000D01*
X183370000Y-64175000D02*
X184370000Y-64175000D01*
X173770000Y-64175000D02*
X173770000Y-62575000D01*
X173770000Y-62575000D02*
X174770000Y-62575000D01*
X174770000Y-62575000D02*
X174770000Y-64175000D01*
X174770000Y-64175000D02*
X173770000Y-64175000D01*
X183370000Y-62575000D02*
X183370000Y-60325000D01*
X183870000Y-62575000D02*
X183870000Y-60325000D01*
X183870000Y-66525000D02*
X183870000Y-67725000D01*
X149850000Y-86480000D02*
X149850000Y-83820000D01*
X149850000Y-83820000D02*
X147110000Y-83820000D01*
X147110000Y-83820000D02*
X147110000Y-86480000D01*
X147110000Y-86480000D02*
X149850000Y-86480000D01*
X147110000Y-85530000D02*
X147110000Y-84650000D01*
X147110000Y-84650000D02*
X141110000Y-84650000D01*
X141110000Y-84650000D02*
X141110000Y-85530000D01*
X141110000Y-85530000D02*
X147110000Y-85530000D01*
X150160000Y-85530000D02*
X149850000Y-85530000D01*
X150160000Y-84650000D02*
X149850000Y-84650000D01*
X147110000Y-85410000D02*
X141110000Y-85410000D01*
X147110000Y-85290000D02*
X141110000Y-85290000D01*
X147110000Y-85170000D02*
X141110000Y-85170000D01*
X147110000Y-85050000D02*
X141110000Y-85050000D01*
X147110000Y-84930000D02*
X141110000Y-84930000D01*
X147110000Y-84810000D02*
X141110000Y-84810000D01*
X147110000Y-84690000D02*
X141110000Y-84690000D01*
X149850000Y-83820000D02*
X149850000Y-81160000D01*
X149850000Y-81160000D02*
X147110000Y-81160000D01*
X147110000Y-81160000D02*
X147110000Y-83820000D01*
X147110000Y-83820000D02*
X149850000Y-83820000D01*
X147110000Y-82990000D02*
X147110000Y-82110000D01*
X147110000Y-82110000D02*
X141110000Y-82110000D01*
X141110000Y-82110000D02*
X141110000Y-82990000D01*
X141110000Y-82990000D02*
X147110000Y-82990000D01*
X150160000Y-82990000D02*
X149850000Y-82990000D01*
X150160000Y-82110000D02*
X149850000Y-82110000D01*
X152400000Y-85090000D02*
X152400000Y-86360000D01*
X152400000Y-86360000D02*
X151130000Y-86360000D01*
D15*
X181420000Y-139525000D02*
X181420000Y-137525000D01*
X184420000Y-137525000D02*
X184420000Y-139525000D01*
X186420000Y-139525000D02*
X186420000Y-137525000D01*
X189420000Y-139525000D02*
X189420000Y-137525000D01*
X190420000Y-133525000D02*
X180420000Y-133525000D01*
X184420000Y-136525000D02*
G75*
G03X184420000Y-136525000I-1500000J0D01*
G01*
X189420000Y-136525000D02*
G75*
G03X189420000Y-136525000I-1500000J0D01*
G01*
X180420000Y-139525000D02*
X180420000Y-132025000D01*
X190420000Y-132025000D02*
X190420000Y-139525000D01*
X190420000Y-132025000D02*
X180420000Y-132025000D01*
X190420000Y-139525000D02*
X180420000Y-139525000D01*
X182078334Y-128627143D02*
X182030715Y-128674762D01*
X181887858Y-128722381D01*
X181792620Y-128722381D01*
X181649762Y-128674762D01*
X181554524Y-128579524D01*
X181506905Y-128484286D01*
X181459286Y-128293810D01*
X181459286Y-128150952D01*
X181506905Y-127960476D01*
X181554524Y-127865238D01*
X181649762Y-127770000D01*
X181792620Y-127722381D01*
X181887858Y-127722381D01*
X182030715Y-127770000D01*
X182078334Y-127817619D01*
X182459286Y-127817619D02*
X182506905Y-127770000D01*
X182602143Y-127722381D01*
X182840239Y-127722381D01*
X182935477Y-127770000D01*
X182983096Y-127817619D01*
X183030715Y-127912857D01*
X183030715Y-128008095D01*
X182983096Y-128150952D01*
X182411667Y-128722381D01*
X183030715Y-128722381D01*
X177038095Y-123277381D02*
X177038095Y-124086905D01*
X177085714Y-124182143D01*
X177133333Y-124229762D01*
X177228571Y-124277381D01*
X177419048Y-124277381D01*
X177514286Y-124229762D01*
X177561905Y-124182143D01*
X177609524Y-124086905D01*
X177609524Y-123277381D01*
X178038095Y-123372619D02*
X178085714Y-123325000D01*
X178180952Y-123277381D01*
X178419048Y-123277381D01*
X178514286Y-123325000D01*
X178561905Y-123372619D01*
X178609524Y-123467857D01*
X178609524Y-123563095D01*
X178561905Y-123705952D01*
X177990476Y-124277381D01*
X178609524Y-124277381D01*
X177038095Y-90257381D02*
X177038095Y-91066905D01*
X177085714Y-91162143D01*
X177133333Y-91209762D01*
X177228571Y-91257381D01*
X177419048Y-91257381D01*
X177514286Y-91209762D01*
X177561905Y-91162143D01*
X177609524Y-91066905D01*
X177609524Y-90257381D01*
X177990476Y-90257381D02*
X178609524Y-90257381D01*
X178276190Y-90638333D01*
X178419048Y-90638333D01*
X178514286Y-90685952D01*
X178561905Y-90733571D01*
X178609524Y-90828810D01*
X178609524Y-91066905D01*
X178561905Y-91162143D01*
X178514286Y-91209762D01*
X178419048Y-91257381D01*
X178133333Y-91257381D01*
X178038095Y-91209762D01*
X177990476Y-91162143D01*
X187864762Y-129452619D02*
X187769524Y-129405000D01*
X187674286Y-129309762D01*
X187531429Y-129166905D01*
X187436190Y-129119286D01*
X187340952Y-129119286D01*
X187388571Y-129357381D02*
X187293333Y-129309762D01*
X187198095Y-129214524D01*
X187150476Y-129024048D01*
X187150476Y-128690714D01*
X187198095Y-128500238D01*
X187293333Y-128405000D01*
X187388571Y-128357381D01*
X187579048Y-128357381D01*
X187674286Y-128405000D01*
X187769524Y-128500238D01*
X187817143Y-128690714D01*
X187817143Y-129024048D01*
X187769524Y-129214524D01*
X187674286Y-129309762D01*
X187579048Y-129357381D01*
X187388571Y-129357381D01*
X188769524Y-129357381D02*
X188198095Y-129357381D01*
X188483809Y-129357381D02*
X188483809Y-128357381D01*
X188388571Y-128500238D01*
X188293333Y-128595476D01*
X188198095Y-128643095D01*
X187864762Y-118297619D02*
X187769524Y-118250000D01*
X187674286Y-118154762D01*
X187531429Y-118011905D01*
X187436190Y-117964286D01*
X187340952Y-117964286D01*
X187388571Y-118202381D02*
X187293333Y-118154762D01*
X187198095Y-118059524D01*
X187150476Y-117869048D01*
X187150476Y-117535714D01*
X187198095Y-117345238D01*
X187293333Y-117250000D01*
X187388571Y-117202381D01*
X187579048Y-117202381D01*
X187674286Y-117250000D01*
X187769524Y-117345238D01*
X187817143Y-117535714D01*
X187817143Y-117869048D01*
X187769524Y-118059524D01*
X187674286Y-118154762D01*
X187579048Y-118202381D01*
X187388571Y-118202381D01*
X188198095Y-117297619D02*
X188245714Y-117250000D01*
X188340952Y-117202381D01*
X188579048Y-117202381D01*
X188674286Y-117250000D01*
X188721905Y-117297619D01*
X188769524Y-117392857D01*
X188769524Y-117488095D01*
X188721905Y-117630952D01*
X188150476Y-118202381D01*
X188769524Y-118202381D01*
X187864762Y-112942619D02*
X187769524Y-112895000D01*
X187674286Y-112799762D01*
X187531429Y-112656905D01*
X187436190Y-112609286D01*
X187340952Y-112609286D01*
X187388571Y-112847381D02*
X187293333Y-112799762D01*
X187198095Y-112704524D01*
X187150476Y-112514048D01*
X187150476Y-112180714D01*
X187198095Y-111990238D01*
X187293333Y-111895000D01*
X187388571Y-111847381D01*
X187579048Y-111847381D01*
X187674286Y-111895000D01*
X187769524Y-111990238D01*
X187817143Y-112180714D01*
X187817143Y-112514048D01*
X187769524Y-112704524D01*
X187674286Y-112799762D01*
X187579048Y-112847381D01*
X187388571Y-112847381D01*
X188150476Y-111847381D02*
X188769524Y-111847381D01*
X188436190Y-112228333D01*
X188579048Y-112228333D01*
X188674286Y-112275952D01*
X188721905Y-112323571D01*
X188769524Y-112418810D01*
X188769524Y-112656905D01*
X188721905Y-112752143D01*
X188674286Y-112799762D01*
X188579048Y-112847381D01*
X188293333Y-112847381D01*
X188198095Y-112799762D01*
X188150476Y-112752143D01*
X187864762Y-101787619D02*
X187769524Y-101740000D01*
X187674286Y-101644762D01*
X187531429Y-101501905D01*
X187436190Y-101454286D01*
X187340952Y-101454286D01*
X187388571Y-101692381D02*
X187293333Y-101644762D01*
X187198095Y-101549524D01*
X187150476Y-101359048D01*
X187150476Y-101025714D01*
X187198095Y-100835238D01*
X187293333Y-100740000D01*
X187388571Y-100692381D01*
X187579048Y-100692381D01*
X187674286Y-100740000D01*
X187769524Y-100835238D01*
X187817143Y-101025714D01*
X187817143Y-101359048D01*
X187769524Y-101549524D01*
X187674286Y-101644762D01*
X187579048Y-101692381D01*
X187388571Y-101692381D01*
X188674286Y-101025714D02*
X188674286Y-101692381D01*
X188436190Y-100644762D02*
X188198095Y-101359048D01*
X188817143Y-101359048D01*
X187864762Y-96432619D02*
X187769524Y-96385000D01*
X187674286Y-96289762D01*
X187531429Y-96146905D01*
X187436190Y-96099286D01*
X187340952Y-96099286D01*
X187388571Y-96337381D02*
X187293333Y-96289762D01*
X187198095Y-96194524D01*
X187150476Y-96004048D01*
X187150476Y-95670714D01*
X187198095Y-95480238D01*
X187293333Y-95385000D01*
X187388571Y-95337381D01*
X187579048Y-95337381D01*
X187674286Y-95385000D01*
X187769524Y-95480238D01*
X187817143Y-95670714D01*
X187817143Y-96004048D01*
X187769524Y-96194524D01*
X187674286Y-96289762D01*
X187579048Y-96337381D01*
X187388571Y-96337381D01*
X188721905Y-95337381D02*
X188245714Y-95337381D01*
X188198095Y-95813571D01*
X188245714Y-95765952D01*
X188340952Y-95718333D01*
X188579048Y-95718333D01*
X188674286Y-95765952D01*
X188721905Y-95813571D01*
X188769524Y-95908810D01*
X188769524Y-96146905D01*
X188721905Y-96242143D01*
X188674286Y-96289762D01*
X188579048Y-96337381D01*
X188340952Y-96337381D01*
X188245714Y-96289762D01*
X188198095Y-96242143D01*
X187864762Y-85277619D02*
X187769524Y-85230000D01*
X187674286Y-85134762D01*
X187531429Y-84991905D01*
X187436190Y-84944286D01*
X187340952Y-84944286D01*
X187388571Y-85182381D02*
X187293333Y-85134762D01*
X187198095Y-85039524D01*
X187150476Y-84849048D01*
X187150476Y-84515714D01*
X187198095Y-84325238D01*
X187293333Y-84230000D01*
X187388571Y-84182381D01*
X187579048Y-84182381D01*
X187674286Y-84230000D01*
X187769524Y-84325238D01*
X187817143Y-84515714D01*
X187817143Y-84849048D01*
X187769524Y-85039524D01*
X187674286Y-85134762D01*
X187579048Y-85182381D01*
X187388571Y-85182381D01*
X188674286Y-84182381D02*
X188483809Y-84182381D01*
X188388571Y-84230000D01*
X188340952Y-84277619D01*
X188245714Y-84420476D01*
X188198095Y-84610952D01*
X188198095Y-84991905D01*
X188245714Y-85087143D01*
X188293333Y-85134762D01*
X188388571Y-85182381D01*
X188579048Y-85182381D01*
X188674286Y-85134762D01*
X188721905Y-85087143D01*
X188769524Y-84991905D01*
X188769524Y-84753810D01*
X188721905Y-84658571D01*
X188674286Y-84610952D01*
X188579048Y-84563333D01*
X188388571Y-84563333D01*
X188293333Y-84610952D01*
X188245714Y-84658571D01*
X188198095Y-84753810D01*
X187864762Y-79922619D02*
X187769524Y-79875000D01*
X187674286Y-79779762D01*
X187531429Y-79636905D01*
X187436190Y-79589286D01*
X187340952Y-79589286D01*
X187388571Y-79827381D02*
X187293333Y-79779762D01*
X187198095Y-79684524D01*
X187150476Y-79494048D01*
X187150476Y-79160714D01*
X187198095Y-78970238D01*
X187293333Y-78875000D01*
X187388571Y-78827381D01*
X187579048Y-78827381D01*
X187674286Y-78875000D01*
X187769524Y-78970238D01*
X187817143Y-79160714D01*
X187817143Y-79494048D01*
X187769524Y-79684524D01*
X187674286Y-79779762D01*
X187579048Y-79827381D01*
X187388571Y-79827381D01*
X188150476Y-78827381D02*
X188817143Y-78827381D01*
X188388571Y-79827381D01*
X187864762Y-68767619D02*
X187769524Y-68720000D01*
X187674286Y-68624762D01*
X187531429Y-68481905D01*
X187436190Y-68434286D01*
X187340952Y-68434286D01*
X187388571Y-68672381D02*
X187293333Y-68624762D01*
X187198095Y-68529524D01*
X187150476Y-68339048D01*
X187150476Y-68005714D01*
X187198095Y-67815238D01*
X187293333Y-67720000D01*
X187388571Y-67672381D01*
X187579048Y-67672381D01*
X187674286Y-67720000D01*
X187769524Y-67815238D01*
X187817143Y-68005714D01*
X187817143Y-68339048D01*
X187769524Y-68529524D01*
X187674286Y-68624762D01*
X187579048Y-68672381D01*
X187388571Y-68672381D01*
X188388571Y-68100952D02*
X188293333Y-68053333D01*
X188245714Y-68005714D01*
X188198095Y-67910476D01*
X188198095Y-67862857D01*
X188245714Y-67767619D01*
X188293333Y-67720000D01*
X188388571Y-67672381D01*
X188579048Y-67672381D01*
X188674286Y-67720000D01*
X188721905Y-67767619D01*
X188769524Y-67862857D01*
X188769524Y-67910476D01*
X188721905Y-68005714D01*
X188674286Y-68053333D01*
X188579048Y-68100952D01*
X188388571Y-68100952D01*
X188293333Y-68148571D01*
X188245714Y-68196190D01*
X188198095Y-68291429D01*
X188198095Y-68481905D01*
X188245714Y-68577143D01*
X188293333Y-68624762D01*
X188388571Y-68672381D01*
X188579048Y-68672381D01*
X188674286Y-68624762D01*
X188721905Y-68577143D01*
X188769524Y-68481905D01*
X188769524Y-68291429D01*
X188721905Y-68196190D01*
X188674286Y-68148571D01*
X188579048Y-68100952D01*
M02*
