G04 #@! TF.FileFunction,Legend,Bot*
%FSLAX46Y46*%
G04 Gerber Fmt 4.6, Leading zero omitted, Abs format (unit mm)*
G04 Created by KiCad (PCBNEW 4.0.5) date Sunday, 26 February 2017 'PMt' 14:45:35*
%MOMM*%
%LPD*%
G01*
G04 APERTURE LIST*
%ADD10C,0.100000*%
%ADD11C,0.300000*%
%ADD12C,0.200000*%
%ADD13C,0.150000*%
G04 APERTURE END LIST*
D10*
D11*
X173410714Y-72280714D02*
X173482143Y-72352143D01*
X173696429Y-72423571D01*
X173839286Y-72423571D01*
X174053571Y-72352143D01*
X174196429Y-72209286D01*
X174267857Y-72066429D01*
X174339286Y-71780714D01*
X174339286Y-71566429D01*
X174267857Y-71280714D01*
X174196429Y-71137857D01*
X174053571Y-70995000D01*
X173839286Y-70923571D01*
X173696429Y-70923571D01*
X173482143Y-70995000D01*
X173410714Y-71066429D01*
X172553571Y-72423571D02*
X172696429Y-72352143D01*
X172767857Y-72280714D01*
X172839286Y-72137857D01*
X172839286Y-71709286D01*
X172767857Y-71566429D01*
X172696429Y-71495000D01*
X172553571Y-71423571D01*
X172339286Y-71423571D01*
X172196429Y-71495000D01*
X172125000Y-71566429D01*
X172053571Y-71709286D01*
X172053571Y-72137857D01*
X172125000Y-72280714D01*
X172196429Y-72352143D01*
X172339286Y-72423571D01*
X172553571Y-72423571D01*
X171410714Y-71423571D02*
X171410714Y-72423571D01*
X171410714Y-71566429D02*
X171339286Y-71495000D01*
X171196428Y-71423571D01*
X170982143Y-71423571D01*
X170839286Y-71495000D01*
X170767857Y-71637857D01*
X170767857Y-72423571D01*
X170053571Y-71423571D02*
X170053571Y-72423571D01*
X170053571Y-71566429D02*
X169982143Y-71495000D01*
X169839285Y-71423571D01*
X169625000Y-71423571D01*
X169482143Y-71495000D01*
X169410714Y-71637857D01*
X169410714Y-72423571D01*
X168125000Y-72352143D02*
X168267857Y-72423571D01*
X168553571Y-72423571D01*
X168696428Y-72352143D01*
X168767857Y-72209286D01*
X168767857Y-71637857D01*
X168696428Y-71495000D01*
X168553571Y-71423571D01*
X168267857Y-71423571D01*
X168125000Y-71495000D01*
X168053571Y-71637857D01*
X168053571Y-71780714D01*
X168767857Y-71923571D01*
X166767857Y-72352143D02*
X166910714Y-72423571D01*
X167196428Y-72423571D01*
X167339286Y-72352143D01*
X167410714Y-72280714D01*
X167482143Y-72137857D01*
X167482143Y-71709286D01*
X167410714Y-71566429D01*
X167339286Y-71495000D01*
X167196428Y-71423571D01*
X166910714Y-71423571D01*
X166767857Y-71495000D01*
X166339286Y-71423571D02*
X165767857Y-71423571D01*
X166125000Y-70923571D02*
X166125000Y-72209286D01*
X166053572Y-72352143D01*
X165910714Y-72423571D01*
X165767857Y-72423571D01*
X165053571Y-72423571D02*
X165196429Y-72352143D01*
X165267857Y-72280714D01*
X165339286Y-72137857D01*
X165339286Y-71709286D01*
X165267857Y-71566429D01*
X165196429Y-71495000D01*
X165053571Y-71423571D01*
X164839286Y-71423571D01*
X164696429Y-71495000D01*
X164625000Y-71566429D01*
X164553571Y-71709286D01*
X164553571Y-72137857D01*
X164625000Y-72280714D01*
X164696429Y-72352143D01*
X164839286Y-72423571D01*
X165053571Y-72423571D01*
X163910714Y-72423571D02*
X163910714Y-71423571D01*
X163910714Y-71709286D02*
X163839286Y-71566429D01*
X163767857Y-71495000D01*
X163625000Y-71423571D01*
X163482143Y-71423571D01*
X163053572Y-72352143D02*
X162910715Y-72423571D01*
X162625000Y-72423571D01*
X162482143Y-72352143D01*
X162410715Y-72209286D01*
X162410715Y-72137857D01*
X162482143Y-71995000D01*
X162625000Y-71923571D01*
X162839286Y-71923571D01*
X162982143Y-71852143D01*
X163053572Y-71709286D01*
X163053572Y-71637857D01*
X162982143Y-71495000D01*
X162839286Y-71423571D01*
X162625000Y-71423571D01*
X162482143Y-71495000D01*
X159982143Y-72423571D02*
X159982143Y-71637857D01*
X160053572Y-71495000D01*
X160196429Y-71423571D01*
X160482143Y-71423571D01*
X160625000Y-71495000D01*
X159982143Y-72352143D02*
X160125000Y-72423571D01*
X160482143Y-72423571D01*
X160625000Y-72352143D01*
X160696429Y-72209286D01*
X160696429Y-72066429D01*
X160625000Y-71923571D01*
X160482143Y-71852143D01*
X160125000Y-71852143D01*
X159982143Y-71780714D01*
X159267857Y-72423571D02*
X159267857Y-71423571D01*
X159267857Y-71709286D02*
X159196429Y-71566429D01*
X159125000Y-71495000D01*
X158982143Y-71423571D01*
X158839286Y-71423571D01*
X157767858Y-72352143D02*
X157910715Y-72423571D01*
X158196429Y-72423571D01*
X158339286Y-72352143D01*
X158410715Y-72209286D01*
X158410715Y-71637857D01*
X158339286Y-71495000D01*
X158196429Y-71423571D01*
X157910715Y-71423571D01*
X157767858Y-71495000D01*
X157696429Y-71637857D01*
X157696429Y-71780714D01*
X158410715Y-71923571D01*
X157053572Y-72280714D02*
X156982144Y-72352143D01*
X157053572Y-72423571D01*
X157125001Y-72352143D01*
X157053572Y-72280714D01*
X157053572Y-72423571D01*
X157053572Y-71495000D02*
X156982144Y-71566429D01*
X157053572Y-71637857D01*
X157125001Y-71566429D01*
X157053572Y-71495000D01*
X157053572Y-71637857D01*
X174267857Y-74402143D02*
X173125000Y-74402143D01*
X170839286Y-73473571D02*
X170839286Y-74545000D01*
X170910714Y-74759286D01*
X171053571Y-74902143D01*
X171267857Y-74973571D01*
X171410714Y-74973571D01*
X170196429Y-74902143D02*
X169982143Y-74973571D01*
X169625000Y-74973571D01*
X169482143Y-74902143D01*
X169410714Y-74830714D01*
X169339286Y-74687857D01*
X169339286Y-74545000D01*
X169410714Y-74402143D01*
X169482143Y-74330714D01*
X169625000Y-74259286D01*
X169910714Y-74187857D01*
X170053572Y-74116429D01*
X170125000Y-74045000D01*
X170196429Y-73902143D01*
X170196429Y-73759286D01*
X170125000Y-73616429D01*
X170053572Y-73545000D01*
X169910714Y-73473571D01*
X169553572Y-73473571D01*
X169339286Y-73545000D01*
X168910715Y-73473571D02*
X168053572Y-73473571D01*
X168482143Y-74973571D02*
X168482143Y-73473571D01*
X166410715Y-74973571D02*
X166410715Y-73473571D01*
X165839287Y-73473571D01*
X165696429Y-73545000D01*
X165625001Y-73616429D01*
X165553572Y-73759286D01*
X165553572Y-73973571D01*
X165625001Y-74116429D01*
X165696429Y-74187857D01*
X165839287Y-74259286D01*
X166410715Y-74259286D01*
X164910715Y-74973571D02*
X164910715Y-73473571D01*
X164910715Y-74187857D02*
X164053572Y-74187857D01*
X164053572Y-74973571D02*
X164053572Y-73473571D01*
X162267858Y-73616429D02*
X162196429Y-73545000D01*
X162053572Y-73473571D01*
X161696429Y-73473571D01*
X161553572Y-73545000D01*
X161482143Y-73616429D01*
X161410715Y-73759286D01*
X161410715Y-73902143D01*
X161482143Y-74116429D01*
X162339286Y-74973571D01*
X161410715Y-74973571D01*
X160767858Y-74973571D02*
X160767858Y-73973571D01*
X160767858Y-74116429D02*
X160696430Y-74045000D01*
X160553572Y-73973571D01*
X160339287Y-73973571D01*
X160196430Y-74045000D01*
X160125001Y-74187857D01*
X160125001Y-74973571D01*
X160125001Y-74187857D02*
X160053572Y-74045000D01*
X159910715Y-73973571D01*
X159696430Y-73973571D01*
X159553572Y-74045000D01*
X159482144Y-74187857D01*
X159482144Y-74973571D01*
X158767858Y-74973571D02*
X158767858Y-73973571D01*
X158767858Y-74116429D02*
X158696430Y-74045000D01*
X158553572Y-73973571D01*
X158339287Y-73973571D01*
X158196430Y-74045000D01*
X158125001Y-74187857D01*
X158125001Y-74973571D01*
X158125001Y-74187857D02*
X158053572Y-74045000D01*
X157910715Y-73973571D01*
X157696430Y-73973571D01*
X157553572Y-74045000D01*
X157482144Y-74187857D01*
X157482144Y-74973571D01*
X174267857Y-76952143D02*
X173125000Y-76952143D01*
X170553571Y-76023571D02*
X171267857Y-76023571D01*
X171339286Y-76737857D01*
X171267857Y-76666429D01*
X171125000Y-76595000D01*
X170767857Y-76595000D01*
X170625000Y-76666429D01*
X170553571Y-76737857D01*
X170482143Y-76880714D01*
X170482143Y-77237857D01*
X170553571Y-77380714D01*
X170625000Y-77452143D01*
X170767857Y-77523571D01*
X171125000Y-77523571D01*
X171267857Y-77452143D01*
X171339286Y-77380714D01*
X169839286Y-77523571D02*
X169839286Y-76523571D01*
X169839286Y-76666429D02*
X169767858Y-76595000D01*
X169625000Y-76523571D01*
X169410715Y-76523571D01*
X169267858Y-76595000D01*
X169196429Y-76737857D01*
X169196429Y-77523571D01*
X169196429Y-76737857D02*
X169125000Y-76595000D01*
X168982143Y-76523571D01*
X168767858Y-76523571D01*
X168625000Y-76595000D01*
X168553572Y-76737857D01*
X168553572Y-77523571D01*
X167839286Y-77523571D02*
X167839286Y-76523571D01*
X167839286Y-76666429D02*
X167767858Y-76595000D01*
X167625000Y-76523571D01*
X167410715Y-76523571D01*
X167267858Y-76595000D01*
X167196429Y-76737857D01*
X167196429Y-77523571D01*
X167196429Y-76737857D02*
X167125000Y-76595000D01*
X166982143Y-76523571D01*
X166767858Y-76523571D01*
X166625000Y-76595000D01*
X166553572Y-76737857D01*
X166553572Y-77523571D01*
X164767858Y-77452143D02*
X164553572Y-77523571D01*
X164196429Y-77523571D01*
X164053572Y-77452143D01*
X163982143Y-77380714D01*
X163910715Y-77237857D01*
X163910715Y-77095000D01*
X163982143Y-76952143D01*
X164053572Y-76880714D01*
X164196429Y-76809286D01*
X164482143Y-76737857D01*
X164625001Y-76666429D01*
X164696429Y-76595000D01*
X164767858Y-76452143D01*
X164767858Y-76309286D01*
X164696429Y-76166429D01*
X164625001Y-76095000D01*
X164482143Y-76023571D01*
X164125001Y-76023571D01*
X163910715Y-76095000D01*
X162625001Y-77452143D02*
X162767858Y-77523571D01*
X163053572Y-77523571D01*
X163196430Y-77452143D01*
X163267858Y-77380714D01*
X163339287Y-77237857D01*
X163339287Y-76809286D01*
X163267858Y-76666429D01*
X163196430Y-76595000D01*
X163053572Y-76523571D01*
X162767858Y-76523571D01*
X162625001Y-76595000D01*
X161982144Y-77523571D02*
X161982144Y-76523571D01*
X161982144Y-76809286D02*
X161910716Y-76666429D01*
X161839287Y-76595000D01*
X161696430Y-76523571D01*
X161553573Y-76523571D01*
X160482145Y-77452143D02*
X160625002Y-77523571D01*
X160910716Y-77523571D01*
X161053573Y-77452143D01*
X161125002Y-77309286D01*
X161125002Y-76737857D01*
X161053573Y-76595000D01*
X160910716Y-76523571D01*
X160625002Y-76523571D01*
X160482145Y-76595000D01*
X160410716Y-76737857D01*
X160410716Y-76880714D01*
X161125002Y-77023571D01*
X159910716Y-76523571D02*
X159625002Y-77523571D01*
X159339288Y-76809286D01*
X159053573Y-77523571D01*
X158767859Y-76523571D01*
X157267859Y-76023571D02*
X156410716Y-76023571D01*
X156839287Y-77523571D02*
X156839287Y-76023571D01*
X155339288Y-77452143D02*
X155482145Y-77523571D01*
X155767859Y-77523571D01*
X155910716Y-77452143D01*
X155982145Y-77309286D01*
X155982145Y-76737857D01*
X155910716Y-76595000D01*
X155767859Y-76523571D01*
X155482145Y-76523571D01*
X155339288Y-76595000D01*
X155267859Y-76737857D01*
X155267859Y-76880714D01*
X155982145Y-77023571D01*
X154625002Y-77523571D02*
X154625002Y-76523571D01*
X154625002Y-76809286D02*
X154553574Y-76666429D01*
X154482145Y-76595000D01*
X154339288Y-76523571D01*
X154196431Y-76523571D01*
X153696431Y-77523571D02*
X153696431Y-76523571D01*
X153696431Y-76666429D02*
X153625003Y-76595000D01*
X153482145Y-76523571D01*
X153267860Y-76523571D01*
X153125003Y-76595000D01*
X153053574Y-76737857D01*
X153053574Y-77523571D01*
X153053574Y-76737857D02*
X152982145Y-76595000D01*
X152839288Y-76523571D01*
X152625003Y-76523571D01*
X152482145Y-76595000D01*
X152410717Y-76737857D01*
X152410717Y-77523571D01*
X151696431Y-77523571D02*
X151696431Y-76523571D01*
X151696431Y-76023571D02*
X151767860Y-76095000D01*
X151696431Y-76166429D01*
X151625003Y-76095000D01*
X151696431Y-76023571D01*
X151696431Y-76166429D01*
X150982145Y-76523571D02*
X150982145Y-77523571D01*
X150982145Y-76666429D02*
X150910717Y-76595000D01*
X150767859Y-76523571D01*
X150553574Y-76523571D01*
X150410717Y-76595000D01*
X150339288Y-76737857D01*
X150339288Y-77523571D01*
X148982145Y-77523571D02*
X148982145Y-76737857D01*
X149053574Y-76595000D01*
X149196431Y-76523571D01*
X149482145Y-76523571D01*
X149625002Y-76595000D01*
X148982145Y-77452143D02*
X149125002Y-77523571D01*
X149482145Y-77523571D01*
X149625002Y-77452143D01*
X149696431Y-77309286D01*
X149696431Y-77166429D01*
X149625002Y-77023571D01*
X149482145Y-76952143D01*
X149125002Y-76952143D01*
X148982145Y-76880714D01*
X148053573Y-77523571D02*
X148196431Y-77452143D01*
X148267859Y-77309286D01*
X148267859Y-76023571D01*
X145233571Y-110607142D02*
X145233571Y-109464285D01*
X146876429Y-106964285D02*
X146876429Y-105964285D01*
X145376429Y-106607142D01*
X146876429Y-105107143D02*
X146876429Y-104964286D01*
X146805000Y-104821429D01*
X146733571Y-104750000D01*
X146590714Y-104678571D01*
X146305000Y-104607143D01*
X145947857Y-104607143D01*
X145662143Y-104678571D01*
X145519286Y-104750000D01*
X145447857Y-104821429D01*
X145376429Y-104964286D01*
X145376429Y-105107143D01*
X145447857Y-105250000D01*
X145519286Y-105321429D01*
X145662143Y-105392857D01*
X145947857Y-105464286D01*
X146305000Y-105464286D01*
X146590714Y-105392857D01*
X146733571Y-105321429D01*
X146805000Y-105250000D01*
X146876429Y-105107143D01*
X145376429Y-103964286D02*
X146376429Y-103964286D01*
X146233571Y-103964286D02*
X146305000Y-103892858D01*
X146376429Y-103750000D01*
X146376429Y-103535715D01*
X146305000Y-103392858D01*
X146162143Y-103321429D01*
X145376429Y-103321429D01*
X146162143Y-103321429D02*
X146305000Y-103250000D01*
X146376429Y-103107143D01*
X146376429Y-102892858D01*
X146305000Y-102750000D01*
X146162143Y-102678572D01*
X145376429Y-102678572D01*
X145376429Y-101964286D02*
X146376429Y-101964286D01*
X146233571Y-101964286D02*
X146305000Y-101892858D01*
X146376429Y-101750000D01*
X146376429Y-101535715D01*
X146305000Y-101392858D01*
X146162143Y-101321429D01*
X145376429Y-101321429D01*
X146162143Y-101321429D02*
X146305000Y-101250000D01*
X146376429Y-101107143D01*
X146376429Y-100892858D01*
X146305000Y-100750000D01*
X146162143Y-100678572D01*
X145376429Y-100678572D01*
X145376429Y-98821429D02*
X146876429Y-98821429D01*
X146305000Y-98821429D02*
X146376429Y-98678572D01*
X146376429Y-98392858D01*
X146305000Y-98250001D01*
X146233571Y-98178572D01*
X146090714Y-98107143D01*
X145662143Y-98107143D01*
X145519286Y-98178572D01*
X145447857Y-98250001D01*
X145376429Y-98392858D01*
X145376429Y-98678572D01*
X145447857Y-98821429D01*
X145447857Y-96892858D02*
X145376429Y-97035715D01*
X145376429Y-97321429D01*
X145447857Y-97464286D01*
X145590714Y-97535715D01*
X146162143Y-97535715D01*
X146305000Y-97464286D01*
X146376429Y-97321429D01*
X146376429Y-97035715D01*
X146305000Y-96892858D01*
X146162143Y-96821429D01*
X146019286Y-96821429D01*
X145876429Y-97535715D01*
X146376429Y-96392858D02*
X146376429Y-95821429D01*
X146876429Y-96178572D02*
X145590714Y-96178572D01*
X145447857Y-96107144D01*
X145376429Y-95964286D01*
X145376429Y-95821429D01*
X146376429Y-95464286D02*
X145376429Y-95178572D01*
X146090714Y-94892858D01*
X145376429Y-94607143D01*
X146376429Y-94321429D01*
X145447857Y-93178572D02*
X145376429Y-93321429D01*
X145376429Y-93607143D01*
X145447857Y-93750000D01*
X145590714Y-93821429D01*
X146162143Y-93821429D01*
X146305000Y-93750000D01*
X146376429Y-93607143D01*
X146376429Y-93321429D01*
X146305000Y-93178572D01*
X146162143Y-93107143D01*
X146019286Y-93107143D01*
X145876429Y-93821429D01*
X145447857Y-91892858D02*
X145376429Y-92035715D01*
X145376429Y-92321429D01*
X145447857Y-92464286D01*
X145590714Y-92535715D01*
X146162143Y-92535715D01*
X146305000Y-92464286D01*
X146376429Y-92321429D01*
X146376429Y-92035715D01*
X146305000Y-91892858D01*
X146162143Y-91821429D01*
X146019286Y-91821429D01*
X145876429Y-92535715D01*
X146376429Y-91178572D02*
X145376429Y-91178572D01*
X146233571Y-91178572D02*
X146305000Y-91107144D01*
X146376429Y-90964286D01*
X146376429Y-90750001D01*
X146305000Y-90607144D01*
X146162143Y-90535715D01*
X145376429Y-90535715D01*
X145376429Y-88678572D02*
X146876429Y-88678572D01*
X146162143Y-88678572D02*
X146162143Y-87821429D01*
X145376429Y-87821429D02*
X146876429Y-87821429D01*
X145376429Y-86892857D02*
X145447857Y-87035715D01*
X145519286Y-87107143D01*
X145662143Y-87178572D01*
X146090714Y-87178572D01*
X146233571Y-87107143D01*
X146305000Y-87035715D01*
X146376429Y-86892857D01*
X146376429Y-86678572D01*
X146305000Y-86535715D01*
X146233571Y-86464286D01*
X146090714Y-86392857D01*
X145662143Y-86392857D01*
X145519286Y-86464286D01*
X145447857Y-86535715D01*
X145376429Y-86678572D01*
X145376429Y-86892857D01*
X145376429Y-85535714D02*
X145447857Y-85678572D01*
X145590714Y-85750000D01*
X146876429Y-85750000D01*
X145447857Y-84392858D02*
X145376429Y-84535715D01*
X145376429Y-84821429D01*
X145447857Y-84964286D01*
X145590714Y-85035715D01*
X146162143Y-85035715D01*
X146305000Y-84964286D01*
X146376429Y-84821429D01*
X146376429Y-84535715D01*
X146305000Y-84392858D01*
X146162143Y-84321429D01*
X146019286Y-84321429D01*
X145876429Y-85035715D01*
X145447857Y-83750001D02*
X145376429Y-83607144D01*
X145376429Y-83321429D01*
X145447857Y-83178572D01*
X145590714Y-83107144D01*
X145662143Y-83107144D01*
X145805000Y-83178572D01*
X145876429Y-83321429D01*
X145876429Y-83535715D01*
X145947857Y-83678572D01*
X146090714Y-83750001D01*
X146162143Y-83750001D01*
X146305000Y-83678572D01*
X146376429Y-83535715D01*
X146376429Y-83321429D01*
X146305000Y-83178572D01*
X145233571Y-80535715D02*
X145233571Y-79392858D01*
X143683571Y-105071427D02*
X143755000Y-105214285D01*
X143826429Y-105285713D01*
X143969286Y-105357142D01*
X144040714Y-105357142D01*
X144183571Y-105285713D01*
X144255000Y-105214285D01*
X144326429Y-105071427D01*
X144326429Y-104785713D01*
X144255000Y-104642856D01*
X144183571Y-104571427D01*
X144040714Y-104499999D01*
X143969286Y-104499999D01*
X143826429Y-104571427D01*
X143755000Y-104642856D01*
X143683571Y-104785713D01*
X143683571Y-105071427D01*
X143612143Y-105214285D01*
X143540714Y-105285713D01*
X143397857Y-105357142D01*
X143112143Y-105357142D01*
X142969286Y-105285713D01*
X142897857Y-105214285D01*
X142826429Y-105071427D01*
X142826429Y-104785713D01*
X142897857Y-104642856D01*
X142969286Y-104571427D01*
X143112143Y-104499999D01*
X143397857Y-104499999D01*
X143540714Y-104571427D01*
X143612143Y-104642856D01*
X143683571Y-104785713D01*
X144326429Y-103571428D02*
X144326429Y-103428571D01*
X144255000Y-103285714D01*
X144183571Y-103214285D01*
X144040714Y-103142856D01*
X143755000Y-103071428D01*
X143397857Y-103071428D01*
X143112143Y-103142856D01*
X142969286Y-103214285D01*
X142897857Y-103285714D01*
X142826429Y-103428571D01*
X142826429Y-103571428D01*
X142897857Y-103714285D01*
X142969286Y-103785714D01*
X143112143Y-103857142D01*
X143397857Y-103928571D01*
X143755000Y-103928571D01*
X144040714Y-103857142D01*
X144183571Y-103785714D01*
X144255000Y-103714285D01*
X144326429Y-103571428D01*
X142826429Y-102428571D02*
X143826429Y-102428571D01*
X143683571Y-102428571D02*
X143755000Y-102357143D01*
X143826429Y-102214285D01*
X143826429Y-102000000D01*
X143755000Y-101857143D01*
X143612143Y-101785714D01*
X142826429Y-101785714D01*
X143612143Y-101785714D02*
X143755000Y-101714285D01*
X143826429Y-101571428D01*
X143826429Y-101357143D01*
X143755000Y-101214285D01*
X143612143Y-101142857D01*
X142826429Y-101142857D01*
X142826429Y-100428571D02*
X143826429Y-100428571D01*
X143683571Y-100428571D02*
X143755000Y-100357143D01*
X143826429Y-100214285D01*
X143826429Y-100000000D01*
X143755000Y-99857143D01*
X143612143Y-99785714D01*
X142826429Y-99785714D01*
X143612143Y-99785714D02*
X143755000Y-99714285D01*
X143826429Y-99571428D01*
X143826429Y-99357143D01*
X143755000Y-99214285D01*
X143612143Y-99142857D01*
X142826429Y-99142857D01*
X142897857Y-97357143D02*
X142826429Y-97142857D01*
X142826429Y-96785714D01*
X142897857Y-96642857D01*
X142969286Y-96571428D01*
X143112143Y-96500000D01*
X143255000Y-96500000D01*
X143397857Y-96571428D01*
X143469286Y-96642857D01*
X143540714Y-96785714D01*
X143612143Y-97071428D01*
X143683571Y-97214286D01*
X143755000Y-97285714D01*
X143897857Y-97357143D01*
X144040714Y-97357143D01*
X144183571Y-97285714D01*
X144255000Y-97214286D01*
X144326429Y-97071428D01*
X144326429Y-96714286D01*
X144255000Y-96500000D01*
X142826429Y-95857143D02*
X143826429Y-95857143D01*
X144326429Y-95857143D02*
X144255000Y-95928572D01*
X144183571Y-95857143D01*
X144255000Y-95785715D01*
X144326429Y-95857143D01*
X144183571Y-95857143D01*
X142826429Y-94500000D02*
X144326429Y-94500000D01*
X142897857Y-94500000D02*
X142826429Y-94642857D01*
X142826429Y-94928571D01*
X142897857Y-95071429D01*
X142969286Y-95142857D01*
X143112143Y-95214286D01*
X143540714Y-95214286D01*
X143683571Y-95142857D01*
X143755000Y-95071429D01*
X143826429Y-94928571D01*
X143826429Y-94642857D01*
X143755000Y-94500000D01*
X142897857Y-93214286D02*
X142826429Y-93357143D01*
X142826429Y-93642857D01*
X142897857Y-93785714D01*
X143040714Y-93857143D01*
X143612143Y-93857143D01*
X143755000Y-93785714D01*
X143826429Y-93642857D01*
X143826429Y-93357143D01*
X143755000Y-93214286D01*
X143612143Y-93142857D01*
X143469286Y-93142857D01*
X143326429Y-93857143D01*
X144183571Y-91428572D02*
X144255000Y-91357143D01*
X144326429Y-91214286D01*
X144326429Y-90857143D01*
X144255000Y-90714286D01*
X144183571Y-90642857D01*
X144040714Y-90571429D01*
X143897857Y-90571429D01*
X143683571Y-90642857D01*
X142826429Y-91500000D01*
X142826429Y-90571429D01*
X142897857Y-88857144D02*
X142826429Y-88642858D01*
X142826429Y-88285715D01*
X142897857Y-88142858D01*
X142969286Y-88071429D01*
X143112143Y-88000001D01*
X143255000Y-88000001D01*
X143397857Y-88071429D01*
X143469286Y-88142858D01*
X143540714Y-88285715D01*
X143612143Y-88571429D01*
X143683571Y-88714287D01*
X143755000Y-88785715D01*
X143897857Y-88857144D01*
X144040714Y-88857144D01*
X144183571Y-88785715D01*
X144255000Y-88714287D01*
X144326429Y-88571429D01*
X144326429Y-88214287D01*
X144255000Y-88000001D01*
X142826429Y-87357144D02*
X143826429Y-87357144D01*
X144326429Y-87357144D02*
X144255000Y-87428573D01*
X144183571Y-87357144D01*
X144255000Y-87285716D01*
X144326429Y-87357144D01*
X144183571Y-87357144D01*
X142826429Y-86000001D02*
X144326429Y-86000001D01*
X142897857Y-86000001D02*
X142826429Y-86142858D01*
X142826429Y-86428572D01*
X142897857Y-86571430D01*
X142969286Y-86642858D01*
X143112143Y-86714287D01*
X143540714Y-86714287D01*
X143683571Y-86642858D01*
X143755000Y-86571430D01*
X143826429Y-86428572D01*
X143826429Y-86142858D01*
X143755000Y-86000001D01*
X142897857Y-84714287D02*
X142826429Y-84857144D01*
X142826429Y-85142858D01*
X142897857Y-85285715D01*
X143040714Y-85357144D01*
X143612143Y-85357144D01*
X143755000Y-85285715D01*
X143826429Y-85142858D01*
X143826429Y-84857144D01*
X143755000Y-84714287D01*
X143612143Y-84642858D01*
X143469286Y-84642858D01*
X143326429Y-85357144D01*
X185607142Y-134801429D02*
X184464285Y-134801429D01*
X181107142Y-133158571D02*
X181821428Y-133158571D01*
X181892857Y-133872857D01*
X181821428Y-133801429D01*
X181678571Y-133730000D01*
X181321428Y-133730000D01*
X181178571Y-133801429D01*
X181107142Y-133872857D01*
X181035714Y-134015714D01*
X181035714Y-134372857D01*
X181107142Y-134515714D01*
X181178571Y-134587143D01*
X181321428Y-134658571D01*
X181678571Y-134658571D01*
X181821428Y-134587143D01*
X181892857Y-134515714D01*
X180107143Y-133158571D02*
X179964286Y-133158571D01*
X179821429Y-133230000D01*
X179750000Y-133301429D01*
X179678571Y-133444286D01*
X179607143Y-133730000D01*
X179607143Y-134087143D01*
X179678571Y-134372857D01*
X179750000Y-134515714D01*
X179821429Y-134587143D01*
X179964286Y-134658571D01*
X180107143Y-134658571D01*
X180250000Y-134587143D01*
X180321429Y-134515714D01*
X180392857Y-134372857D01*
X180464286Y-134087143D01*
X180464286Y-133730000D01*
X180392857Y-133444286D01*
X180321429Y-133301429D01*
X180250000Y-133230000D01*
X180107143Y-133158571D01*
X178964286Y-134658571D02*
X178964286Y-133658571D01*
X178964286Y-133801429D02*
X178892858Y-133730000D01*
X178750000Y-133658571D01*
X178535715Y-133658571D01*
X178392858Y-133730000D01*
X178321429Y-133872857D01*
X178321429Y-134658571D01*
X178321429Y-133872857D02*
X178250000Y-133730000D01*
X178107143Y-133658571D01*
X177892858Y-133658571D01*
X177750000Y-133730000D01*
X177678572Y-133872857D01*
X177678572Y-134658571D01*
X176964286Y-134658571D02*
X176964286Y-133658571D01*
X176964286Y-133801429D02*
X176892858Y-133730000D01*
X176750000Y-133658571D01*
X176535715Y-133658571D01*
X176392858Y-133730000D01*
X176321429Y-133872857D01*
X176321429Y-134658571D01*
X176321429Y-133872857D02*
X176250000Y-133730000D01*
X176107143Y-133658571D01*
X175892858Y-133658571D01*
X175750000Y-133730000D01*
X175678572Y-133872857D01*
X175678572Y-134658571D01*
X173821429Y-134658571D02*
X173821429Y-133158571D01*
X173821429Y-133730000D02*
X173678572Y-133658571D01*
X173392858Y-133658571D01*
X173250001Y-133730000D01*
X173178572Y-133801429D01*
X173107143Y-133944286D01*
X173107143Y-134372857D01*
X173178572Y-134515714D01*
X173250001Y-134587143D01*
X173392858Y-134658571D01*
X173678572Y-134658571D01*
X173821429Y-134587143D01*
X171892858Y-134587143D02*
X172035715Y-134658571D01*
X172321429Y-134658571D01*
X172464286Y-134587143D01*
X172535715Y-134444286D01*
X172535715Y-133872857D01*
X172464286Y-133730000D01*
X172321429Y-133658571D01*
X172035715Y-133658571D01*
X171892858Y-133730000D01*
X171821429Y-133872857D01*
X171821429Y-134015714D01*
X172535715Y-134158571D01*
X171392858Y-133658571D02*
X170821429Y-133658571D01*
X171178572Y-133158571D02*
X171178572Y-134444286D01*
X171107144Y-134587143D01*
X170964286Y-134658571D01*
X170821429Y-134658571D01*
X170464286Y-133658571D02*
X170178572Y-134658571D01*
X169892858Y-133944286D01*
X169607143Y-134658571D01*
X169321429Y-133658571D01*
X168178572Y-134587143D02*
X168321429Y-134658571D01*
X168607143Y-134658571D01*
X168750000Y-134587143D01*
X168821429Y-134444286D01*
X168821429Y-133872857D01*
X168750000Y-133730000D01*
X168607143Y-133658571D01*
X168321429Y-133658571D01*
X168178572Y-133730000D01*
X168107143Y-133872857D01*
X168107143Y-134015714D01*
X168821429Y-134158571D01*
X166892858Y-134587143D02*
X167035715Y-134658571D01*
X167321429Y-134658571D01*
X167464286Y-134587143D01*
X167535715Y-134444286D01*
X167535715Y-133872857D01*
X167464286Y-133730000D01*
X167321429Y-133658571D01*
X167035715Y-133658571D01*
X166892858Y-133730000D01*
X166821429Y-133872857D01*
X166821429Y-134015714D01*
X167535715Y-134158571D01*
X166178572Y-133658571D02*
X166178572Y-134658571D01*
X166178572Y-133801429D02*
X166107144Y-133730000D01*
X165964286Y-133658571D01*
X165750001Y-133658571D01*
X165607144Y-133730000D01*
X165535715Y-133872857D01*
X165535715Y-134658571D01*
X163678572Y-134658571D02*
X163678572Y-133158571D01*
X163678572Y-133872857D02*
X162821429Y-133872857D01*
X162821429Y-134658571D02*
X162821429Y-133158571D01*
X161892857Y-134658571D02*
X162035715Y-134587143D01*
X162107143Y-134515714D01*
X162178572Y-134372857D01*
X162178572Y-133944286D01*
X162107143Y-133801429D01*
X162035715Y-133730000D01*
X161892857Y-133658571D01*
X161678572Y-133658571D01*
X161535715Y-133730000D01*
X161464286Y-133801429D01*
X161392857Y-133944286D01*
X161392857Y-134372857D01*
X161464286Y-134515714D01*
X161535715Y-134587143D01*
X161678572Y-134658571D01*
X161892857Y-134658571D01*
X160535714Y-134658571D02*
X160678572Y-134587143D01*
X160750000Y-134444286D01*
X160750000Y-133158571D01*
X159392858Y-134587143D02*
X159535715Y-134658571D01*
X159821429Y-134658571D01*
X159964286Y-134587143D01*
X160035715Y-134444286D01*
X160035715Y-133872857D01*
X159964286Y-133730000D01*
X159821429Y-133658571D01*
X159535715Y-133658571D01*
X159392858Y-133730000D01*
X159321429Y-133872857D01*
X159321429Y-134015714D01*
X160035715Y-134158571D01*
X158750001Y-134587143D02*
X158607144Y-134658571D01*
X158321429Y-134658571D01*
X158178572Y-134587143D01*
X158107144Y-134444286D01*
X158107144Y-134372857D01*
X158178572Y-134230000D01*
X158321429Y-134158571D01*
X158535715Y-134158571D01*
X158678572Y-134087143D01*
X158750001Y-133944286D01*
X158750001Y-133872857D01*
X158678572Y-133730000D01*
X158535715Y-133658571D01*
X158321429Y-133658571D01*
X158178572Y-133730000D01*
X155535715Y-134801429D02*
X154392858Y-134801429D01*
X179642856Y-135708571D02*
X179928570Y-135708571D01*
X180071427Y-135780000D01*
X180142856Y-135851429D01*
X180285713Y-136065714D01*
X180357142Y-136351429D01*
X180357142Y-136922857D01*
X180285713Y-137065714D01*
X180214285Y-137137143D01*
X180071427Y-137208571D01*
X179785713Y-137208571D01*
X179642856Y-137137143D01*
X179571427Y-137065714D01*
X179499999Y-136922857D01*
X179499999Y-136565714D01*
X179571427Y-136422857D01*
X179642856Y-136351429D01*
X179785713Y-136280000D01*
X180071427Y-136280000D01*
X180214285Y-136351429D01*
X180285713Y-136422857D01*
X180357142Y-136565714D01*
X178571428Y-135708571D02*
X178428571Y-135708571D01*
X178285714Y-135780000D01*
X178214285Y-135851429D01*
X178142856Y-135994286D01*
X178071428Y-136280000D01*
X178071428Y-136637143D01*
X178142856Y-136922857D01*
X178214285Y-137065714D01*
X178285714Y-137137143D01*
X178428571Y-137208571D01*
X178571428Y-137208571D01*
X178714285Y-137137143D01*
X178785714Y-137065714D01*
X178857142Y-136922857D01*
X178928571Y-136637143D01*
X178928571Y-136280000D01*
X178857142Y-135994286D01*
X178785714Y-135851429D01*
X178714285Y-135780000D01*
X178571428Y-135708571D01*
X177428571Y-137208571D02*
X177428571Y-136208571D01*
X177428571Y-136351429D02*
X177357143Y-136280000D01*
X177214285Y-136208571D01*
X177000000Y-136208571D01*
X176857143Y-136280000D01*
X176785714Y-136422857D01*
X176785714Y-137208571D01*
X176785714Y-136422857D02*
X176714285Y-136280000D01*
X176571428Y-136208571D01*
X176357143Y-136208571D01*
X176214285Y-136280000D01*
X176142857Y-136422857D01*
X176142857Y-137208571D01*
X175428571Y-137208571D02*
X175428571Y-136208571D01*
X175428571Y-136351429D02*
X175357143Y-136280000D01*
X175214285Y-136208571D01*
X175000000Y-136208571D01*
X174857143Y-136280000D01*
X174785714Y-136422857D01*
X174785714Y-137208571D01*
X174785714Y-136422857D02*
X174714285Y-136280000D01*
X174571428Y-136208571D01*
X174357143Y-136208571D01*
X174214285Y-136280000D01*
X174142857Y-136422857D01*
X174142857Y-137208571D01*
X172357143Y-137137143D02*
X172142857Y-137208571D01*
X171785714Y-137208571D01*
X171642857Y-137137143D01*
X171571428Y-137065714D01*
X171500000Y-136922857D01*
X171500000Y-136780000D01*
X171571428Y-136637143D01*
X171642857Y-136565714D01*
X171785714Y-136494286D01*
X172071428Y-136422857D01*
X172214286Y-136351429D01*
X172285714Y-136280000D01*
X172357143Y-136137143D01*
X172357143Y-135994286D01*
X172285714Y-135851429D01*
X172214286Y-135780000D01*
X172071428Y-135708571D01*
X171714286Y-135708571D01*
X171500000Y-135780000D01*
X170857143Y-137208571D02*
X170857143Y-136208571D01*
X170857143Y-135708571D02*
X170928572Y-135780000D01*
X170857143Y-135851429D01*
X170785715Y-135780000D01*
X170857143Y-135708571D01*
X170857143Y-135851429D01*
X169500000Y-137208571D02*
X169500000Y-135708571D01*
X169500000Y-137137143D02*
X169642857Y-137208571D01*
X169928571Y-137208571D01*
X170071429Y-137137143D01*
X170142857Y-137065714D01*
X170214286Y-136922857D01*
X170214286Y-136494286D01*
X170142857Y-136351429D01*
X170071429Y-136280000D01*
X169928571Y-136208571D01*
X169642857Y-136208571D01*
X169500000Y-136280000D01*
X168214286Y-137137143D02*
X168357143Y-137208571D01*
X168642857Y-137208571D01*
X168785714Y-137137143D01*
X168857143Y-136994286D01*
X168857143Y-136422857D01*
X168785714Y-136280000D01*
X168642857Y-136208571D01*
X168357143Y-136208571D01*
X168214286Y-136280000D01*
X168142857Y-136422857D01*
X168142857Y-136565714D01*
X168857143Y-136708571D01*
X166428572Y-135851429D02*
X166357143Y-135780000D01*
X166214286Y-135708571D01*
X165857143Y-135708571D01*
X165714286Y-135780000D01*
X165642857Y-135851429D01*
X165571429Y-135994286D01*
X165571429Y-136137143D01*
X165642857Y-136351429D01*
X166500000Y-137208571D01*
X165571429Y-137208571D01*
X163857144Y-137137143D02*
X163642858Y-137208571D01*
X163285715Y-137208571D01*
X163142858Y-137137143D01*
X163071429Y-137065714D01*
X163000001Y-136922857D01*
X163000001Y-136780000D01*
X163071429Y-136637143D01*
X163142858Y-136565714D01*
X163285715Y-136494286D01*
X163571429Y-136422857D01*
X163714287Y-136351429D01*
X163785715Y-136280000D01*
X163857144Y-136137143D01*
X163857144Y-135994286D01*
X163785715Y-135851429D01*
X163714287Y-135780000D01*
X163571429Y-135708571D01*
X163214287Y-135708571D01*
X163000001Y-135780000D01*
X162357144Y-137208571D02*
X162357144Y-136208571D01*
X162357144Y-135708571D02*
X162428573Y-135780000D01*
X162357144Y-135851429D01*
X162285716Y-135780000D01*
X162357144Y-135708571D01*
X162357144Y-135851429D01*
X161000001Y-137208571D02*
X161000001Y-135708571D01*
X161000001Y-137137143D02*
X161142858Y-137208571D01*
X161428572Y-137208571D01*
X161571430Y-137137143D01*
X161642858Y-137065714D01*
X161714287Y-136922857D01*
X161714287Y-136494286D01*
X161642858Y-136351429D01*
X161571430Y-136280000D01*
X161428572Y-136208571D01*
X161142858Y-136208571D01*
X161000001Y-136280000D01*
X159714287Y-137137143D02*
X159857144Y-137208571D01*
X160142858Y-137208571D01*
X160285715Y-137137143D01*
X160357144Y-136994286D01*
X160357144Y-136422857D01*
X160285715Y-136280000D01*
X160142858Y-136208571D01*
X159857144Y-136208571D01*
X159714287Y-136280000D01*
X159642858Y-136422857D01*
X159642858Y-136565714D01*
X160357144Y-136708571D01*
D12*
X194945000Y-102235000D02*
X194945000Y-113030000D01*
X194945000Y-129540000D02*
X199390000Y-129540000D01*
X194945000Y-118745000D02*
X194945000Y-129540000D01*
X199390000Y-118745000D02*
X194945000Y-118745000D01*
X194945000Y-113030000D02*
X199390000Y-113030000D01*
X199390000Y-102235000D02*
X194945000Y-102235000D01*
X194945000Y-96520000D02*
X199390000Y-96520000D01*
X194945000Y-85725000D02*
X194945000Y-96520000D01*
X199390000Y-85725000D02*
X194945000Y-85725000D01*
X194945000Y-80010000D02*
X199390000Y-80010000D01*
X194945000Y-69215000D02*
X194945000Y-80010000D01*
X199390000Y-69215000D02*
X194945000Y-69215000D01*
D11*
X198520714Y-70370000D02*
X198663571Y-70298571D01*
X198877857Y-70298571D01*
X199092142Y-70370000D01*
X199235000Y-70512857D01*
X199306428Y-70655714D01*
X199377857Y-70941429D01*
X199377857Y-71155714D01*
X199306428Y-71441429D01*
X199235000Y-71584286D01*
X199092142Y-71727143D01*
X198877857Y-71798571D01*
X198735000Y-71798571D01*
X198520714Y-71727143D01*
X198449285Y-71655714D01*
X198449285Y-71155714D01*
X198735000Y-71155714D01*
X197020714Y-71798571D02*
X197877857Y-71798571D01*
X197449285Y-71798571D02*
X197449285Y-70298571D01*
X197592142Y-70512857D01*
X197735000Y-70655714D01*
X197877857Y-70727143D01*
X195735000Y-70298571D02*
X196020714Y-70298571D01*
X196163571Y-70370000D01*
X196235000Y-70441429D01*
X196377857Y-70655714D01*
X196449286Y-70941429D01*
X196449286Y-71512857D01*
X196377857Y-71655714D01*
X196306429Y-71727143D01*
X196163571Y-71798571D01*
X195877857Y-71798571D01*
X195735000Y-71727143D01*
X195663571Y-71655714D01*
X195592143Y-71512857D01*
X195592143Y-71155714D01*
X195663571Y-71012857D01*
X195735000Y-70941429D01*
X195877857Y-70870000D01*
X196163571Y-70870000D01*
X196306429Y-70941429D01*
X196377857Y-71012857D01*
X196449286Y-71155714D01*
X198520714Y-72275000D02*
X198663571Y-72203571D01*
X198877857Y-72203571D01*
X199092142Y-72275000D01*
X199235000Y-72417857D01*
X199306428Y-72560714D01*
X199377857Y-72846429D01*
X199377857Y-73060714D01*
X199306428Y-73346429D01*
X199235000Y-73489286D01*
X199092142Y-73632143D01*
X198877857Y-73703571D01*
X198735000Y-73703571D01*
X198520714Y-73632143D01*
X198449285Y-73560714D01*
X198449285Y-73060714D01*
X198735000Y-73060714D01*
X197020714Y-73703571D02*
X197877857Y-73703571D01*
X197449285Y-73703571D02*
X197449285Y-72203571D01*
X197592142Y-72417857D01*
X197735000Y-72560714D01*
X197877857Y-72632143D01*
X195663571Y-72203571D02*
X196377857Y-72203571D01*
X196449286Y-72917857D01*
X196377857Y-72846429D01*
X196235000Y-72775000D01*
X195877857Y-72775000D01*
X195735000Y-72846429D01*
X195663571Y-72917857D01*
X195592143Y-73060714D01*
X195592143Y-73417857D01*
X195663571Y-73560714D01*
X195735000Y-73632143D01*
X195877857Y-73703571D01*
X196235000Y-73703571D01*
X196377857Y-73632143D01*
X196449286Y-73560714D01*
X198520714Y-74180000D02*
X198663571Y-74108571D01*
X198877857Y-74108571D01*
X199092142Y-74180000D01*
X199235000Y-74322857D01*
X199306428Y-74465714D01*
X199377857Y-74751429D01*
X199377857Y-74965714D01*
X199306428Y-75251429D01*
X199235000Y-75394286D01*
X199092142Y-75537143D01*
X198877857Y-75608571D01*
X198735000Y-75608571D01*
X198520714Y-75537143D01*
X198449285Y-75465714D01*
X198449285Y-74965714D01*
X198735000Y-74965714D01*
X197020714Y-75608571D02*
X197877857Y-75608571D01*
X197449285Y-75608571D02*
X197449285Y-74108571D01*
X197592142Y-74322857D01*
X197735000Y-74465714D01*
X197877857Y-74537143D01*
X195735000Y-74608571D02*
X195735000Y-75608571D01*
X196092143Y-74037143D02*
X196449286Y-75108571D01*
X195520714Y-75108571D01*
X198520714Y-76085000D02*
X198663571Y-76013571D01*
X198877857Y-76013571D01*
X199092142Y-76085000D01*
X199235000Y-76227857D01*
X199306428Y-76370714D01*
X199377857Y-76656429D01*
X199377857Y-76870714D01*
X199306428Y-77156429D01*
X199235000Y-77299286D01*
X199092142Y-77442143D01*
X198877857Y-77513571D01*
X198735000Y-77513571D01*
X198520714Y-77442143D01*
X198449285Y-77370714D01*
X198449285Y-76870714D01*
X198735000Y-76870714D01*
X197020714Y-77513571D02*
X197877857Y-77513571D01*
X197449285Y-77513571D02*
X197449285Y-76013571D01*
X197592142Y-76227857D01*
X197735000Y-76370714D01*
X197877857Y-76442143D01*
X196520714Y-76013571D02*
X195592143Y-76013571D01*
X196092143Y-76585000D01*
X195877857Y-76585000D01*
X195735000Y-76656429D01*
X195663571Y-76727857D01*
X195592143Y-76870714D01*
X195592143Y-77227857D01*
X195663571Y-77370714D01*
X195735000Y-77442143D01*
X195877857Y-77513571D01*
X196306429Y-77513571D01*
X196449286Y-77442143D01*
X196520714Y-77370714D01*
X198056428Y-78847143D02*
X196913571Y-78847143D01*
X197485000Y-79418571D02*
X197485000Y-78275714D01*
X198520714Y-86880000D02*
X198663571Y-86808571D01*
X198877857Y-86808571D01*
X199092142Y-86880000D01*
X199235000Y-87022857D01*
X199306428Y-87165714D01*
X199377857Y-87451429D01*
X199377857Y-87665714D01*
X199306428Y-87951429D01*
X199235000Y-88094286D01*
X199092142Y-88237143D01*
X198877857Y-88308571D01*
X198735000Y-88308571D01*
X198520714Y-88237143D01*
X198449285Y-88165714D01*
X198449285Y-87665714D01*
X198735000Y-87665714D01*
X197020714Y-88308571D02*
X197877857Y-88308571D01*
X197449285Y-88308571D02*
X197449285Y-86808571D01*
X197592142Y-87022857D01*
X197735000Y-87165714D01*
X197877857Y-87237143D01*
X196449286Y-86951429D02*
X196377857Y-86880000D01*
X196235000Y-86808571D01*
X195877857Y-86808571D01*
X195735000Y-86880000D01*
X195663571Y-86951429D01*
X195592143Y-87094286D01*
X195592143Y-87237143D01*
X195663571Y-87451429D01*
X196520714Y-88308571D01*
X195592143Y-88308571D01*
X198520714Y-88785000D02*
X198663571Y-88713571D01*
X198877857Y-88713571D01*
X199092142Y-88785000D01*
X199235000Y-88927857D01*
X199306428Y-89070714D01*
X199377857Y-89356429D01*
X199377857Y-89570714D01*
X199306428Y-89856429D01*
X199235000Y-89999286D01*
X199092142Y-90142143D01*
X198877857Y-90213571D01*
X198735000Y-90213571D01*
X198520714Y-90142143D01*
X198449285Y-90070714D01*
X198449285Y-89570714D01*
X198735000Y-89570714D01*
X197020714Y-90213571D02*
X197877857Y-90213571D01*
X197449285Y-90213571D02*
X197449285Y-88713571D01*
X197592142Y-88927857D01*
X197735000Y-89070714D01*
X197877857Y-89142143D01*
X195592143Y-90213571D02*
X196449286Y-90213571D01*
X196020714Y-90213571D02*
X196020714Y-88713571D01*
X196163571Y-88927857D01*
X196306429Y-89070714D01*
X196449286Y-89142143D01*
X197806428Y-92595000D02*
X197949285Y-92523571D01*
X198163571Y-92523571D01*
X198377856Y-92595000D01*
X198520714Y-92737857D01*
X198592142Y-92880714D01*
X198663571Y-93166429D01*
X198663571Y-93380714D01*
X198592142Y-93666429D01*
X198520714Y-93809286D01*
X198377856Y-93952143D01*
X198163571Y-94023571D01*
X198020714Y-94023571D01*
X197806428Y-93952143D01*
X197734999Y-93880714D01*
X197734999Y-93380714D01*
X198020714Y-93380714D01*
X197020714Y-94023571D02*
X196734999Y-94023571D01*
X196592142Y-93952143D01*
X196520714Y-93880714D01*
X196377856Y-93666429D01*
X196306428Y-93380714D01*
X196306428Y-92809286D01*
X196377856Y-92666429D01*
X196449285Y-92595000D01*
X196592142Y-92523571D01*
X196877856Y-92523571D01*
X197020714Y-92595000D01*
X197092142Y-92666429D01*
X197163571Y-92809286D01*
X197163571Y-93166429D01*
X197092142Y-93309286D01*
X197020714Y-93380714D01*
X196877856Y-93452143D01*
X196592142Y-93452143D01*
X196449285Y-93380714D01*
X196377856Y-93309286D01*
X196306428Y-93166429D01*
X198520714Y-90690000D02*
X198663571Y-90618571D01*
X198877857Y-90618571D01*
X199092142Y-90690000D01*
X199235000Y-90832857D01*
X199306428Y-90975714D01*
X199377857Y-91261429D01*
X199377857Y-91475714D01*
X199306428Y-91761429D01*
X199235000Y-91904286D01*
X199092142Y-92047143D01*
X198877857Y-92118571D01*
X198735000Y-92118571D01*
X198520714Y-92047143D01*
X198449285Y-91975714D01*
X198449285Y-91475714D01*
X198735000Y-91475714D01*
X197020714Y-92118571D02*
X197877857Y-92118571D01*
X197449285Y-92118571D02*
X197449285Y-90618571D01*
X197592142Y-90832857D01*
X197735000Y-90975714D01*
X197877857Y-91047143D01*
X196092143Y-90618571D02*
X195949286Y-90618571D01*
X195806429Y-90690000D01*
X195735000Y-90761429D01*
X195663571Y-90904286D01*
X195592143Y-91190000D01*
X195592143Y-91547143D01*
X195663571Y-91832857D01*
X195735000Y-91975714D01*
X195806429Y-92047143D01*
X195949286Y-92118571D01*
X196092143Y-92118571D01*
X196235000Y-92047143D01*
X196306429Y-91975714D01*
X196377857Y-91832857D01*
X196449286Y-91547143D01*
X196449286Y-91190000D01*
X196377857Y-90904286D01*
X196306429Y-90761429D01*
X196235000Y-90690000D01*
X196092143Y-90618571D01*
X198056428Y-95357143D02*
X196913571Y-95357143D01*
X197485000Y-95928571D02*
X197485000Y-94785714D01*
X197806428Y-103390000D02*
X197949285Y-103318571D01*
X198163571Y-103318571D01*
X198377856Y-103390000D01*
X198520714Y-103532857D01*
X198592142Y-103675714D01*
X198663571Y-103961429D01*
X198663571Y-104175714D01*
X198592142Y-104461429D01*
X198520714Y-104604286D01*
X198377856Y-104747143D01*
X198163571Y-104818571D01*
X198020714Y-104818571D01*
X197806428Y-104747143D01*
X197734999Y-104675714D01*
X197734999Y-104175714D01*
X198020714Y-104175714D01*
X196877856Y-103961429D02*
X197020714Y-103890000D01*
X197092142Y-103818571D01*
X197163571Y-103675714D01*
X197163571Y-103604286D01*
X197092142Y-103461429D01*
X197020714Y-103390000D01*
X196877856Y-103318571D01*
X196592142Y-103318571D01*
X196449285Y-103390000D01*
X196377856Y-103461429D01*
X196306428Y-103604286D01*
X196306428Y-103675714D01*
X196377856Y-103818571D01*
X196449285Y-103890000D01*
X196592142Y-103961429D01*
X196877856Y-103961429D01*
X197020714Y-104032857D01*
X197092142Y-104104286D01*
X197163571Y-104247143D01*
X197163571Y-104532857D01*
X197092142Y-104675714D01*
X197020714Y-104747143D01*
X196877856Y-104818571D01*
X196592142Y-104818571D01*
X196449285Y-104747143D01*
X196377856Y-104675714D01*
X196306428Y-104532857D01*
X196306428Y-104247143D01*
X196377856Y-104104286D01*
X196449285Y-104032857D01*
X196592142Y-103961429D01*
X197806428Y-105295000D02*
X197949285Y-105223571D01*
X198163571Y-105223571D01*
X198377856Y-105295000D01*
X198520714Y-105437857D01*
X198592142Y-105580714D01*
X198663571Y-105866429D01*
X198663571Y-106080714D01*
X198592142Y-106366429D01*
X198520714Y-106509286D01*
X198377856Y-106652143D01*
X198163571Y-106723571D01*
X198020714Y-106723571D01*
X197806428Y-106652143D01*
X197734999Y-106580714D01*
X197734999Y-106080714D01*
X198020714Y-106080714D01*
X197234999Y-105223571D02*
X196234999Y-105223571D01*
X196877856Y-106723571D01*
X197806428Y-107200000D02*
X197949285Y-107128571D01*
X198163571Y-107128571D01*
X198377856Y-107200000D01*
X198520714Y-107342857D01*
X198592142Y-107485714D01*
X198663571Y-107771429D01*
X198663571Y-107985714D01*
X198592142Y-108271429D01*
X198520714Y-108414286D01*
X198377856Y-108557143D01*
X198163571Y-108628571D01*
X198020714Y-108628571D01*
X197806428Y-108557143D01*
X197734999Y-108485714D01*
X197734999Y-107985714D01*
X198020714Y-107985714D01*
X196449285Y-107128571D02*
X196734999Y-107128571D01*
X196877856Y-107200000D01*
X196949285Y-107271429D01*
X197092142Y-107485714D01*
X197163571Y-107771429D01*
X197163571Y-108342857D01*
X197092142Y-108485714D01*
X197020714Y-108557143D01*
X196877856Y-108628571D01*
X196592142Y-108628571D01*
X196449285Y-108557143D01*
X196377856Y-108485714D01*
X196306428Y-108342857D01*
X196306428Y-107985714D01*
X196377856Y-107842857D01*
X196449285Y-107771429D01*
X196592142Y-107700000D01*
X196877856Y-107700000D01*
X197020714Y-107771429D01*
X197092142Y-107842857D01*
X197163571Y-107985714D01*
X198056428Y-111867143D02*
X196913571Y-111867143D01*
X197485000Y-112438571D02*
X197485000Y-111295714D01*
X197806428Y-109105000D02*
X197949285Y-109033571D01*
X198163571Y-109033571D01*
X198377856Y-109105000D01*
X198520714Y-109247857D01*
X198592142Y-109390714D01*
X198663571Y-109676429D01*
X198663571Y-109890714D01*
X198592142Y-110176429D01*
X198520714Y-110319286D01*
X198377856Y-110462143D01*
X198163571Y-110533571D01*
X198020714Y-110533571D01*
X197806428Y-110462143D01*
X197734999Y-110390714D01*
X197734999Y-109890714D01*
X198020714Y-109890714D01*
X196377856Y-109033571D02*
X197092142Y-109033571D01*
X197163571Y-109747857D01*
X197092142Y-109676429D01*
X196949285Y-109605000D01*
X196592142Y-109605000D01*
X196449285Y-109676429D01*
X196377856Y-109747857D01*
X196306428Y-109890714D01*
X196306428Y-110247857D01*
X196377856Y-110390714D01*
X196449285Y-110462143D01*
X196592142Y-110533571D01*
X196949285Y-110533571D01*
X197092142Y-110462143D01*
X197163571Y-110390714D01*
X198056428Y-128377143D02*
X196913571Y-128377143D01*
X197485000Y-128948571D02*
X197485000Y-127805714D01*
X197806428Y-119900000D02*
X197949285Y-119828571D01*
X198163571Y-119828571D01*
X198377856Y-119900000D01*
X198520714Y-120042857D01*
X198592142Y-120185714D01*
X198663571Y-120471429D01*
X198663571Y-120685714D01*
X198592142Y-120971429D01*
X198520714Y-121114286D01*
X198377856Y-121257143D01*
X198163571Y-121328571D01*
X198020714Y-121328571D01*
X197806428Y-121257143D01*
X197734999Y-121185714D01*
X197734999Y-120685714D01*
X198020714Y-120685714D01*
X196449285Y-120328571D02*
X196449285Y-121328571D01*
X196806428Y-119757143D02*
X197163571Y-120828571D01*
X196234999Y-120828571D01*
X197806428Y-121805000D02*
X197949285Y-121733571D01*
X198163571Y-121733571D01*
X198377856Y-121805000D01*
X198520714Y-121947857D01*
X198592142Y-122090714D01*
X198663571Y-122376429D01*
X198663571Y-122590714D01*
X198592142Y-122876429D01*
X198520714Y-123019286D01*
X198377856Y-123162143D01*
X198163571Y-123233571D01*
X198020714Y-123233571D01*
X197806428Y-123162143D01*
X197734999Y-123090714D01*
X197734999Y-122590714D01*
X198020714Y-122590714D01*
X197234999Y-121733571D02*
X196306428Y-121733571D01*
X196806428Y-122305000D01*
X196592142Y-122305000D01*
X196449285Y-122376429D01*
X196377856Y-122447857D01*
X196306428Y-122590714D01*
X196306428Y-122947857D01*
X196377856Y-123090714D01*
X196449285Y-123162143D01*
X196592142Y-123233571D01*
X197020714Y-123233571D01*
X197163571Y-123162143D01*
X197234999Y-123090714D01*
X197806428Y-123710000D02*
X197949285Y-123638571D01*
X198163571Y-123638571D01*
X198377856Y-123710000D01*
X198520714Y-123852857D01*
X198592142Y-123995714D01*
X198663571Y-124281429D01*
X198663571Y-124495714D01*
X198592142Y-124781429D01*
X198520714Y-124924286D01*
X198377856Y-125067143D01*
X198163571Y-125138571D01*
X198020714Y-125138571D01*
X197806428Y-125067143D01*
X197734999Y-124995714D01*
X197734999Y-124495714D01*
X198020714Y-124495714D01*
X197163571Y-123781429D02*
X197092142Y-123710000D01*
X196949285Y-123638571D01*
X196592142Y-123638571D01*
X196449285Y-123710000D01*
X196377856Y-123781429D01*
X196306428Y-123924286D01*
X196306428Y-124067143D01*
X196377856Y-124281429D01*
X197234999Y-125138571D01*
X196306428Y-125138571D01*
X197806428Y-125615000D02*
X197949285Y-125543571D01*
X198163571Y-125543571D01*
X198377856Y-125615000D01*
X198520714Y-125757857D01*
X198592142Y-125900714D01*
X198663571Y-126186429D01*
X198663571Y-126400714D01*
X198592142Y-126686429D01*
X198520714Y-126829286D01*
X198377856Y-126972143D01*
X198163571Y-127043571D01*
X198020714Y-127043571D01*
X197806428Y-126972143D01*
X197734999Y-126900714D01*
X197734999Y-126400714D01*
X198020714Y-126400714D01*
X196306428Y-127043571D02*
X197163571Y-127043571D01*
X196734999Y-127043571D02*
X196734999Y-125543571D01*
X196877856Y-125757857D01*
X197020714Y-125900714D01*
X197163571Y-125972143D01*
D13*
X152400000Y-94297500D02*
X166370000Y-94297500D01*
X166370000Y-94297500D02*
X166370000Y-106997500D01*
X166370000Y-106997500D02*
X152400000Y-106997500D01*
X152400000Y-106997500D02*
X152400000Y-94297500D01*
X151130000Y-91757500D02*
X151130000Y-109537500D01*
X151130000Y-109537500D02*
X173990000Y-109537500D01*
X173990000Y-109537500D02*
X173990000Y-91757500D01*
X173990000Y-91757500D02*
X151130000Y-91757500D01*
M02*
